G04 #@! TF.GenerationSoftware,KiCad,Pcbnew,5.1.5*
G04 #@! TF.CreationDate,2020-02-27T19:31:16+03:00*
G04 #@! TF.ProjectId,top,746f702e-6b69-4636-9164-5f7063625858,rev?*
G04 #@! TF.SameCoordinates,Original*
G04 #@! TF.FileFunction,Legend,Bot*
G04 #@! TF.FilePolarity,Positive*
%FSLAX46Y46*%
G04 Gerber Fmt 4.6, Leading zero omitted, Abs format (unit mm)*
G04 Created by KiCad (PCBNEW 5.1.5) date 2020-02-27 19:31:16*
%MOMM*%
%LPD*%
G04 APERTURE LIST*
%ADD10C,0.120000*%
%ADD11C,0.150000*%
G04 APERTURE END LIST*
D10*
X1890000Y-187640000D02*
X1890000Y-186180000D01*
X-1270000Y-187640000D02*
X-1270000Y-185480000D01*
X-1270000Y-187640000D02*
X-340000Y-187640000D01*
X1890000Y-187640000D02*
X960000Y-187640000D01*
X1370000Y-200332779D02*
X1370000Y-200007221D01*
X350000Y-200332779D02*
X350000Y-200007221D01*
X-20884999Y-201952220D02*
X-20884999Y-202277778D01*
X-19864999Y-201952220D02*
X-19864999Y-202277778D01*
X-13389721Y-194904999D02*
X-13715279Y-194904999D01*
X-13389721Y-193884999D02*
X-13715279Y-193884999D01*
X-21254999Y-201944719D02*
X-21254999Y-202270277D01*
X-22274999Y-201944719D02*
X-22274999Y-202270277D01*
X3250000Y-186812779D02*
X3250000Y-186487221D01*
X2230000Y-186812779D02*
X2230000Y-186487221D01*
X-4245278Y-193860000D02*
X-3919720Y-193860000D01*
X-4245278Y-194880000D02*
X-3919720Y-194880000D01*
X3620000Y-186820280D02*
X3620000Y-186494722D01*
X4640000Y-186820280D02*
X4640000Y-186494722D01*
X38850000Y-200322779D02*
X38850000Y-199997221D01*
X37830000Y-200322779D02*
X37830000Y-199997221D01*
X17615001Y-201942220D02*
X17615001Y-202267778D01*
X16595001Y-201942220D02*
X16595001Y-202267778D01*
X24090279Y-193874999D02*
X23764721Y-193874999D01*
X24090279Y-194894999D02*
X23764721Y-194894999D01*
X16225001Y-201934719D02*
X16225001Y-202260277D01*
X15205001Y-201934719D02*
X15205001Y-202260277D01*
X40730000Y-186802779D02*
X40730000Y-186477221D01*
X39710000Y-186802779D02*
X39710000Y-186477221D01*
X33234722Y-193850000D02*
X33560280Y-193850000D01*
X33234722Y-194870000D02*
X33560280Y-194870000D01*
X41100000Y-186810280D02*
X41100000Y-186484722D01*
X42120000Y-186810280D02*
X42120000Y-186484722D01*
X21370000Y-188417221D02*
X21370000Y-188742779D01*
X20350000Y-188417221D02*
X20350000Y-188742779D01*
X18930000Y-185569721D02*
X18930000Y-185895279D01*
X19950000Y-185569721D02*
X19950000Y-185895279D01*
X10060000Y-185887221D02*
X10060000Y-186212779D01*
X11080000Y-185887221D02*
X11080000Y-186212779D01*
X12797221Y-191020000D02*
X13122779Y-191020000D01*
X12797221Y-190000000D02*
X13122779Y-190000000D01*
X-6910000Y-230142779D02*
X-6910000Y-229817221D01*
X-5890000Y-230142779D02*
X-5890000Y-229817221D01*
X-13610000Y-213997221D02*
X-13610000Y-214322779D01*
X-14630000Y-213997221D02*
X-14630000Y-214322779D01*
X-3010000Y-229480279D02*
X-3010000Y-229154721D01*
X-4030000Y-229480279D02*
X-4030000Y-229154721D01*
X25012779Y-226470000D02*
X24687221Y-226470000D01*
X25012779Y-225450000D02*
X24687221Y-225450000D01*
X-16042779Y-220560000D02*
X-15717221Y-220560000D01*
X-16042779Y-219540000D02*
X-15717221Y-219540000D01*
X-16082779Y-222580000D02*
X-15757221Y-222580000D01*
X-16082779Y-223600000D02*
X-15757221Y-223600000D01*
X17302779Y-210820000D02*
X16977221Y-210820000D01*
X17302779Y-211840000D02*
X16977221Y-211840000D01*
X-14760000Y-230192779D02*
X-14760000Y-229867221D01*
X-13740000Y-230192779D02*
X-13740000Y-229867221D01*
X-8410000Y-230150279D02*
X-8410000Y-229824721D01*
X-7390000Y-230150279D02*
X-7390000Y-229824721D01*
X262779Y-228070000D02*
X-62779Y-228070000D01*
X262779Y-229090000D02*
X-62779Y-229090000D01*
X-747221Y-218350000D02*
X-1072779Y-218350000D01*
X-747221Y-219370000D02*
X-1072779Y-219370000D01*
X142779Y-223300000D02*
X-182779Y-223300000D01*
X142779Y-224320000D02*
X-182779Y-224320000D01*
X23225279Y-221860000D02*
X22899721Y-221860000D01*
X23225279Y-220840000D02*
X22899721Y-220840000D01*
X-16082779Y-227080000D02*
X-15757221Y-227080000D01*
X-16082779Y-226060000D02*
X-15757221Y-226060000D01*
X-6590000Y-214377221D02*
X-6590000Y-214702779D01*
X-7610000Y-214377221D02*
X-7610000Y-214702779D01*
X-16092779Y-224040000D02*
X-15767221Y-224040000D01*
X-16092779Y-225060000D02*
X-15767221Y-225060000D01*
X-2160000Y-214127221D02*
X-2160000Y-214452779D01*
X-1140000Y-214127221D02*
X-1140000Y-214452779D01*
X-9860000Y-230130279D02*
X-9860000Y-229804721D01*
X-8840000Y-230130279D02*
X-8840000Y-229804721D01*
X-307221Y-221730000D02*
X-632779Y-221730000D01*
X-307221Y-222750000D02*
X-632779Y-222750000D01*
X262779Y-229530000D02*
X-62779Y-229530000D01*
X262779Y-230550000D02*
X-62779Y-230550000D01*
X15780000Y-220427221D02*
X15780000Y-220752779D01*
X16800000Y-220427221D02*
X16800000Y-220752779D01*
X22160000Y-226892779D02*
X22160000Y-226567221D01*
X23180000Y-226892779D02*
X23180000Y-226567221D01*
X16727221Y-227890000D02*
X17052779Y-227890000D01*
X16727221Y-226870000D02*
X17052779Y-226870000D01*
X-16052779Y-221020000D02*
X-15727221Y-221020000D01*
X-16052779Y-222040000D02*
X-15727221Y-222040000D01*
X42490000Y-236684721D02*
X42490000Y-237010279D01*
X41470000Y-236684721D02*
X41470000Y-237010279D01*
X-5120000Y-214389720D02*
X-5120000Y-214715278D01*
X-6140000Y-214389720D02*
X-6140000Y-214715278D01*
X23407221Y-219080000D02*
X23732779Y-219080000D01*
X23407221Y-220100000D02*
X23732779Y-220100000D01*
X-2590000Y-229482779D02*
X-2590000Y-229157221D01*
X-1570000Y-229482779D02*
X-1570000Y-229157221D01*
X41170000Y-229547221D02*
X41170000Y-229872779D01*
X42190000Y-229547221D02*
X42190000Y-229872779D01*
X-9830000Y-213957221D02*
X-9830000Y-214282779D01*
X-8810000Y-213957221D02*
X-8810000Y-214282779D01*
X41490000Y-222414722D02*
X41490000Y-222740280D01*
X42510000Y-222414722D02*
X42510000Y-222740280D01*
X-19524999Y-201124999D02*
X-19524999Y-202584999D01*
X-16364999Y-201124999D02*
X-16364999Y-203284999D01*
X-16364999Y-201124999D02*
X-17294999Y-201124999D01*
X-19524999Y-201124999D02*
X-18594999Y-201124999D01*
X17955001Y-201114999D02*
X18885001Y-201114999D01*
X21115001Y-201114999D02*
X20185001Y-201114999D01*
X21115001Y-201114999D02*
X21115001Y-203274999D01*
X17955001Y-201114999D02*
X17955001Y-202574999D01*
X39370000Y-187630000D02*
X39370000Y-186170000D01*
X36210000Y-187630000D02*
X36210000Y-185470000D01*
X36210000Y-187630000D02*
X37140000Y-187630000D01*
X39370000Y-187630000D02*
X38440000Y-187630000D01*
X-3080000Y-203060000D02*
X-2055000Y-203060000D01*
X-3080000Y-203060000D02*
X-3080000Y-204085000D01*
X-3080000Y-207830000D02*
X-3080000Y-206805000D01*
X-3080000Y-207830000D02*
X-2055000Y-207830000D01*
X1140000Y-207830000D02*
X115000Y-207830000D01*
X1140000Y-203060000D02*
X115000Y-203060000D01*
X1140000Y-207830000D02*
X1140000Y-206805000D01*
X1140000Y-203060000D02*
X1140000Y-204085000D01*
X38620000Y-203050000D02*
X38620000Y-204075000D01*
X38620000Y-207820000D02*
X38620000Y-206795000D01*
X38620000Y-203050000D02*
X37595000Y-203050000D01*
X38620000Y-207820000D02*
X37595000Y-207820000D01*
X34400000Y-207820000D02*
X35425000Y-207820000D01*
X34400000Y-207820000D02*
X34400000Y-206795000D01*
X34400000Y-203050000D02*
X34400000Y-204075000D01*
X34400000Y-203050000D02*
X35425000Y-203050000D01*
X6209999Y-199440000D02*
X7139999Y-199440000D01*
X9369999Y-199440000D02*
X8439999Y-199440000D01*
X9369999Y-199440000D02*
X9369999Y-201600000D01*
X6209999Y-199440000D02*
X6209999Y-200900000D01*
X2840000Y-199460000D02*
X3770000Y-199460000D01*
X6000000Y-199460000D02*
X5070000Y-199460000D01*
X6000000Y-199460000D02*
X6000000Y-201620000D01*
X2840000Y-199460000D02*
X2840000Y-200920000D01*
X-16194999Y-201144999D02*
X-16194999Y-202604999D01*
X-13034999Y-201144999D02*
X-13034999Y-203304999D01*
X-13034999Y-201144999D02*
X-13964999Y-201144999D01*
X-16194999Y-201144999D02*
X-15264999Y-201144999D01*
X-1439999Y-187620000D02*
X-2369999Y-187620000D01*
X-4599999Y-187620000D02*
X-3669999Y-187620000D01*
X-4599999Y-187620000D02*
X-4599999Y-185460000D01*
X-1439999Y-187620000D02*
X-1439999Y-186160000D01*
X44010000Y-199440000D02*
X44940000Y-199440000D01*
X47170000Y-199440000D02*
X46240000Y-199440000D01*
X47170000Y-199440000D02*
X47170000Y-201600000D01*
X44010000Y-199440000D02*
X44010000Y-200900000D01*
X40640000Y-199460000D02*
X41570000Y-199460000D01*
X43800000Y-199460000D02*
X42870000Y-199460000D01*
X43800000Y-199460000D02*
X43800000Y-201620000D01*
X40640000Y-199460000D02*
X40640000Y-200920000D01*
X21285001Y-201134999D02*
X22215001Y-201134999D01*
X24445001Y-201134999D02*
X23515001Y-201134999D01*
X24445001Y-201134999D02*
X24445001Y-203294999D01*
X21285001Y-201134999D02*
X21285001Y-202594999D01*
X36040001Y-187610000D02*
X36040001Y-186150000D01*
X32880001Y-187610000D02*
X32880001Y-185450000D01*
X32880001Y-187610000D02*
X33810001Y-187610000D01*
X36040001Y-187610000D02*
X35110001Y-187610000D01*
X18730000Y-176890000D02*
X18730000Y-178390000D01*
X18730000Y-178390000D02*
X18460000Y-178390000D01*
X18460000Y-178390000D02*
X18460000Y-181220000D01*
X11830000Y-176890000D02*
X11830000Y-178390000D01*
X11830000Y-178390000D02*
X12100000Y-178390000D01*
X12100000Y-178390000D02*
X12100000Y-179490000D01*
X-4842779Y-199080000D02*
X-4517221Y-199080000D01*
X-4842779Y-198060000D02*
X-4517221Y-198060000D01*
X-1599720Y-198060000D02*
X-1925278Y-198060000D01*
X-1599720Y-199080000D02*
X-1925278Y-199080000D01*
X8280000Y-197230280D02*
X8280000Y-196904722D01*
X7260000Y-197230280D02*
X7260000Y-196904722D01*
X7597221Y-203080000D02*
X7922779Y-203080000D01*
X7597221Y-202060000D02*
X7922779Y-202060000D01*
X4940000Y-197265279D02*
X4940000Y-196939721D01*
X3920000Y-197265279D02*
X3920000Y-196939721D01*
X4247221Y-203090000D02*
X4572779Y-203090000D01*
X4247221Y-202070000D02*
X4572779Y-202070000D01*
X-12984999Y-205225279D02*
X-12984999Y-204899721D01*
X-11964999Y-205225279D02*
X-11964999Y-204899721D01*
X-14459721Y-204784999D02*
X-14785279Y-204784999D01*
X-14459721Y-203764999D02*
X-14785279Y-203764999D01*
X-23802220Y-201824999D02*
X-24127778Y-201824999D01*
X-23802220Y-200804999D02*
X-24127778Y-200804999D01*
X-24110279Y-202384999D02*
X-23784721Y-202384999D01*
X-24110279Y-203404999D02*
X-23784721Y-203404999D01*
X-19232220Y-205834998D02*
X-19557778Y-205834998D01*
X-19232220Y-206854998D02*
X-19557778Y-206854998D01*
X-4649999Y-183539720D02*
X-4649999Y-183865278D01*
X-5669999Y-183539720D02*
X-5669999Y-183865278D01*
X-3175277Y-185000000D02*
X-2849719Y-185000000D01*
X-3175277Y-183980000D02*
X-2849719Y-183980000D01*
X6167221Y-186940000D02*
X6492779Y-186940000D01*
X6167221Y-187960000D02*
X6492779Y-187960000D01*
X6475280Y-186380000D02*
X6149722Y-186380000D01*
X6475280Y-185360000D02*
X6149722Y-185360000D01*
X1597221Y-182930001D02*
X1922779Y-182930001D01*
X1597221Y-181910001D02*
X1922779Y-181910001D01*
X32637221Y-199070000D02*
X32962779Y-199070000D01*
X32637221Y-198050000D02*
X32962779Y-198050000D01*
X35880280Y-198050000D02*
X35554722Y-198050000D01*
X35880280Y-199070000D02*
X35554722Y-199070000D01*
X46080000Y-197230280D02*
X46080000Y-196904722D01*
X45060000Y-197230280D02*
X45060000Y-196904722D01*
X45397221Y-202060000D02*
X45722779Y-202060000D01*
X45397221Y-203080000D02*
X45722779Y-203080000D01*
X42740000Y-197265279D02*
X42740000Y-196939721D01*
X41720000Y-197265279D02*
X41720000Y-196939721D01*
X42047221Y-202070000D02*
X42372779Y-202070000D01*
X42047221Y-203090000D02*
X42372779Y-203090000D01*
X24495001Y-205215279D02*
X24495001Y-204889721D01*
X25515001Y-205215279D02*
X25515001Y-204889721D01*
X23020279Y-203754999D02*
X22694721Y-203754999D01*
X23020279Y-204774999D02*
X22694721Y-204774999D01*
X13677780Y-200794999D02*
X13352222Y-200794999D01*
X13677780Y-201814999D02*
X13352222Y-201814999D01*
X13369721Y-202374999D02*
X13695279Y-202374999D01*
X13369721Y-203394999D02*
X13695279Y-203394999D01*
X18247780Y-206844998D02*
X17922222Y-206844998D01*
X18247780Y-205824998D02*
X17922222Y-205824998D01*
X32830001Y-183529720D02*
X32830001Y-183855278D01*
X31810001Y-183529720D02*
X31810001Y-183855278D01*
X34304723Y-184990000D02*
X34630281Y-184990000D01*
X34304723Y-183970000D02*
X34630281Y-183970000D01*
X43647221Y-187950000D02*
X43972779Y-187950000D01*
X43647221Y-186930000D02*
X43972779Y-186930000D01*
X43955280Y-185350000D02*
X43629722Y-185350000D01*
X43955280Y-186370000D02*
X43629722Y-186370000D01*
X39077221Y-181900001D02*
X39402779Y-181900001D01*
X39077221Y-182920001D02*
X39402779Y-182920001D01*
X19940000Y-188417221D02*
X19940000Y-188742779D01*
X18920000Y-188417221D02*
X18920000Y-188742779D01*
X17080000Y-182809720D02*
X17080000Y-183135278D01*
X18100000Y-182809720D02*
X18100000Y-183135278D01*
X22790000Y-188417221D02*
X22790000Y-188742779D01*
X21770000Y-188417221D02*
X21770000Y-188742779D01*
X9334999Y-178367063D02*
X9334999Y-177162935D01*
X7514999Y-178367063D02*
X7514999Y-177162935D01*
X16650000Y-182837221D02*
X16650000Y-183162779D01*
X15630000Y-182837221D02*
X15630000Y-183162779D01*
X5340000Y-178352064D02*
X5340000Y-177147936D01*
X7160000Y-178352064D02*
X7160000Y-177147936D01*
X9700000Y-178362064D02*
X9700000Y-177157936D01*
X11520000Y-178362064D02*
X11520000Y-177157936D01*
X21670000Y-226902779D02*
X21670000Y-226577221D01*
X20650000Y-226902779D02*
X20650000Y-226577221D01*
X41440000Y-234055279D02*
X41440000Y-233729721D01*
X42460000Y-234055279D02*
X42460000Y-233729721D01*
X42190000Y-226930280D02*
X42190000Y-226604722D01*
X41170000Y-226930280D02*
X41170000Y-226604722D01*
X42510000Y-219805278D02*
X42510000Y-219479720D01*
X41490000Y-219805278D02*
X41490000Y-219479720D01*
D11*
X-4879999Y-202649999D02*
X-4879999Y-202424999D01*
X-1529999Y-202649999D02*
X-1529999Y-202349999D01*
X-1529999Y-199299999D02*
X-1529999Y-199599999D01*
X-4879999Y-199299999D02*
X-4879999Y-199599999D01*
X-4879999Y-202649999D02*
X-1529999Y-202649999D01*
X-4879999Y-199299999D02*
X-1529999Y-199299999D01*
X-4879999Y-202424999D02*
X-6104999Y-202424999D01*
X32600001Y-202414999D02*
X31375001Y-202414999D01*
X32600001Y-199289999D02*
X35950001Y-199289999D01*
X32600001Y-202639999D02*
X35950001Y-202639999D01*
X32600001Y-199289999D02*
X32600001Y-199589999D01*
X35950001Y-199289999D02*
X35950001Y-199589999D01*
X35950001Y-202639999D02*
X35950001Y-202339999D01*
X32600001Y-202639999D02*
X32600001Y-202414999D01*
D10*
X15014999Y-189725001D02*
X13064999Y-189725001D01*
X15014999Y-189725001D02*
X16964999Y-189725001D01*
X15014999Y-184605001D02*
X13064999Y-184605001D01*
X15014999Y-184605001D02*
X18464999Y-184605001D01*
X14650000Y-196560000D02*
X12700000Y-196560000D01*
X14650000Y-196560000D02*
X16600000Y-196560000D01*
X14650000Y-191440000D02*
X12700000Y-191440000D01*
X14650000Y-191440000D02*
X18100000Y-191440000D01*
D11*
X742380Y-188841904D02*
X-257619Y-188841904D01*
X-257619Y-189080000D01*
X-210000Y-189222857D01*
X-114761Y-189318095D01*
X-19523Y-189365714D01*
X170952Y-189413333D01*
X313809Y-189413333D01*
X504285Y-189365714D01*
X599523Y-189318095D01*
X694761Y-189222857D01*
X742380Y-189080000D01*
X742380Y-188841904D01*
X-162380Y-189794285D02*
X-210000Y-189841904D01*
X-257619Y-189937142D01*
X-257619Y-190175238D01*
X-210000Y-190270476D01*
X-162380Y-190318095D01*
X-67142Y-190365714D01*
X28095Y-190365714D01*
X170952Y-190318095D01*
X742380Y-189746666D01*
X742380Y-190365714D01*
X1932857Y-200336666D02*
X1885238Y-200384285D01*
X1837619Y-200527142D01*
X1837619Y-200622380D01*
X1885238Y-200765238D01*
X1980476Y-200860476D01*
X2075714Y-200908095D01*
X2266190Y-200955714D01*
X2409047Y-200955714D01*
X2599523Y-200908095D01*
X2694761Y-200860476D01*
X2790000Y-200765238D01*
X2837619Y-200622380D01*
X2837619Y-200527142D01*
X2790000Y-200384285D01*
X2742380Y-200336666D01*
X1837619Y-199384285D02*
X1837619Y-199955714D01*
X1837619Y-199670000D02*
X2837619Y-199670000D01*
X2694761Y-199765238D01*
X2599523Y-199860476D01*
X2551904Y-199955714D01*
X-19957856Y-199068332D02*
X-19910237Y-199020713D01*
X-19862618Y-198877856D01*
X-19862618Y-198782618D01*
X-19910237Y-198639760D01*
X-20005475Y-198544522D01*
X-20100713Y-198496903D01*
X-20291189Y-198449284D01*
X-20434046Y-198449284D01*
X-20624522Y-198496903D01*
X-20719760Y-198544522D01*
X-20814999Y-198639760D01*
X-20862618Y-198782618D01*
X-20862618Y-198877856D01*
X-20814999Y-199020713D01*
X-20767379Y-199068332D01*
X-20529284Y-199925475D02*
X-19862618Y-199925475D01*
X-20910237Y-199687379D02*
X-20195951Y-199449284D01*
X-20195951Y-200068332D01*
X-13385833Y-193322141D02*
X-13338214Y-193369760D01*
X-13195357Y-193417379D01*
X-13100119Y-193417379D01*
X-12957261Y-193369760D01*
X-12862023Y-193274522D01*
X-12814404Y-193179284D01*
X-12766785Y-192988808D01*
X-12766785Y-192845951D01*
X-12814404Y-192655475D01*
X-12862023Y-192560237D01*
X-12957261Y-192464999D01*
X-13100119Y-192417379D01*
X-13195357Y-192417379D01*
X-13338214Y-192464999D01*
X-13385833Y-192512618D01*
X-14290595Y-192417379D02*
X-13814404Y-192417379D01*
X-13766785Y-192893570D01*
X-13814404Y-192845951D01*
X-13909642Y-192798332D01*
X-14147738Y-192798332D01*
X-14242976Y-192845951D01*
X-14290595Y-192893570D01*
X-14338214Y-192988808D01*
X-14338214Y-193226903D01*
X-14290595Y-193322141D01*
X-14242976Y-193369760D01*
X-14147738Y-193417379D01*
X-13909642Y-193417379D01*
X-13814404Y-193369760D01*
X-13766785Y-193322141D01*
X-21387856Y-199068332D02*
X-21340237Y-199020713D01*
X-21292618Y-198877856D01*
X-21292618Y-198782618D01*
X-21340237Y-198639760D01*
X-21435475Y-198544522D01*
X-21530713Y-198496903D01*
X-21721189Y-198449284D01*
X-21864046Y-198449284D01*
X-22054522Y-198496903D01*
X-22149760Y-198544522D01*
X-22244999Y-198639760D01*
X-22292618Y-198782618D01*
X-22292618Y-198877856D01*
X-22244999Y-199020713D01*
X-22197379Y-199068332D01*
X-22292618Y-199925475D02*
X-22292618Y-199734999D01*
X-22244999Y-199639760D01*
X-22197379Y-199592141D01*
X-22054522Y-199496903D01*
X-21864046Y-199449284D01*
X-21483094Y-199449284D01*
X-21387856Y-199496903D01*
X-21340237Y-199544522D01*
X-21292618Y-199639760D01*
X-21292618Y-199830237D01*
X-21340237Y-199925475D01*
X-21387856Y-199973094D01*
X-21483094Y-200020713D01*
X-21721189Y-200020713D01*
X-21816427Y-199973094D01*
X-21864046Y-199925475D01*
X-21911665Y-199830237D01*
X-21911665Y-199639760D01*
X-21864046Y-199544522D01*
X-21816427Y-199496903D01*
X-21721189Y-199449284D01*
X3037142Y-188887142D02*
X3084761Y-188839523D01*
X3132380Y-188696666D01*
X3132380Y-188601428D01*
X3084761Y-188458571D01*
X2989523Y-188363333D01*
X2894285Y-188315714D01*
X2703809Y-188268095D01*
X2560952Y-188268095D01*
X2370476Y-188315714D01*
X2275238Y-188363333D01*
X2180000Y-188458571D01*
X2132380Y-188601428D01*
X2132380Y-188696666D01*
X2180000Y-188839523D01*
X2227619Y-188887142D01*
X3132380Y-189839523D02*
X3132380Y-189268095D01*
X3132380Y-189553809D02*
X2132380Y-189553809D01*
X2275238Y-189458571D01*
X2370476Y-189363333D01*
X2418095Y-189268095D01*
X2465714Y-190696666D02*
X3132380Y-190696666D01*
X2084761Y-190458571D02*
X2799047Y-190220476D01*
X2799047Y-190839523D01*
X-3439641Y-196157142D02*
X-3392022Y-196204761D01*
X-3249165Y-196252380D01*
X-3153927Y-196252380D01*
X-3011070Y-196204761D01*
X-2915832Y-196109523D01*
X-2868213Y-196014285D01*
X-2820594Y-195823809D01*
X-2820594Y-195680952D01*
X-2868213Y-195490476D01*
X-2915832Y-195395238D01*
X-3011070Y-195300000D01*
X-3153927Y-195252380D01*
X-3249165Y-195252380D01*
X-3392022Y-195300000D01*
X-3439641Y-195347619D01*
X-4392022Y-196252380D02*
X-3820594Y-196252380D01*
X-4106308Y-196252380D02*
X-4106308Y-195252380D01*
X-4011070Y-195395238D01*
X-3915832Y-195490476D01*
X-3820594Y-195538095D01*
X-5296784Y-195252380D02*
X-4820594Y-195252380D01*
X-4772975Y-195728571D01*
X-4820594Y-195680952D01*
X-4915832Y-195633333D01*
X-5153927Y-195633333D01*
X-5249165Y-195680952D01*
X-5296784Y-195728571D01*
X-5344403Y-195823809D01*
X-5344403Y-196061904D01*
X-5296784Y-196157142D01*
X-5249165Y-196204761D01*
X-5153927Y-196252380D01*
X-4915832Y-196252380D01*
X-4820594Y-196204761D01*
X-4772975Y-196157142D01*
X4467142Y-188887142D02*
X4514761Y-188839523D01*
X4562380Y-188696666D01*
X4562380Y-188601428D01*
X4514761Y-188458571D01*
X4419523Y-188363333D01*
X4324285Y-188315714D01*
X4133809Y-188268095D01*
X3990952Y-188268095D01*
X3800476Y-188315714D01*
X3705238Y-188363333D01*
X3610000Y-188458571D01*
X3562380Y-188601428D01*
X3562380Y-188696666D01*
X3610000Y-188839523D01*
X3657619Y-188887142D01*
X4562380Y-189839523D02*
X4562380Y-189268095D01*
X4562380Y-189553809D02*
X3562380Y-189553809D01*
X3705238Y-189458571D01*
X3800476Y-189363333D01*
X3848095Y-189268095D01*
X3562380Y-190696666D02*
X3562380Y-190506190D01*
X3610000Y-190410952D01*
X3657619Y-190363333D01*
X3800476Y-190268095D01*
X3990952Y-190220476D01*
X4371904Y-190220476D01*
X4467142Y-190268095D01*
X4514761Y-190315714D01*
X4562380Y-190410952D01*
X4562380Y-190601428D01*
X4514761Y-190696666D01*
X4467142Y-190744285D01*
X4371904Y-190791904D01*
X4133809Y-190791904D01*
X4038571Y-190744285D01*
X3990952Y-190696666D01*
X3943333Y-190601428D01*
X3943333Y-190410952D01*
X3990952Y-190315714D01*
X4038571Y-190268095D01*
X4133809Y-190220476D01*
X39412857Y-200802857D02*
X39365238Y-200850476D01*
X39317619Y-200993333D01*
X39317619Y-201088571D01*
X39365238Y-201231428D01*
X39460476Y-201326666D01*
X39555714Y-201374285D01*
X39746190Y-201421904D01*
X39889047Y-201421904D01*
X40079523Y-201374285D01*
X40174761Y-201326666D01*
X40270000Y-201231428D01*
X40317619Y-201088571D01*
X40317619Y-200993333D01*
X40270000Y-200850476D01*
X40222380Y-200802857D01*
X40317619Y-200469523D02*
X40317619Y-199850476D01*
X39936666Y-200183809D01*
X39936666Y-200040952D01*
X39889047Y-199945714D01*
X39841428Y-199898095D01*
X39746190Y-199850476D01*
X39508095Y-199850476D01*
X39412857Y-199898095D01*
X39365238Y-199945714D01*
X39317619Y-200040952D01*
X39317619Y-200326666D01*
X39365238Y-200421904D01*
X39412857Y-200469523D01*
X39889047Y-199279047D02*
X39936666Y-199374285D01*
X39984285Y-199421904D01*
X40079523Y-199469523D01*
X40127142Y-199469523D01*
X40222380Y-199421904D01*
X40270000Y-199374285D01*
X40317619Y-199279047D01*
X40317619Y-199088571D01*
X40270000Y-198993333D01*
X40222380Y-198945714D01*
X40127142Y-198898095D01*
X40079523Y-198898095D01*
X39984285Y-198945714D01*
X39936666Y-198993333D01*
X39889047Y-199088571D01*
X39889047Y-199279047D01*
X39841428Y-199374285D01*
X39793809Y-199421904D01*
X39698571Y-199469523D01*
X39508095Y-199469523D01*
X39412857Y-199421904D01*
X39365238Y-199374285D01*
X39317619Y-199279047D01*
X39317619Y-199088571D01*
X39365238Y-198993333D01*
X39412857Y-198945714D01*
X39508095Y-198898095D01*
X39698571Y-198898095D01*
X39793809Y-198945714D01*
X39841428Y-198993333D01*
X39889047Y-199088571D01*
X17522143Y-198582141D02*
X17569762Y-198534522D01*
X17617381Y-198391665D01*
X17617381Y-198296427D01*
X17569762Y-198153570D01*
X17474524Y-198058332D01*
X17379286Y-198010713D01*
X17188810Y-197963094D01*
X17045953Y-197963094D01*
X16855477Y-198010713D01*
X16760239Y-198058332D01*
X16665001Y-198153570D01*
X16617381Y-198296427D01*
X16617381Y-198391665D01*
X16665001Y-198534522D01*
X16712620Y-198582141D01*
X16950715Y-199439284D02*
X17617381Y-199439284D01*
X16569762Y-199201189D02*
X17284048Y-198963094D01*
X17284048Y-199582141D01*
X17617381Y-200486903D02*
X17617381Y-199915475D01*
X17617381Y-200201189D02*
X16617381Y-200201189D01*
X16760239Y-200105951D01*
X16855477Y-200010713D01*
X16903096Y-199915475D01*
X24570357Y-193312141D02*
X24617976Y-193359760D01*
X24760833Y-193407379D01*
X24856071Y-193407379D01*
X24998928Y-193359760D01*
X25094166Y-193264522D01*
X25141785Y-193169284D01*
X25189404Y-192978808D01*
X25189404Y-192835951D01*
X25141785Y-192645475D01*
X25094166Y-192550237D01*
X24998928Y-192454999D01*
X24856071Y-192407379D01*
X24760833Y-192407379D01*
X24617976Y-192454999D01*
X24570357Y-192502618D01*
X23713214Y-192740713D02*
X23713214Y-193407379D01*
X23951309Y-192359760D02*
X24189404Y-193074046D01*
X23570357Y-193074046D01*
X23237023Y-192502618D02*
X23189404Y-192454999D01*
X23094166Y-192407379D01*
X22856071Y-192407379D01*
X22760833Y-192454999D01*
X22713214Y-192502618D01*
X22665595Y-192597856D01*
X22665595Y-192693094D01*
X22713214Y-192835951D01*
X23284642Y-193407379D01*
X22665595Y-193407379D01*
X16092143Y-198582141D02*
X16139762Y-198534522D01*
X16187381Y-198391665D01*
X16187381Y-198296427D01*
X16139762Y-198153570D01*
X16044524Y-198058332D01*
X15949286Y-198010713D01*
X15758810Y-197963094D01*
X15615953Y-197963094D01*
X15425477Y-198010713D01*
X15330239Y-198058332D01*
X15235001Y-198153570D01*
X15187381Y-198296427D01*
X15187381Y-198391665D01*
X15235001Y-198534522D01*
X15282620Y-198582141D01*
X15520715Y-199439284D02*
X16187381Y-199439284D01*
X15139762Y-199201189D02*
X15854048Y-198963094D01*
X15854048Y-199582141D01*
X15187381Y-199867856D02*
X15187381Y-200486903D01*
X15568334Y-200153570D01*
X15568334Y-200296427D01*
X15615953Y-200391665D01*
X15663572Y-200439284D01*
X15758810Y-200486903D01*
X15996905Y-200486903D01*
X16092143Y-200439284D01*
X16139762Y-200391665D01*
X16187381Y-200296427D01*
X16187381Y-200010713D01*
X16139762Y-199915475D01*
X16092143Y-199867856D01*
X40517142Y-188877142D02*
X40564761Y-188829523D01*
X40612380Y-188686666D01*
X40612380Y-188591428D01*
X40564761Y-188448571D01*
X40469523Y-188353333D01*
X40374285Y-188305714D01*
X40183809Y-188258095D01*
X40040952Y-188258095D01*
X39850476Y-188305714D01*
X39755238Y-188353333D01*
X39660000Y-188448571D01*
X39612380Y-188591428D01*
X39612380Y-188686666D01*
X39660000Y-188829523D01*
X39707619Y-188877142D01*
X39612380Y-189781904D02*
X39612380Y-189305714D01*
X40088571Y-189258095D01*
X40040952Y-189305714D01*
X39993333Y-189400952D01*
X39993333Y-189639047D01*
X40040952Y-189734285D01*
X40088571Y-189781904D01*
X40183809Y-189829523D01*
X40421904Y-189829523D01*
X40517142Y-189781904D01*
X40564761Y-189734285D01*
X40612380Y-189639047D01*
X40612380Y-189400952D01*
X40564761Y-189305714D01*
X40517142Y-189258095D01*
X40612380Y-190781904D02*
X40612380Y-190210476D01*
X40612380Y-190496190D02*
X39612380Y-190496190D01*
X39755238Y-190400952D01*
X39850476Y-190305714D01*
X39898095Y-190210476D01*
X34040358Y-196147142D02*
X34087977Y-196194761D01*
X34230834Y-196242380D01*
X34326072Y-196242380D01*
X34468929Y-196194761D01*
X34564167Y-196099523D01*
X34611786Y-196004285D01*
X34659405Y-195813809D01*
X34659405Y-195670952D01*
X34611786Y-195480476D01*
X34564167Y-195385238D01*
X34468929Y-195290000D01*
X34326072Y-195242380D01*
X34230834Y-195242380D01*
X34087977Y-195290000D01*
X34040358Y-195337619D01*
X33135596Y-195242380D02*
X33611786Y-195242380D01*
X33659405Y-195718571D01*
X33611786Y-195670952D01*
X33516548Y-195623333D01*
X33278453Y-195623333D01*
X33183215Y-195670952D01*
X33135596Y-195718571D01*
X33087977Y-195813809D01*
X33087977Y-196051904D01*
X33135596Y-196147142D01*
X33183215Y-196194761D01*
X33278453Y-196242380D01*
X33516548Y-196242380D01*
X33611786Y-196194761D01*
X33659405Y-196147142D01*
X32707024Y-195337619D02*
X32659405Y-195290000D01*
X32564167Y-195242380D01*
X32326072Y-195242380D01*
X32230834Y-195290000D01*
X32183215Y-195337619D01*
X32135596Y-195432857D01*
X32135596Y-195528095D01*
X32183215Y-195670952D01*
X32754643Y-196242380D01*
X32135596Y-196242380D01*
X41947142Y-188877142D02*
X41994761Y-188829523D01*
X42042380Y-188686666D01*
X42042380Y-188591428D01*
X41994761Y-188448571D01*
X41899523Y-188353333D01*
X41804285Y-188305714D01*
X41613809Y-188258095D01*
X41470952Y-188258095D01*
X41280476Y-188305714D01*
X41185238Y-188353333D01*
X41090000Y-188448571D01*
X41042380Y-188591428D01*
X41042380Y-188686666D01*
X41090000Y-188829523D01*
X41137619Y-188877142D01*
X41042380Y-189781904D02*
X41042380Y-189305714D01*
X41518571Y-189258095D01*
X41470952Y-189305714D01*
X41423333Y-189400952D01*
X41423333Y-189639047D01*
X41470952Y-189734285D01*
X41518571Y-189781904D01*
X41613809Y-189829523D01*
X41851904Y-189829523D01*
X41947142Y-189781904D01*
X41994761Y-189734285D01*
X42042380Y-189639047D01*
X42042380Y-189400952D01*
X41994761Y-189305714D01*
X41947142Y-189258095D01*
X41042380Y-190162857D02*
X41042380Y-190781904D01*
X41423333Y-190448571D01*
X41423333Y-190591428D01*
X41470952Y-190686666D01*
X41518571Y-190734285D01*
X41613809Y-190781904D01*
X41851904Y-190781904D01*
X41947142Y-190734285D01*
X41994761Y-190686666D01*
X42042380Y-190591428D01*
X42042380Y-190305714D01*
X41994761Y-190210476D01*
X41947142Y-190162857D01*
X21217142Y-190897142D02*
X21264761Y-190849523D01*
X21312380Y-190706666D01*
X21312380Y-190611428D01*
X21264761Y-190468571D01*
X21169523Y-190373333D01*
X21074285Y-190325714D01*
X20883809Y-190278095D01*
X20740952Y-190278095D01*
X20550476Y-190325714D01*
X20455238Y-190373333D01*
X20360000Y-190468571D01*
X20312380Y-190611428D01*
X20312380Y-190706666D01*
X20360000Y-190849523D01*
X20407619Y-190897142D01*
X20312380Y-191801904D02*
X20312380Y-191325714D01*
X20788571Y-191278095D01*
X20740952Y-191325714D01*
X20693333Y-191420952D01*
X20693333Y-191659047D01*
X20740952Y-191754285D01*
X20788571Y-191801904D01*
X20883809Y-191849523D01*
X21121904Y-191849523D01*
X21217142Y-191801904D01*
X21264761Y-191754285D01*
X21312380Y-191659047D01*
X21312380Y-191420952D01*
X21264761Y-191325714D01*
X21217142Y-191278095D01*
X21312380Y-192325714D02*
X21312380Y-192516190D01*
X21264761Y-192611428D01*
X21217142Y-192659047D01*
X21074285Y-192754285D01*
X20883809Y-192801904D01*
X20502857Y-192801904D01*
X20407619Y-192754285D01*
X20360000Y-192706666D01*
X20312380Y-192611428D01*
X20312380Y-192420952D01*
X20360000Y-192325714D01*
X20407619Y-192278095D01*
X20502857Y-192230476D01*
X20740952Y-192230476D01*
X20836190Y-192278095D01*
X20883809Y-192325714D01*
X20931428Y-192420952D01*
X20931428Y-192611428D01*
X20883809Y-192706666D01*
X20836190Y-192754285D01*
X20740952Y-192801904D01*
X21217142Y-185089642D02*
X21264761Y-185042023D01*
X21312380Y-184899166D01*
X21312380Y-184803928D01*
X21264761Y-184661071D01*
X21169523Y-184565833D01*
X21074285Y-184518214D01*
X20883809Y-184470595D01*
X20740952Y-184470595D01*
X20550476Y-184518214D01*
X20455238Y-184565833D01*
X20360000Y-184661071D01*
X20312380Y-184803928D01*
X20312380Y-184899166D01*
X20360000Y-185042023D01*
X20407619Y-185089642D01*
X20312380Y-185946785D02*
X20312380Y-185756309D01*
X20360000Y-185661071D01*
X20407619Y-185613452D01*
X20550476Y-185518214D01*
X20740952Y-185470595D01*
X21121904Y-185470595D01*
X21217142Y-185518214D01*
X21264761Y-185565833D01*
X21312380Y-185661071D01*
X21312380Y-185851547D01*
X21264761Y-185946785D01*
X21217142Y-185994404D01*
X21121904Y-186042023D01*
X20883809Y-186042023D01*
X20788571Y-185994404D01*
X20740952Y-185946785D01*
X20693333Y-185851547D01*
X20693333Y-185661071D01*
X20740952Y-185565833D01*
X20788571Y-185518214D01*
X20883809Y-185470595D01*
X20312380Y-186661071D02*
X20312380Y-186756309D01*
X20360000Y-186851547D01*
X20407619Y-186899166D01*
X20502857Y-186946785D01*
X20693333Y-186994404D01*
X20931428Y-186994404D01*
X21121904Y-186946785D01*
X21217142Y-186899166D01*
X21264761Y-186851547D01*
X21312380Y-186756309D01*
X21312380Y-186661071D01*
X21264761Y-186565833D01*
X21217142Y-186518214D01*
X21121904Y-186470595D01*
X20931428Y-186422976D01*
X20693333Y-186422976D01*
X20502857Y-186470595D01*
X20407619Y-186518214D01*
X20360000Y-186565833D01*
X20312380Y-186661071D01*
X9497142Y-185407142D02*
X9544761Y-185359523D01*
X9592380Y-185216666D01*
X9592380Y-185121428D01*
X9544761Y-184978571D01*
X9449523Y-184883333D01*
X9354285Y-184835714D01*
X9163809Y-184788095D01*
X9020952Y-184788095D01*
X8830476Y-184835714D01*
X8735238Y-184883333D01*
X8640000Y-184978571D01*
X8592380Y-185121428D01*
X8592380Y-185216666D01*
X8640000Y-185359523D01*
X8687619Y-185407142D01*
X8592380Y-186264285D02*
X8592380Y-186073809D01*
X8640000Y-185978571D01*
X8687619Y-185930952D01*
X8830476Y-185835714D01*
X9020952Y-185788095D01*
X9401904Y-185788095D01*
X9497142Y-185835714D01*
X9544761Y-185883333D01*
X9592380Y-185978571D01*
X9592380Y-186169047D01*
X9544761Y-186264285D01*
X9497142Y-186311904D01*
X9401904Y-186359523D01*
X9163809Y-186359523D01*
X9068571Y-186311904D01*
X9020952Y-186264285D01*
X8973333Y-186169047D01*
X8973333Y-185978571D01*
X9020952Y-185883333D01*
X9068571Y-185835714D01*
X9163809Y-185788095D01*
X9592380Y-187311904D02*
X9592380Y-186740476D01*
X9592380Y-187026190D02*
X8592380Y-187026190D01*
X8735238Y-186930952D01*
X8830476Y-186835714D01*
X8878095Y-186740476D01*
X10762857Y-190887142D02*
X10810476Y-190934761D01*
X10953333Y-190982380D01*
X11048571Y-190982380D01*
X11191428Y-190934761D01*
X11286666Y-190839523D01*
X11334285Y-190744285D01*
X11381904Y-190553809D01*
X11381904Y-190410952D01*
X11334285Y-190220476D01*
X11286666Y-190125238D01*
X11191428Y-190030000D01*
X11048571Y-189982380D01*
X10953333Y-189982380D01*
X10810476Y-190030000D01*
X10762857Y-190077619D01*
X10429523Y-189982380D02*
X9762857Y-189982380D01*
X10191428Y-190982380D01*
X8953333Y-190315714D02*
X8953333Y-190982380D01*
X9191428Y-189934761D02*
X9429523Y-190649047D01*
X8810476Y-190649047D01*
X-4612857Y-229337142D02*
X-4565238Y-229289523D01*
X-4517619Y-229146666D01*
X-4517619Y-229051428D01*
X-4565238Y-228908571D01*
X-4660476Y-228813333D01*
X-4755714Y-228765714D01*
X-4946190Y-228718095D01*
X-5089047Y-228718095D01*
X-5279523Y-228765714D01*
X-5374761Y-228813333D01*
X-5470000Y-228908571D01*
X-5517619Y-229051428D01*
X-5517619Y-229146666D01*
X-5470000Y-229289523D01*
X-5422380Y-229337142D01*
X-5517619Y-229670476D02*
X-5517619Y-230337142D01*
X-4517619Y-229908571D01*
X-5517619Y-231194285D02*
X-5517619Y-230718095D01*
X-5041428Y-230670476D01*
X-5089047Y-230718095D01*
X-5136666Y-230813333D01*
X-5136666Y-231051428D01*
X-5089047Y-231146666D01*
X-5041428Y-231194285D01*
X-4946190Y-231241904D01*
X-4708095Y-231241904D01*
X-4612857Y-231194285D01*
X-4565238Y-231146666D01*
X-4517619Y-231051428D01*
X-4517619Y-230813333D01*
X-4565238Y-230718095D01*
X-4612857Y-230670476D01*
X-15192857Y-213517142D02*
X-15145238Y-213469523D01*
X-15097619Y-213326666D01*
X-15097619Y-213231428D01*
X-15145238Y-213088571D01*
X-15240476Y-212993333D01*
X-15335714Y-212945714D01*
X-15526190Y-212898095D01*
X-15669047Y-212898095D01*
X-15859523Y-212945714D01*
X-15954761Y-212993333D01*
X-16050000Y-213088571D01*
X-16097619Y-213231428D01*
X-16097619Y-213326666D01*
X-16050000Y-213469523D01*
X-16002380Y-213517142D01*
X-16097619Y-213850476D02*
X-16097619Y-214517142D01*
X-15097619Y-214088571D01*
X-16097619Y-215326666D02*
X-16097619Y-215136190D01*
X-16050000Y-215040952D01*
X-16002380Y-214993333D01*
X-15859523Y-214898095D01*
X-15669047Y-214850476D01*
X-15288095Y-214850476D01*
X-15192857Y-214898095D01*
X-15145238Y-214945714D01*
X-15097619Y-215040952D01*
X-15097619Y-215231428D01*
X-15145238Y-215326666D01*
X-15192857Y-215374285D01*
X-15288095Y-215421904D01*
X-15526190Y-215421904D01*
X-15621428Y-215374285D01*
X-15669047Y-215326666D01*
X-15716666Y-215231428D01*
X-15716666Y-215040952D01*
X-15669047Y-214945714D01*
X-15621428Y-214898095D01*
X-15526190Y-214850476D01*
X-3132857Y-225844642D02*
X-3085238Y-225797023D01*
X-3037619Y-225654166D01*
X-3037619Y-225558928D01*
X-3085238Y-225416071D01*
X-3180476Y-225320833D01*
X-3275714Y-225273214D01*
X-3466190Y-225225595D01*
X-3609047Y-225225595D01*
X-3799523Y-225273214D01*
X-3894761Y-225320833D01*
X-3990000Y-225416071D01*
X-4037619Y-225558928D01*
X-4037619Y-225654166D01*
X-3990000Y-225797023D01*
X-3942380Y-225844642D01*
X-4037619Y-226177976D02*
X-4037619Y-226844642D01*
X-3037619Y-226416071D01*
X-4037619Y-227130357D02*
X-4037619Y-227797023D01*
X-3037619Y-227368452D01*
X28352857Y-226307142D02*
X28400476Y-226354761D01*
X28543333Y-226402380D01*
X28638571Y-226402380D01*
X28781428Y-226354761D01*
X28876666Y-226259523D01*
X28924285Y-226164285D01*
X28971904Y-225973809D01*
X28971904Y-225830952D01*
X28924285Y-225640476D01*
X28876666Y-225545238D01*
X28781428Y-225450000D01*
X28638571Y-225402380D01*
X28543333Y-225402380D01*
X28400476Y-225450000D01*
X28352857Y-225497619D01*
X28019523Y-225402380D02*
X27352857Y-225402380D01*
X27781428Y-226402380D01*
X26829047Y-225830952D02*
X26924285Y-225783333D01*
X26971904Y-225735714D01*
X27019523Y-225640476D01*
X27019523Y-225592857D01*
X26971904Y-225497619D01*
X26924285Y-225450000D01*
X26829047Y-225402380D01*
X26638571Y-225402380D01*
X26543333Y-225450000D01*
X26495714Y-225497619D01*
X26448095Y-225592857D01*
X26448095Y-225640476D01*
X26495714Y-225735714D01*
X26543333Y-225783333D01*
X26638571Y-225830952D01*
X26829047Y-225830952D01*
X26924285Y-225878571D01*
X26971904Y-225926190D01*
X27019523Y-226021428D01*
X27019523Y-226211904D01*
X26971904Y-226307142D01*
X26924285Y-226354761D01*
X26829047Y-226402380D01*
X26638571Y-226402380D01*
X26543333Y-226354761D01*
X26495714Y-226307142D01*
X26448095Y-226211904D01*
X26448095Y-226021428D01*
X26495714Y-225926190D01*
X26543333Y-225878571D01*
X26638571Y-225830952D01*
X-12197142Y-220467142D02*
X-12149523Y-220514761D01*
X-12006666Y-220562380D01*
X-11911428Y-220562380D01*
X-11768571Y-220514761D01*
X-11673333Y-220419523D01*
X-11625714Y-220324285D01*
X-11578095Y-220133809D01*
X-11578095Y-219990952D01*
X-11625714Y-219800476D01*
X-11673333Y-219705238D01*
X-11768571Y-219610000D01*
X-11911428Y-219562380D01*
X-12006666Y-219562380D01*
X-12149523Y-219610000D01*
X-12197142Y-219657619D01*
X-12530476Y-219562380D02*
X-13197142Y-219562380D01*
X-12768571Y-220562380D01*
X-13625714Y-220562380D02*
X-13816190Y-220562380D01*
X-13911428Y-220514761D01*
X-13959047Y-220467142D01*
X-14054285Y-220324285D01*
X-14101904Y-220133809D01*
X-14101904Y-219752857D01*
X-14054285Y-219657619D01*
X-14006666Y-219610000D01*
X-13911428Y-219562380D01*
X-13720952Y-219562380D01*
X-13625714Y-219610000D01*
X-13578095Y-219657619D01*
X-13530476Y-219752857D01*
X-13530476Y-219990952D01*
X-13578095Y-220086190D01*
X-13625714Y-220133809D01*
X-13720952Y-220181428D01*
X-13911428Y-220181428D01*
X-14006666Y-220133809D01*
X-14054285Y-220086190D01*
X-14101904Y-219990952D01*
X-12317142Y-223437142D02*
X-12269523Y-223484761D01*
X-12126666Y-223532380D01*
X-12031428Y-223532380D01*
X-11888571Y-223484761D01*
X-11793333Y-223389523D01*
X-11745714Y-223294285D01*
X-11698095Y-223103809D01*
X-11698095Y-222960952D01*
X-11745714Y-222770476D01*
X-11793333Y-222675238D01*
X-11888571Y-222580000D01*
X-12031428Y-222532380D01*
X-12126666Y-222532380D01*
X-12269523Y-222580000D01*
X-12317142Y-222627619D01*
X-12888571Y-222960952D02*
X-12793333Y-222913333D01*
X-12745714Y-222865714D01*
X-12698095Y-222770476D01*
X-12698095Y-222722857D01*
X-12745714Y-222627619D01*
X-12793333Y-222580000D01*
X-12888571Y-222532380D01*
X-13079047Y-222532380D01*
X-13174285Y-222580000D01*
X-13221904Y-222627619D01*
X-13269523Y-222722857D01*
X-13269523Y-222770476D01*
X-13221904Y-222865714D01*
X-13174285Y-222913333D01*
X-13079047Y-222960952D01*
X-12888571Y-222960952D01*
X-12793333Y-223008571D01*
X-12745714Y-223056190D01*
X-12698095Y-223151428D01*
X-12698095Y-223341904D01*
X-12745714Y-223437142D01*
X-12793333Y-223484761D01*
X-12888571Y-223532380D01*
X-13079047Y-223532380D01*
X-13174285Y-223484761D01*
X-13221904Y-223437142D01*
X-13269523Y-223341904D01*
X-13269523Y-223151428D01*
X-13221904Y-223056190D01*
X-13174285Y-223008571D01*
X-13079047Y-222960952D01*
X-13888571Y-222532380D02*
X-13983809Y-222532380D01*
X-14079047Y-222580000D01*
X-14126666Y-222627619D01*
X-14174285Y-222722857D01*
X-14221904Y-222913333D01*
X-14221904Y-223151428D01*
X-14174285Y-223341904D01*
X-14126666Y-223437142D01*
X-14079047Y-223484761D01*
X-13983809Y-223532380D01*
X-13888571Y-223532380D01*
X-13793333Y-223484761D01*
X-13745714Y-223437142D01*
X-13698095Y-223341904D01*
X-13650476Y-223151428D01*
X-13650476Y-222913333D01*
X-13698095Y-222722857D01*
X-13745714Y-222627619D01*
X-13793333Y-222580000D01*
X-13888571Y-222532380D01*
X17782857Y-212997142D02*
X17830476Y-213044761D01*
X17973333Y-213092380D01*
X18068571Y-213092380D01*
X18211428Y-213044761D01*
X18306666Y-212949523D01*
X18354285Y-212854285D01*
X18401904Y-212663809D01*
X18401904Y-212520952D01*
X18354285Y-212330476D01*
X18306666Y-212235238D01*
X18211428Y-212140000D01*
X18068571Y-212092380D01*
X17973333Y-212092380D01*
X17830476Y-212140000D01*
X17782857Y-212187619D01*
X17211428Y-212520952D02*
X17306666Y-212473333D01*
X17354285Y-212425714D01*
X17401904Y-212330476D01*
X17401904Y-212282857D01*
X17354285Y-212187619D01*
X17306666Y-212140000D01*
X17211428Y-212092380D01*
X17020952Y-212092380D01*
X16925714Y-212140000D01*
X16878095Y-212187619D01*
X16830476Y-212282857D01*
X16830476Y-212330476D01*
X16878095Y-212425714D01*
X16925714Y-212473333D01*
X17020952Y-212520952D01*
X17211428Y-212520952D01*
X17306666Y-212568571D01*
X17354285Y-212616190D01*
X17401904Y-212711428D01*
X17401904Y-212901904D01*
X17354285Y-212997142D01*
X17306666Y-213044761D01*
X17211428Y-213092380D01*
X17020952Y-213092380D01*
X16925714Y-213044761D01*
X16878095Y-212997142D01*
X16830476Y-212901904D01*
X16830476Y-212711428D01*
X16878095Y-212616190D01*
X16925714Y-212568571D01*
X17020952Y-212520952D01*
X15878095Y-213092380D02*
X16449523Y-213092380D01*
X16163809Y-213092380D02*
X16163809Y-212092380D01*
X16259047Y-212235238D01*
X16354285Y-212330476D01*
X16449523Y-212378095D01*
X-12462857Y-229387142D02*
X-12415238Y-229339523D01*
X-12367619Y-229196666D01*
X-12367619Y-229101428D01*
X-12415238Y-228958571D01*
X-12510476Y-228863333D01*
X-12605714Y-228815714D01*
X-12796190Y-228768095D01*
X-12939047Y-228768095D01*
X-13129523Y-228815714D01*
X-13224761Y-228863333D01*
X-13320000Y-228958571D01*
X-13367619Y-229101428D01*
X-13367619Y-229196666D01*
X-13320000Y-229339523D01*
X-13272380Y-229387142D01*
X-12939047Y-229958571D02*
X-12986666Y-229863333D01*
X-13034285Y-229815714D01*
X-13129523Y-229768095D01*
X-13177142Y-229768095D01*
X-13272380Y-229815714D01*
X-13320000Y-229863333D01*
X-13367619Y-229958571D01*
X-13367619Y-230149047D01*
X-13320000Y-230244285D01*
X-13272380Y-230291904D01*
X-13177142Y-230339523D01*
X-13129523Y-230339523D01*
X-13034285Y-230291904D01*
X-12986666Y-230244285D01*
X-12939047Y-230149047D01*
X-12939047Y-229958571D01*
X-12891428Y-229863333D01*
X-12843809Y-229815714D01*
X-12748571Y-229768095D01*
X-12558095Y-229768095D01*
X-12462857Y-229815714D01*
X-12415238Y-229863333D01*
X-12367619Y-229958571D01*
X-12367619Y-230149047D01*
X-12415238Y-230244285D01*
X-12462857Y-230291904D01*
X-12558095Y-230339523D01*
X-12748571Y-230339523D01*
X-12843809Y-230291904D01*
X-12891428Y-230244285D01*
X-12939047Y-230149047D01*
X-13272380Y-230720476D02*
X-13320000Y-230768095D01*
X-13367619Y-230863333D01*
X-13367619Y-231101428D01*
X-13320000Y-231196666D01*
X-13272380Y-231244285D01*
X-13177142Y-231291904D01*
X-13081904Y-231291904D01*
X-12939047Y-231244285D01*
X-12367619Y-230672857D01*
X-12367619Y-231291904D01*
X-7522857Y-226314642D02*
X-7475238Y-226267023D01*
X-7427619Y-226124166D01*
X-7427619Y-226028928D01*
X-7475238Y-225886071D01*
X-7570476Y-225790833D01*
X-7665714Y-225743214D01*
X-7856190Y-225695595D01*
X-7999047Y-225695595D01*
X-8189523Y-225743214D01*
X-8284761Y-225790833D01*
X-8380000Y-225886071D01*
X-8427619Y-226028928D01*
X-8427619Y-226124166D01*
X-8380000Y-226267023D01*
X-8332380Y-226314642D01*
X-7999047Y-226886071D02*
X-8046666Y-226790833D01*
X-8094285Y-226743214D01*
X-8189523Y-226695595D01*
X-8237142Y-226695595D01*
X-8332380Y-226743214D01*
X-8380000Y-226790833D01*
X-8427619Y-226886071D01*
X-8427619Y-227076547D01*
X-8380000Y-227171785D01*
X-8332380Y-227219404D01*
X-8237142Y-227267023D01*
X-8189523Y-227267023D01*
X-8094285Y-227219404D01*
X-8046666Y-227171785D01*
X-7999047Y-227076547D01*
X-7999047Y-226886071D01*
X-7951428Y-226790833D01*
X-7903809Y-226743214D01*
X-7808571Y-226695595D01*
X-7618095Y-226695595D01*
X-7522857Y-226743214D01*
X-7475238Y-226790833D01*
X-7427619Y-226886071D01*
X-7427619Y-227076547D01*
X-7475238Y-227171785D01*
X-7522857Y-227219404D01*
X-7618095Y-227267023D01*
X-7808571Y-227267023D01*
X-7903809Y-227219404D01*
X-7951428Y-227171785D01*
X-7999047Y-227076547D01*
X-8427619Y-227600357D02*
X-8427619Y-228219404D01*
X-8046666Y-227886071D01*
X-8046666Y-228028928D01*
X-7999047Y-228124166D01*
X-7951428Y-228171785D01*
X-7856190Y-228219404D01*
X-7618095Y-228219404D01*
X-7522857Y-228171785D01*
X-7475238Y-228124166D01*
X-7427619Y-228028928D01*
X-7427619Y-227743214D01*
X-7475238Y-227647976D01*
X-7522857Y-227600357D01*
X3562857Y-228827142D02*
X3610476Y-228874761D01*
X3753333Y-228922380D01*
X3848571Y-228922380D01*
X3991428Y-228874761D01*
X4086666Y-228779523D01*
X4134285Y-228684285D01*
X4181904Y-228493809D01*
X4181904Y-228350952D01*
X4134285Y-228160476D01*
X4086666Y-228065238D01*
X3991428Y-227970000D01*
X3848571Y-227922380D01*
X3753333Y-227922380D01*
X3610476Y-227970000D01*
X3562857Y-228017619D01*
X2991428Y-228350952D02*
X3086666Y-228303333D01*
X3134285Y-228255714D01*
X3181904Y-228160476D01*
X3181904Y-228112857D01*
X3134285Y-228017619D01*
X3086666Y-227970000D01*
X2991428Y-227922380D01*
X2800952Y-227922380D01*
X2705714Y-227970000D01*
X2658095Y-228017619D01*
X2610476Y-228112857D01*
X2610476Y-228160476D01*
X2658095Y-228255714D01*
X2705714Y-228303333D01*
X2800952Y-228350952D01*
X2991428Y-228350952D01*
X3086666Y-228398571D01*
X3134285Y-228446190D01*
X3181904Y-228541428D01*
X3181904Y-228731904D01*
X3134285Y-228827142D01*
X3086666Y-228874761D01*
X2991428Y-228922380D01*
X2800952Y-228922380D01*
X2705714Y-228874761D01*
X2658095Y-228827142D01*
X2610476Y-228731904D01*
X2610476Y-228541428D01*
X2658095Y-228446190D01*
X2705714Y-228398571D01*
X2800952Y-228350952D01*
X1753333Y-228255714D02*
X1753333Y-228922380D01*
X1991428Y-227874761D02*
X2229523Y-228589047D01*
X1610476Y-228589047D01*
X-267142Y-217787142D02*
X-219523Y-217834761D01*
X-76666Y-217882380D01*
X18571Y-217882380D01*
X161428Y-217834761D01*
X256666Y-217739523D01*
X304285Y-217644285D01*
X351904Y-217453809D01*
X351904Y-217310952D01*
X304285Y-217120476D01*
X256666Y-217025238D01*
X161428Y-216930000D01*
X18571Y-216882380D01*
X-76666Y-216882380D01*
X-219523Y-216930000D01*
X-267142Y-216977619D01*
X-838571Y-217310952D02*
X-743333Y-217263333D01*
X-695714Y-217215714D01*
X-648095Y-217120476D01*
X-648095Y-217072857D01*
X-695714Y-216977619D01*
X-743333Y-216930000D01*
X-838571Y-216882380D01*
X-1029047Y-216882380D01*
X-1124285Y-216930000D01*
X-1171904Y-216977619D01*
X-1219523Y-217072857D01*
X-1219523Y-217120476D01*
X-1171904Y-217215714D01*
X-1124285Y-217263333D01*
X-1029047Y-217310952D01*
X-838571Y-217310952D01*
X-743333Y-217358571D01*
X-695714Y-217406190D01*
X-648095Y-217501428D01*
X-648095Y-217691904D01*
X-695714Y-217787142D01*
X-743333Y-217834761D01*
X-838571Y-217882380D01*
X-1029047Y-217882380D01*
X-1124285Y-217834761D01*
X-1171904Y-217787142D01*
X-1219523Y-217691904D01*
X-1219523Y-217501428D01*
X-1171904Y-217406190D01*
X-1124285Y-217358571D01*
X-1029047Y-217310952D01*
X-2124285Y-216882380D02*
X-1648095Y-216882380D01*
X-1600476Y-217358571D01*
X-1648095Y-217310952D01*
X-1743333Y-217263333D01*
X-1981428Y-217263333D01*
X-2076666Y-217310952D01*
X-2124285Y-217358571D01*
X-2171904Y-217453809D01*
X-2171904Y-217691904D01*
X-2124285Y-217787142D01*
X-2076666Y-217834761D01*
X-1981428Y-217882380D01*
X-1743333Y-217882380D01*
X-1648095Y-217834761D01*
X-1600476Y-217787142D01*
X-2407142Y-223677142D02*
X-2359523Y-223724761D01*
X-2216666Y-223772380D01*
X-2121428Y-223772380D01*
X-1978571Y-223724761D01*
X-1883333Y-223629523D01*
X-1835714Y-223534285D01*
X-1788095Y-223343809D01*
X-1788095Y-223200952D01*
X-1835714Y-223010476D01*
X-1883333Y-222915238D01*
X-1978571Y-222820000D01*
X-2121428Y-222772380D01*
X-2216666Y-222772380D01*
X-2359523Y-222820000D01*
X-2407142Y-222867619D01*
X-2978571Y-223200952D02*
X-2883333Y-223153333D01*
X-2835714Y-223105714D01*
X-2788095Y-223010476D01*
X-2788095Y-222962857D01*
X-2835714Y-222867619D01*
X-2883333Y-222820000D01*
X-2978571Y-222772380D01*
X-3169047Y-222772380D01*
X-3264285Y-222820000D01*
X-3311904Y-222867619D01*
X-3359523Y-222962857D01*
X-3359523Y-223010476D01*
X-3311904Y-223105714D01*
X-3264285Y-223153333D01*
X-3169047Y-223200952D01*
X-2978571Y-223200952D01*
X-2883333Y-223248571D01*
X-2835714Y-223296190D01*
X-2788095Y-223391428D01*
X-2788095Y-223581904D01*
X-2835714Y-223677142D01*
X-2883333Y-223724761D01*
X-2978571Y-223772380D01*
X-3169047Y-223772380D01*
X-3264285Y-223724761D01*
X-3311904Y-223677142D01*
X-3359523Y-223581904D01*
X-3359523Y-223391428D01*
X-3311904Y-223296190D01*
X-3264285Y-223248571D01*
X-3169047Y-223200952D01*
X-4216666Y-222772380D02*
X-4026190Y-222772380D01*
X-3930952Y-222820000D01*
X-3883333Y-222867619D01*
X-3788095Y-223010476D01*
X-3740476Y-223200952D01*
X-3740476Y-223581904D01*
X-3788095Y-223677142D01*
X-3835714Y-223724761D01*
X-3930952Y-223772380D01*
X-4121428Y-223772380D01*
X-4216666Y-223724761D01*
X-4264285Y-223677142D01*
X-4311904Y-223581904D01*
X-4311904Y-223343809D01*
X-4264285Y-223248571D01*
X-4216666Y-223200952D01*
X-4121428Y-223153333D01*
X-3930952Y-223153333D01*
X-3835714Y-223200952D01*
X-3788095Y-223248571D01*
X-3740476Y-223343809D01*
X26865357Y-221817142D02*
X26912976Y-221864761D01*
X27055833Y-221912380D01*
X27151071Y-221912380D01*
X27293928Y-221864761D01*
X27389166Y-221769523D01*
X27436785Y-221674285D01*
X27484404Y-221483809D01*
X27484404Y-221340952D01*
X27436785Y-221150476D01*
X27389166Y-221055238D01*
X27293928Y-220960000D01*
X27151071Y-220912380D01*
X27055833Y-220912380D01*
X26912976Y-220960000D01*
X26865357Y-221007619D01*
X26293928Y-221340952D02*
X26389166Y-221293333D01*
X26436785Y-221245714D01*
X26484404Y-221150476D01*
X26484404Y-221102857D01*
X26436785Y-221007619D01*
X26389166Y-220960000D01*
X26293928Y-220912380D01*
X26103452Y-220912380D01*
X26008214Y-220960000D01*
X25960595Y-221007619D01*
X25912976Y-221102857D01*
X25912976Y-221150476D01*
X25960595Y-221245714D01*
X26008214Y-221293333D01*
X26103452Y-221340952D01*
X26293928Y-221340952D01*
X26389166Y-221388571D01*
X26436785Y-221436190D01*
X26484404Y-221531428D01*
X26484404Y-221721904D01*
X26436785Y-221817142D01*
X26389166Y-221864761D01*
X26293928Y-221912380D01*
X26103452Y-221912380D01*
X26008214Y-221864761D01*
X25960595Y-221817142D01*
X25912976Y-221721904D01*
X25912976Y-221531428D01*
X25960595Y-221436190D01*
X26008214Y-221388571D01*
X26103452Y-221340952D01*
X25579642Y-220912380D02*
X24912976Y-220912380D01*
X25341547Y-221912380D01*
X-15277142Y-228357142D02*
X-15229523Y-228404761D01*
X-15086666Y-228452380D01*
X-14991428Y-228452380D01*
X-14848571Y-228404761D01*
X-14753333Y-228309523D01*
X-14705714Y-228214285D01*
X-14658095Y-228023809D01*
X-14658095Y-227880952D01*
X-14705714Y-227690476D01*
X-14753333Y-227595238D01*
X-14848571Y-227500000D01*
X-14991428Y-227452380D01*
X-15086666Y-227452380D01*
X-15229523Y-227500000D01*
X-15277142Y-227547619D01*
X-15848571Y-227880952D02*
X-15753333Y-227833333D01*
X-15705714Y-227785714D01*
X-15658095Y-227690476D01*
X-15658095Y-227642857D01*
X-15705714Y-227547619D01*
X-15753333Y-227500000D01*
X-15848571Y-227452380D01*
X-16039047Y-227452380D01*
X-16134285Y-227500000D01*
X-16181904Y-227547619D01*
X-16229523Y-227642857D01*
X-16229523Y-227690476D01*
X-16181904Y-227785714D01*
X-16134285Y-227833333D01*
X-16039047Y-227880952D01*
X-15848571Y-227880952D01*
X-15753333Y-227928571D01*
X-15705714Y-227976190D01*
X-15658095Y-228071428D01*
X-15658095Y-228261904D01*
X-15705714Y-228357142D01*
X-15753333Y-228404761D01*
X-15848571Y-228452380D01*
X-16039047Y-228452380D01*
X-16134285Y-228404761D01*
X-16181904Y-228357142D01*
X-16229523Y-228261904D01*
X-16229523Y-228071428D01*
X-16181904Y-227976190D01*
X-16134285Y-227928571D01*
X-16039047Y-227880952D01*
X-16800952Y-227880952D02*
X-16705714Y-227833333D01*
X-16658095Y-227785714D01*
X-16610476Y-227690476D01*
X-16610476Y-227642857D01*
X-16658095Y-227547619D01*
X-16705714Y-227500000D01*
X-16800952Y-227452380D01*
X-16991428Y-227452380D01*
X-17086666Y-227500000D01*
X-17134285Y-227547619D01*
X-17181904Y-227642857D01*
X-17181904Y-227690476D01*
X-17134285Y-227785714D01*
X-17086666Y-227833333D01*
X-16991428Y-227880952D01*
X-16800952Y-227880952D01*
X-16705714Y-227928571D01*
X-16658095Y-227976190D01*
X-16610476Y-228071428D01*
X-16610476Y-228261904D01*
X-16658095Y-228357142D01*
X-16705714Y-228404761D01*
X-16800952Y-228452380D01*
X-16991428Y-228452380D01*
X-17086666Y-228404761D01*
X-17134285Y-228357142D01*
X-17181904Y-228261904D01*
X-17181904Y-228071428D01*
X-17134285Y-227976190D01*
X-17086666Y-227928571D01*
X-16991428Y-227880952D01*
X-6722857Y-216919641D02*
X-6675238Y-216872022D01*
X-6627619Y-216729165D01*
X-6627619Y-216633927D01*
X-6675238Y-216491070D01*
X-6770476Y-216395832D01*
X-6865714Y-216348213D01*
X-7056190Y-216300594D01*
X-7199047Y-216300594D01*
X-7389523Y-216348213D01*
X-7484761Y-216395832D01*
X-7580000Y-216491070D01*
X-7627619Y-216633927D01*
X-7627619Y-216729165D01*
X-7580000Y-216872022D01*
X-7532380Y-216919641D01*
X-7199047Y-217491070D02*
X-7246666Y-217395832D01*
X-7294285Y-217348213D01*
X-7389523Y-217300594D01*
X-7437142Y-217300594D01*
X-7532380Y-217348213D01*
X-7580000Y-217395832D01*
X-7627619Y-217491070D01*
X-7627619Y-217681546D01*
X-7580000Y-217776784D01*
X-7532380Y-217824403D01*
X-7437142Y-217872022D01*
X-7389523Y-217872022D01*
X-7294285Y-217824403D01*
X-7246666Y-217776784D01*
X-7199047Y-217681546D01*
X-7199047Y-217491070D01*
X-7151428Y-217395832D01*
X-7103809Y-217348213D01*
X-7008571Y-217300594D01*
X-6818095Y-217300594D01*
X-6722857Y-217348213D01*
X-6675238Y-217395832D01*
X-6627619Y-217491070D01*
X-6627619Y-217681546D01*
X-6675238Y-217776784D01*
X-6722857Y-217824403D01*
X-6818095Y-217872022D01*
X-7008571Y-217872022D01*
X-7103809Y-217824403D01*
X-7151428Y-217776784D01*
X-7199047Y-217681546D01*
X-6627619Y-218348213D02*
X-6627619Y-218538689D01*
X-6675238Y-218633927D01*
X-6722857Y-218681546D01*
X-6865714Y-218776784D01*
X-7056190Y-218824403D01*
X-7437142Y-218824403D01*
X-7532380Y-218776784D01*
X-7580000Y-218729165D01*
X-7627619Y-218633927D01*
X-7627619Y-218443451D01*
X-7580000Y-218348213D01*
X-7532380Y-218300594D01*
X-7437142Y-218252975D01*
X-7199047Y-218252975D01*
X-7103809Y-218300594D01*
X-7056190Y-218348213D01*
X-7008571Y-218443451D01*
X-7008571Y-218633927D01*
X-7056190Y-218729165D01*
X-7103809Y-218776784D01*
X-7199047Y-218824403D01*
X-12367142Y-224927142D02*
X-12319523Y-224974761D01*
X-12176666Y-225022380D01*
X-12081428Y-225022380D01*
X-11938571Y-224974761D01*
X-11843333Y-224879523D01*
X-11795714Y-224784285D01*
X-11748095Y-224593809D01*
X-11748095Y-224450952D01*
X-11795714Y-224260476D01*
X-11843333Y-224165238D01*
X-11938571Y-224070000D01*
X-12081428Y-224022380D01*
X-12176666Y-224022380D01*
X-12319523Y-224070000D01*
X-12367142Y-224117619D01*
X-12843333Y-225022380D02*
X-13033809Y-225022380D01*
X-13129047Y-224974761D01*
X-13176666Y-224927142D01*
X-13271904Y-224784285D01*
X-13319523Y-224593809D01*
X-13319523Y-224212857D01*
X-13271904Y-224117619D01*
X-13224285Y-224070000D01*
X-13129047Y-224022380D01*
X-12938571Y-224022380D01*
X-12843333Y-224070000D01*
X-12795714Y-224117619D01*
X-12748095Y-224212857D01*
X-12748095Y-224450952D01*
X-12795714Y-224546190D01*
X-12843333Y-224593809D01*
X-12938571Y-224641428D01*
X-13129047Y-224641428D01*
X-13224285Y-224593809D01*
X-13271904Y-224546190D01*
X-13319523Y-224450952D01*
X-13938571Y-224022380D02*
X-14033809Y-224022380D01*
X-14129047Y-224070000D01*
X-14176666Y-224117619D01*
X-14224285Y-224212857D01*
X-14271904Y-224403333D01*
X-14271904Y-224641428D01*
X-14224285Y-224831904D01*
X-14176666Y-224927142D01*
X-14129047Y-224974761D01*
X-14033809Y-225022380D01*
X-13938571Y-225022380D01*
X-13843333Y-224974761D01*
X-13795714Y-224927142D01*
X-13748095Y-224831904D01*
X-13700476Y-224641428D01*
X-13700476Y-224403333D01*
X-13748095Y-224212857D01*
X-13795714Y-224117619D01*
X-13843333Y-224070000D01*
X-13938571Y-224022380D01*
X-2722857Y-213647142D02*
X-2675238Y-213599523D01*
X-2627619Y-213456666D01*
X-2627619Y-213361428D01*
X-2675238Y-213218571D01*
X-2770476Y-213123333D01*
X-2865714Y-213075714D01*
X-3056190Y-213028095D01*
X-3199047Y-213028095D01*
X-3389523Y-213075714D01*
X-3484761Y-213123333D01*
X-3580000Y-213218571D01*
X-3627619Y-213361428D01*
X-3627619Y-213456666D01*
X-3580000Y-213599523D01*
X-3532380Y-213647142D01*
X-2627619Y-214123333D02*
X-2627619Y-214313809D01*
X-2675238Y-214409047D01*
X-2722857Y-214456666D01*
X-2865714Y-214551904D01*
X-3056190Y-214599523D01*
X-3437142Y-214599523D01*
X-3532380Y-214551904D01*
X-3580000Y-214504285D01*
X-3627619Y-214409047D01*
X-3627619Y-214218571D01*
X-3580000Y-214123333D01*
X-3532380Y-214075714D01*
X-3437142Y-214028095D01*
X-3199047Y-214028095D01*
X-3103809Y-214075714D01*
X-3056190Y-214123333D01*
X-3008571Y-214218571D01*
X-3008571Y-214409047D01*
X-3056190Y-214504285D01*
X-3103809Y-214551904D01*
X-3199047Y-214599523D01*
X-2627619Y-215551904D02*
X-2627619Y-214980476D01*
X-2627619Y-215266190D02*
X-3627619Y-215266190D01*
X-3484761Y-215170952D01*
X-3389523Y-215075714D01*
X-3341904Y-214980476D01*
X-8902857Y-226264642D02*
X-8855238Y-226217023D01*
X-8807619Y-226074166D01*
X-8807619Y-225978928D01*
X-8855238Y-225836071D01*
X-8950476Y-225740833D01*
X-9045714Y-225693214D01*
X-9236190Y-225645595D01*
X-9379047Y-225645595D01*
X-9569523Y-225693214D01*
X-9664761Y-225740833D01*
X-9760000Y-225836071D01*
X-9807619Y-225978928D01*
X-9807619Y-226074166D01*
X-9760000Y-226217023D01*
X-9712380Y-226264642D01*
X-8807619Y-226740833D02*
X-8807619Y-226931309D01*
X-8855238Y-227026547D01*
X-8902857Y-227074166D01*
X-9045714Y-227169404D01*
X-9236190Y-227217023D01*
X-9617142Y-227217023D01*
X-9712380Y-227169404D01*
X-9760000Y-227121785D01*
X-9807619Y-227026547D01*
X-9807619Y-226836071D01*
X-9760000Y-226740833D01*
X-9712380Y-226693214D01*
X-9617142Y-226645595D01*
X-9379047Y-226645595D01*
X-9283809Y-226693214D01*
X-9236190Y-226740833D01*
X-9188571Y-226836071D01*
X-9188571Y-227026547D01*
X-9236190Y-227121785D01*
X-9283809Y-227169404D01*
X-9379047Y-227217023D01*
X-9712380Y-227597976D02*
X-9760000Y-227645595D01*
X-9807619Y-227740833D01*
X-9807619Y-227978928D01*
X-9760000Y-228074166D01*
X-9712380Y-228121785D01*
X-9617142Y-228169404D01*
X-9521904Y-228169404D01*
X-9379047Y-228121785D01*
X-8807619Y-227550357D01*
X-8807619Y-228169404D01*
X172857Y-221167142D02*
X220476Y-221214761D01*
X363333Y-221262380D01*
X458571Y-221262380D01*
X601428Y-221214761D01*
X696666Y-221119523D01*
X744285Y-221024285D01*
X791904Y-220833809D01*
X791904Y-220690952D01*
X744285Y-220500476D01*
X696666Y-220405238D01*
X601428Y-220310000D01*
X458571Y-220262380D01*
X363333Y-220262380D01*
X220476Y-220310000D01*
X172857Y-220357619D01*
X-303333Y-221262380D02*
X-493809Y-221262380D01*
X-589047Y-221214761D01*
X-636666Y-221167142D01*
X-731904Y-221024285D01*
X-779523Y-220833809D01*
X-779523Y-220452857D01*
X-731904Y-220357619D01*
X-684285Y-220310000D01*
X-589047Y-220262380D01*
X-398571Y-220262380D01*
X-303333Y-220310000D01*
X-255714Y-220357619D01*
X-208095Y-220452857D01*
X-208095Y-220690952D01*
X-255714Y-220786190D01*
X-303333Y-220833809D01*
X-398571Y-220881428D01*
X-589047Y-220881428D01*
X-684285Y-220833809D01*
X-731904Y-220786190D01*
X-779523Y-220690952D01*
X-1112857Y-220262380D02*
X-1731904Y-220262380D01*
X-1398571Y-220643333D01*
X-1541428Y-220643333D01*
X-1636666Y-220690952D01*
X-1684285Y-220738571D01*
X-1731904Y-220833809D01*
X-1731904Y-221071904D01*
X-1684285Y-221167142D01*
X-1636666Y-221214761D01*
X-1541428Y-221262380D01*
X-1255714Y-221262380D01*
X-1160476Y-221214761D01*
X-1112857Y-221167142D01*
X3712857Y-230357142D02*
X3760476Y-230404761D01*
X3903333Y-230452380D01*
X3998571Y-230452380D01*
X4141428Y-230404761D01*
X4236666Y-230309523D01*
X4284285Y-230214285D01*
X4331904Y-230023809D01*
X4331904Y-229880952D01*
X4284285Y-229690476D01*
X4236666Y-229595238D01*
X4141428Y-229500000D01*
X3998571Y-229452380D01*
X3903333Y-229452380D01*
X3760476Y-229500000D01*
X3712857Y-229547619D01*
X3236666Y-230452380D02*
X3046190Y-230452380D01*
X2950952Y-230404761D01*
X2903333Y-230357142D01*
X2808095Y-230214285D01*
X2760476Y-230023809D01*
X2760476Y-229642857D01*
X2808095Y-229547619D01*
X2855714Y-229500000D01*
X2950952Y-229452380D01*
X3141428Y-229452380D01*
X3236666Y-229500000D01*
X3284285Y-229547619D01*
X3331904Y-229642857D01*
X3331904Y-229880952D01*
X3284285Y-229976190D01*
X3236666Y-230023809D01*
X3141428Y-230071428D01*
X2950952Y-230071428D01*
X2855714Y-230023809D01*
X2808095Y-229976190D01*
X2760476Y-229880952D01*
X1903333Y-229785714D02*
X1903333Y-230452380D01*
X2141428Y-229404761D02*
X2379523Y-230119047D01*
X1760476Y-230119047D01*
X15217142Y-219947142D02*
X15264761Y-219899523D01*
X15312380Y-219756666D01*
X15312380Y-219661428D01*
X15264761Y-219518571D01*
X15169523Y-219423333D01*
X15074285Y-219375714D01*
X14883809Y-219328095D01*
X14740952Y-219328095D01*
X14550476Y-219375714D01*
X14455238Y-219423333D01*
X14360000Y-219518571D01*
X14312380Y-219661428D01*
X14312380Y-219756666D01*
X14360000Y-219899523D01*
X14407619Y-219947142D01*
X15312380Y-220423333D02*
X15312380Y-220613809D01*
X15264761Y-220709047D01*
X15217142Y-220756666D01*
X15074285Y-220851904D01*
X14883809Y-220899523D01*
X14502857Y-220899523D01*
X14407619Y-220851904D01*
X14360000Y-220804285D01*
X14312380Y-220709047D01*
X14312380Y-220518571D01*
X14360000Y-220423333D01*
X14407619Y-220375714D01*
X14502857Y-220328095D01*
X14740952Y-220328095D01*
X14836190Y-220375714D01*
X14883809Y-220423333D01*
X14931428Y-220518571D01*
X14931428Y-220709047D01*
X14883809Y-220804285D01*
X14836190Y-220851904D01*
X14740952Y-220899523D01*
X14312380Y-221804285D02*
X14312380Y-221328095D01*
X14788571Y-221280476D01*
X14740952Y-221328095D01*
X14693333Y-221423333D01*
X14693333Y-221661428D01*
X14740952Y-221756666D01*
X14788571Y-221804285D01*
X14883809Y-221851904D01*
X15121904Y-221851904D01*
X15217142Y-221804285D01*
X15264761Y-221756666D01*
X15312380Y-221661428D01*
X15312380Y-221423333D01*
X15264761Y-221328095D01*
X15217142Y-221280476D01*
X23027142Y-228986280D02*
X23074761Y-228938661D01*
X23122380Y-228795804D01*
X23122380Y-228700566D01*
X23074761Y-228557709D01*
X22979523Y-228462471D01*
X22884285Y-228414852D01*
X22693809Y-228367233D01*
X22550952Y-228367233D01*
X22360476Y-228414852D01*
X22265238Y-228462471D01*
X22170000Y-228557709D01*
X22122380Y-228700566D01*
X22122380Y-228795804D01*
X22170000Y-228938661D01*
X22217619Y-228986280D01*
X23122380Y-229462471D02*
X23122380Y-229652947D01*
X23074761Y-229748185D01*
X23027142Y-229795804D01*
X22884285Y-229891042D01*
X22693809Y-229938661D01*
X22312857Y-229938661D01*
X22217619Y-229891042D01*
X22170000Y-229843423D01*
X22122380Y-229748185D01*
X22122380Y-229557709D01*
X22170000Y-229462471D01*
X22217619Y-229414852D01*
X22312857Y-229367233D01*
X22550952Y-229367233D01*
X22646190Y-229414852D01*
X22693809Y-229462471D01*
X22741428Y-229557709D01*
X22741428Y-229748185D01*
X22693809Y-229843423D01*
X22646190Y-229891042D01*
X22550952Y-229938661D01*
X22122380Y-230795804D02*
X22122380Y-230605328D01*
X22170000Y-230510090D01*
X22217619Y-230462471D01*
X22360476Y-230367233D01*
X22550952Y-230319614D01*
X22931904Y-230319614D01*
X23027142Y-230367233D01*
X23074761Y-230414852D01*
X23122380Y-230510090D01*
X23122380Y-230700566D01*
X23074761Y-230795804D01*
X23027142Y-230843423D01*
X22931904Y-230891042D01*
X22693809Y-230891042D01*
X22598571Y-230843423D01*
X22550952Y-230795804D01*
X22503333Y-230700566D01*
X22503333Y-230510090D01*
X22550952Y-230414852D01*
X22598571Y-230367233D01*
X22693809Y-230319614D01*
X17532857Y-229167142D02*
X17580476Y-229214761D01*
X17723333Y-229262380D01*
X17818571Y-229262380D01*
X17961428Y-229214761D01*
X18056666Y-229119523D01*
X18104285Y-229024285D01*
X18151904Y-228833809D01*
X18151904Y-228690952D01*
X18104285Y-228500476D01*
X18056666Y-228405238D01*
X17961428Y-228310000D01*
X17818571Y-228262380D01*
X17723333Y-228262380D01*
X17580476Y-228310000D01*
X17532857Y-228357619D01*
X17056666Y-229262380D02*
X16866190Y-229262380D01*
X16770952Y-229214761D01*
X16723333Y-229167142D01*
X16628095Y-229024285D01*
X16580476Y-228833809D01*
X16580476Y-228452857D01*
X16628095Y-228357619D01*
X16675714Y-228310000D01*
X16770952Y-228262380D01*
X16961428Y-228262380D01*
X17056666Y-228310000D01*
X17104285Y-228357619D01*
X17151904Y-228452857D01*
X17151904Y-228690952D01*
X17104285Y-228786190D01*
X17056666Y-228833809D01*
X16961428Y-228881428D01*
X16770952Y-228881428D01*
X16675714Y-228833809D01*
X16628095Y-228786190D01*
X16580476Y-228690952D01*
X16009047Y-228690952D02*
X16104285Y-228643333D01*
X16151904Y-228595714D01*
X16199523Y-228500476D01*
X16199523Y-228452857D01*
X16151904Y-228357619D01*
X16104285Y-228310000D01*
X16009047Y-228262380D01*
X15818571Y-228262380D01*
X15723333Y-228310000D01*
X15675714Y-228357619D01*
X15628095Y-228452857D01*
X15628095Y-228500476D01*
X15675714Y-228595714D01*
X15723333Y-228643333D01*
X15818571Y-228690952D01*
X16009047Y-228690952D01*
X16104285Y-228738571D01*
X16151904Y-228786190D01*
X16199523Y-228881428D01*
X16199523Y-229071904D01*
X16151904Y-229167142D01*
X16104285Y-229214761D01*
X16009047Y-229262380D01*
X15818571Y-229262380D01*
X15723333Y-229214761D01*
X15675714Y-229167142D01*
X15628095Y-229071904D01*
X15628095Y-228881428D01*
X15675714Y-228786190D01*
X15723333Y-228738571D01*
X15818571Y-228690952D01*
X-12367142Y-221887142D02*
X-12319523Y-221934761D01*
X-12176666Y-221982380D01*
X-12081428Y-221982380D01*
X-11938571Y-221934761D01*
X-11843333Y-221839523D01*
X-11795714Y-221744285D01*
X-11748095Y-221553809D01*
X-11748095Y-221410952D01*
X-11795714Y-221220476D01*
X-11843333Y-221125238D01*
X-11938571Y-221030000D01*
X-12081428Y-220982380D01*
X-12176666Y-220982380D01*
X-12319523Y-221030000D01*
X-12367142Y-221077619D01*
X-12843333Y-221982380D02*
X-13033809Y-221982380D01*
X-13129047Y-221934761D01*
X-13176666Y-221887142D01*
X-13271904Y-221744285D01*
X-13319523Y-221553809D01*
X-13319523Y-221172857D01*
X-13271904Y-221077619D01*
X-13224285Y-221030000D01*
X-13129047Y-220982380D01*
X-12938571Y-220982380D01*
X-12843333Y-221030000D01*
X-12795714Y-221077619D01*
X-12748095Y-221172857D01*
X-12748095Y-221410952D01*
X-12795714Y-221506190D01*
X-12843333Y-221553809D01*
X-12938571Y-221601428D01*
X-13129047Y-221601428D01*
X-13224285Y-221553809D01*
X-13271904Y-221506190D01*
X-13319523Y-221410952D01*
X-13795714Y-221982380D02*
X-13986190Y-221982380D01*
X-14081428Y-221934761D01*
X-14129047Y-221887142D01*
X-14224285Y-221744285D01*
X-14271904Y-221553809D01*
X-14271904Y-221172857D01*
X-14224285Y-221077619D01*
X-14176666Y-221030000D01*
X-14081428Y-220982380D01*
X-13890952Y-220982380D01*
X-13795714Y-221030000D01*
X-13748095Y-221077619D01*
X-13700476Y-221172857D01*
X-13700476Y-221410952D01*
X-13748095Y-221506190D01*
X-13795714Y-221553809D01*
X-13890952Y-221601428D01*
X-14081428Y-221601428D01*
X-14176666Y-221553809D01*
X-14224285Y-221506190D01*
X-14271904Y-221410952D01*
X40907142Y-235728452D02*
X40954761Y-235680833D01*
X41002380Y-235537976D01*
X41002380Y-235442738D01*
X40954761Y-235299880D01*
X40859523Y-235204642D01*
X40764285Y-235157023D01*
X40573809Y-235109404D01*
X40430952Y-235109404D01*
X40240476Y-235157023D01*
X40145238Y-235204642D01*
X40050000Y-235299880D01*
X40002380Y-235442738D01*
X40002380Y-235537976D01*
X40050000Y-235680833D01*
X40097619Y-235728452D01*
X41002380Y-236680833D02*
X41002380Y-236109404D01*
X41002380Y-236395119D02*
X40002380Y-236395119D01*
X40145238Y-236299880D01*
X40240476Y-236204642D01*
X40288095Y-236109404D01*
X40002380Y-237299880D02*
X40002380Y-237395119D01*
X40050000Y-237490357D01*
X40097619Y-237537976D01*
X40192857Y-237585595D01*
X40383333Y-237633214D01*
X40621428Y-237633214D01*
X40811904Y-237585595D01*
X40907142Y-237537976D01*
X40954761Y-237490357D01*
X41002380Y-237395119D01*
X41002380Y-237299880D01*
X40954761Y-237204642D01*
X40907142Y-237157023D01*
X40811904Y-237109404D01*
X40621428Y-237061785D01*
X40383333Y-237061785D01*
X40192857Y-237109404D01*
X40097619Y-237157023D01*
X40050000Y-237204642D01*
X40002380Y-237299880D01*
X41002380Y-238585595D02*
X41002380Y-238014166D01*
X41002380Y-238299880D02*
X40002380Y-238299880D01*
X40145238Y-238204642D01*
X40240476Y-238109404D01*
X40288095Y-238014166D01*
X-5192857Y-216910952D02*
X-5145238Y-216863333D01*
X-5097619Y-216720476D01*
X-5097619Y-216625238D01*
X-5145238Y-216482380D01*
X-5240476Y-216387142D01*
X-5335714Y-216339523D01*
X-5526190Y-216291904D01*
X-5669047Y-216291904D01*
X-5859523Y-216339523D01*
X-5954761Y-216387142D01*
X-6050000Y-216482380D01*
X-6097619Y-216625238D01*
X-6097619Y-216720476D01*
X-6050000Y-216863333D01*
X-6002380Y-216910952D01*
X-5097619Y-217863333D02*
X-5097619Y-217291904D01*
X-5097619Y-217577619D02*
X-6097619Y-217577619D01*
X-5954761Y-217482380D01*
X-5859523Y-217387142D01*
X-5811904Y-217291904D01*
X-6097619Y-218482380D02*
X-6097619Y-218577619D01*
X-6050000Y-218672857D01*
X-6002380Y-218720476D01*
X-5907142Y-218768095D01*
X-5716666Y-218815714D01*
X-5478571Y-218815714D01*
X-5288095Y-218768095D01*
X-5192857Y-218720476D01*
X-5145238Y-218672857D01*
X-5097619Y-218577619D01*
X-5097619Y-218482380D01*
X-5145238Y-218387142D01*
X-5192857Y-218339523D01*
X-5288095Y-218291904D01*
X-5478571Y-218244285D01*
X-5716666Y-218244285D01*
X-5907142Y-218291904D01*
X-6002380Y-218339523D01*
X-6050000Y-218387142D01*
X-6097619Y-218482380D01*
X-6002380Y-219196666D02*
X-6050000Y-219244285D01*
X-6097619Y-219339523D01*
X-6097619Y-219577619D01*
X-6050000Y-219672857D01*
X-6002380Y-219720476D01*
X-5907142Y-219768095D01*
X-5811904Y-219768095D01*
X-5669047Y-219720476D01*
X-5097619Y-219149047D01*
X-5097619Y-219768095D01*
X28129047Y-219947142D02*
X28176666Y-219994761D01*
X28319523Y-220042380D01*
X28414761Y-220042380D01*
X28557619Y-219994761D01*
X28652857Y-219899523D01*
X28700476Y-219804285D01*
X28748095Y-219613809D01*
X28748095Y-219470952D01*
X28700476Y-219280476D01*
X28652857Y-219185238D01*
X28557619Y-219090000D01*
X28414761Y-219042380D01*
X28319523Y-219042380D01*
X28176666Y-219090000D01*
X28129047Y-219137619D01*
X27176666Y-220042380D02*
X27748095Y-220042380D01*
X27462380Y-220042380D02*
X27462380Y-219042380D01*
X27557619Y-219185238D01*
X27652857Y-219280476D01*
X27748095Y-219328095D01*
X26557619Y-219042380D02*
X26462380Y-219042380D01*
X26367142Y-219090000D01*
X26319523Y-219137619D01*
X26271904Y-219232857D01*
X26224285Y-219423333D01*
X26224285Y-219661428D01*
X26271904Y-219851904D01*
X26319523Y-219947142D01*
X26367142Y-219994761D01*
X26462380Y-220042380D01*
X26557619Y-220042380D01*
X26652857Y-219994761D01*
X26700476Y-219947142D01*
X26748095Y-219851904D01*
X26795714Y-219661428D01*
X26795714Y-219423333D01*
X26748095Y-219232857D01*
X26700476Y-219137619D01*
X26652857Y-219090000D01*
X26557619Y-219042380D01*
X25890952Y-219042380D02*
X25271904Y-219042380D01*
X25605238Y-219423333D01*
X25462380Y-219423333D01*
X25367142Y-219470952D01*
X25319523Y-219518571D01*
X25271904Y-219613809D01*
X25271904Y-219851904D01*
X25319523Y-219947142D01*
X25367142Y-219994761D01*
X25462380Y-220042380D01*
X25748095Y-220042380D01*
X25843333Y-219994761D01*
X25890952Y-219947142D01*
X-1642857Y-224690952D02*
X-1595238Y-224643333D01*
X-1547619Y-224500476D01*
X-1547619Y-224405238D01*
X-1595238Y-224262380D01*
X-1690476Y-224167142D01*
X-1785714Y-224119523D01*
X-1976190Y-224071904D01*
X-2119047Y-224071904D01*
X-2309523Y-224119523D01*
X-2404761Y-224167142D01*
X-2500000Y-224262380D01*
X-2547619Y-224405238D01*
X-2547619Y-224500476D01*
X-2500000Y-224643333D01*
X-2452380Y-224690952D01*
X-1547619Y-225643333D02*
X-1547619Y-225071904D01*
X-1547619Y-225357619D02*
X-2547619Y-225357619D01*
X-2404761Y-225262380D01*
X-2309523Y-225167142D01*
X-2261904Y-225071904D01*
X-2547619Y-226262380D02*
X-2547619Y-226357619D01*
X-2500000Y-226452857D01*
X-2452380Y-226500476D01*
X-2357142Y-226548095D01*
X-2166666Y-226595714D01*
X-1928571Y-226595714D01*
X-1738095Y-226548095D01*
X-1642857Y-226500476D01*
X-1595238Y-226452857D01*
X-1547619Y-226357619D01*
X-1547619Y-226262380D01*
X-1595238Y-226167142D01*
X-1642857Y-226119523D01*
X-1738095Y-226071904D01*
X-1928571Y-226024285D01*
X-2166666Y-226024285D01*
X-2357142Y-226071904D01*
X-2452380Y-226119523D01*
X-2500000Y-226167142D01*
X-2547619Y-226262380D01*
X-2214285Y-227452857D02*
X-1547619Y-227452857D01*
X-2595238Y-227214761D02*
X-1880952Y-226976666D01*
X-1880952Y-227595714D01*
X40607142Y-228590952D02*
X40654761Y-228543333D01*
X40702380Y-228400476D01*
X40702380Y-228305238D01*
X40654761Y-228162380D01*
X40559523Y-228067142D01*
X40464285Y-228019523D01*
X40273809Y-227971904D01*
X40130952Y-227971904D01*
X39940476Y-228019523D01*
X39845238Y-228067142D01*
X39750000Y-228162380D01*
X39702380Y-228305238D01*
X39702380Y-228400476D01*
X39750000Y-228543333D01*
X39797619Y-228590952D01*
X40702380Y-229543333D02*
X40702380Y-228971904D01*
X40702380Y-229257619D02*
X39702380Y-229257619D01*
X39845238Y-229162380D01*
X39940476Y-229067142D01*
X39988095Y-228971904D01*
X39702380Y-230162380D02*
X39702380Y-230257619D01*
X39750000Y-230352857D01*
X39797619Y-230400476D01*
X39892857Y-230448095D01*
X40083333Y-230495714D01*
X40321428Y-230495714D01*
X40511904Y-230448095D01*
X40607142Y-230400476D01*
X40654761Y-230352857D01*
X40702380Y-230257619D01*
X40702380Y-230162380D01*
X40654761Y-230067142D01*
X40607142Y-230019523D01*
X40511904Y-229971904D01*
X40321428Y-229924285D01*
X40083333Y-229924285D01*
X39892857Y-229971904D01*
X39797619Y-230019523D01*
X39750000Y-230067142D01*
X39702380Y-230162380D01*
X39702380Y-231400476D02*
X39702380Y-230924285D01*
X40178571Y-230876666D01*
X40130952Y-230924285D01*
X40083333Y-231019523D01*
X40083333Y-231257619D01*
X40130952Y-231352857D01*
X40178571Y-231400476D01*
X40273809Y-231448095D01*
X40511904Y-231448095D01*
X40607142Y-231400476D01*
X40654761Y-231352857D01*
X40702380Y-231257619D01*
X40702380Y-231019523D01*
X40654761Y-230924285D01*
X40607142Y-230876666D01*
X-10392857Y-213000952D02*
X-10345238Y-212953333D01*
X-10297619Y-212810476D01*
X-10297619Y-212715238D01*
X-10345238Y-212572380D01*
X-10440476Y-212477142D01*
X-10535714Y-212429523D01*
X-10726190Y-212381904D01*
X-10869047Y-212381904D01*
X-11059523Y-212429523D01*
X-11154761Y-212477142D01*
X-11250000Y-212572380D01*
X-11297619Y-212715238D01*
X-11297619Y-212810476D01*
X-11250000Y-212953333D01*
X-11202380Y-213000952D01*
X-10297619Y-213953333D02*
X-10297619Y-213381904D01*
X-10297619Y-213667619D02*
X-11297619Y-213667619D01*
X-11154761Y-213572380D01*
X-11059523Y-213477142D01*
X-11011904Y-213381904D01*
X-11297619Y-214572380D02*
X-11297619Y-214667619D01*
X-11250000Y-214762857D01*
X-11202380Y-214810476D01*
X-11107142Y-214858095D01*
X-10916666Y-214905714D01*
X-10678571Y-214905714D01*
X-10488095Y-214858095D01*
X-10392857Y-214810476D01*
X-10345238Y-214762857D01*
X-10297619Y-214667619D01*
X-10297619Y-214572380D01*
X-10345238Y-214477142D01*
X-10392857Y-214429523D01*
X-10488095Y-214381904D01*
X-10678571Y-214334285D01*
X-10916666Y-214334285D01*
X-11107142Y-214381904D01*
X-11202380Y-214429523D01*
X-11250000Y-214477142D01*
X-11297619Y-214572380D01*
X-11297619Y-215762857D02*
X-11297619Y-215572380D01*
X-11250000Y-215477142D01*
X-11202380Y-215429523D01*
X-11059523Y-215334285D01*
X-10869047Y-215286666D01*
X-10488095Y-215286666D01*
X-10392857Y-215334285D01*
X-10345238Y-215381904D01*
X-10297619Y-215477142D01*
X-10297619Y-215667619D01*
X-10345238Y-215762857D01*
X-10392857Y-215810476D01*
X-10488095Y-215858095D01*
X-10726190Y-215858095D01*
X-10821428Y-215810476D01*
X-10869047Y-215762857D01*
X-10916666Y-215667619D01*
X-10916666Y-215477142D01*
X-10869047Y-215381904D01*
X-10821428Y-215334285D01*
X-10726190Y-215286666D01*
X40927142Y-221458453D02*
X40974761Y-221410834D01*
X41022380Y-221267977D01*
X41022380Y-221172739D01*
X40974761Y-221029881D01*
X40879523Y-220934643D01*
X40784285Y-220887024D01*
X40593809Y-220839405D01*
X40450952Y-220839405D01*
X40260476Y-220887024D01*
X40165238Y-220934643D01*
X40070000Y-221029881D01*
X40022380Y-221172739D01*
X40022380Y-221267977D01*
X40070000Y-221410834D01*
X40117619Y-221458453D01*
X41022380Y-222410834D02*
X41022380Y-221839405D01*
X41022380Y-222125120D02*
X40022380Y-222125120D01*
X40165238Y-222029881D01*
X40260476Y-221934643D01*
X40308095Y-221839405D01*
X40022380Y-223029881D02*
X40022380Y-223125120D01*
X40070000Y-223220358D01*
X40117619Y-223267977D01*
X40212857Y-223315596D01*
X40403333Y-223363215D01*
X40641428Y-223363215D01*
X40831904Y-223315596D01*
X40927142Y-223267977D01*
X40974761Y-223220358D01*
X41022380Y-223125120D01*
X41022380Y-223029881D01*
X40974761Y-222934643D01*
X40927142Y-222887024D01*
X40831904Y-222839405D01*
X40641428Y-222791786D01*
X40403333Y-222791786D01*
X40212857Y-222839405D01*
X40117619Y-222887024D01*
X40070000Y-222934643D01*
X40022380Y-223029881D01*
X40022380Y-223696548D02*
X40022380Y-224363215D01*
X41022380Y-223934643D01*
X-17472618Y-198446903D02*
X-18472618Y-198446903D01*
X-18472618Y-198684999D01*
X-18424999Y-198827856D01*
X-18329760Y-198923094D01*
X-18234522Y-198970713D01*
X-18044046Y-199018332D01*
X-17901189Y-199018332D01*
X-17710713Y-198970713D01*
X-17615475Y-198923094D01*
X-17520237Y-198827856D01*
X-17472618Y-198684999D01*
X-17472618Y-198446903D01*
X-17472618Y-199970713D02*
X-17472618Y-199399284D01*
X-17472618Y-199684999D02*
X-18472618Y-199684999D01*
X-18329760Y-199589760D01*
X-18234522Y-199494522D01*
X-18186903Y-199399284D01*
X20007381Y-198436903D02*
X19007381Y-198436903D01*
X19007381Y-198674999D01*
X19055001Y-198817856D01*
X19150239Y-198913094D01*
X19245477Y-198960713D01*
X19435953Y-199008332D01*
X19578810Y-199008332D01*
X19769286Y-198960713D01*
X19864524Y-198913094D01*
X19959762Y-198817856D01*
X20007381Y-198674999D01*
X20007381Y-198436903D01*
X19007381Y-199913094D02*
X19007381Y-199436903D01*
X19483572Y-199389284D01*
X19435953Y-199436903D01*
X19388334Y-199532141D01*
X19388334Y-199770237D01*
X19435953Y-199865475D01*
X19483572Y-199913094D01*
X19578810Y-199960713D01*
X19816905Y-199960713D01*
X19912143Y-199913094D01*
X19959762Y-199865475D01*
X20007381Y-199770237D01*
X20007381Y-199532141D01*
X19959762Y-199436903D01*
X19912143Y-199389284D01*
X38222380Y-188831904D02*
X37222380Y-188831904D01*
X37222380Y-189070000D01*
X37270000Y-189212857D01*
X37365238Y-189308095D01*
X37460476Y-189355714D01*
X37650952Y-189403333D01*
X37793809Y-189403333D01*
X37984285Y-189355714D01*
X38079523Y-189308095D01*
X38174761Y-189212857D01*
X38222380Y-189070000D01*
X38222380Y-188831904D01*
X37222380Y-190260476D02*
X37222380Y-190070000D01*
X37270000Y-189974761D01*
X37317619Y-189927142D01*
X37460476Y-189831904D01*
X37650952Y-189784285D01*
X38031904Y-189784285D01*
X38127142Y-189831904D01*
X38174761Y-189879523D01*
X38222380Y-189974761D01*
X38222380Y-190165238D01*
X38174761Y-190260476D01*
X38127142Y-190308095D01*
X38031904Y-190355714D01*
X37793809Y-190355714D01*
X37698571Y-190308095D01*
X37650952Y-190260476D01*
X37603333Y-190165238D01*
X37603333Y-189974761D01*
X37650952Y-189879523D01*
X37698571Y-189831904D01*
X37793809Y-189784285D01*
X2582380Y-205278333D02*
X2582380Y-204802142D01*
X1582380Y-204802142D01*
X2582380Y-206135476D02*
X2582380Y-205564047D01*
X2582380Y-205849761D02*
X1582380Y-205849761D01*
X1725238Y-205754523D01*
X1820476Y-205659285D01*
X1868095Y-205564047D01*
X40062380Y-205268333D02*
X40062380Y-204792142D01*
X39062380Y-204792142D01*
X39395714Y-206030238D02*
X40062380Y-206030238D01*
X39014761Y-205792142D02*
X39729047Y-205554047D01*
X39729047Y-206173095D01*
X6205237Y-199097619D02*
X6300475Y-199050000D01*
X6395713Y-198954761D01*
X6538570Y-198811904D01*
X6633808Y-198764285D01*
X6729046Y-198764285D01*
X6681427Y-199002380D02*
X6776665Y-198954761D01*
X6871903Y-198859523D01*
X6919522Y-198669047D01*
X6919522Y-198335714D01*
X6871903Y-198145238D01*
X6776665Y-198050000D01*
X6681427Y-198002380D01*
X6490951Y-198002380D01*
X6395713Y-198050000D01*
X6300475Y-198145238D01*
X6252856Y-198335714D01*
X6252856Y-198669047D01*
X6300475Y-198859523D01*
X6395713Y-198954761D01*
X6490951Y-199002380D01*
X6681427Y-199002380D01*
X5300475Y-199002380D02*
X5871903Y-199002380D01*
X5586189Y-199002380D02*
X5586189Y-198002380D01*
X5681427Y-198145238D01*
X5776665Y-198240476D01*
X5871903Y-198288095D01*
X2775238Y-199257619D02*
X2870476Y-199210000D01*
X2965714Y-199114761D01*
X3108571Y-198971904D01*
X3203809Y-198924285D01*
X3299047Y-198924285D01*
X3251428Y-199162380D02*
X3346666Y-199114761D01*
X3441904Y-199019523D01*
X3489523Y-198829047D01*
X3489523Y-198495714D01*
X3441904Y-198305238D01*
X3346666Y-198210000D01*
X3251428Y-198162380D01*
X3060952Y-198162380D01*
X2965714Y-198210000D01*
X2870476Y-198305238D01*
X2822857Y-198495714D01*
X2822857Y-198829047D01*
X2870476Y-199019523D01*
X2965714Y-199114761D01*
X3060952Y-199162380D01*
X3251428Y-199162380D01*
X2441904Y-198257619D02*
X2394285Y-198210000D01*
X2299047Y-198162380D01*
X2060952Y-198162380D01*
X1965714Y-198210000D01*
X1918095Y-198257619D01*
X1870476Y-198352857D01*
X1870476Y-198448095D01*
X1918095Y-198590952D01*
X2489523Y-199162380D01*
X1870476Y-199162380D01*
X-14067379Y-199099760D02*
X-14114999Y-199004522D01*
X-14210237Y-198909284D01*
X-14353094Y-198766427D01*
X-14400713Y-198671189D01*
X-14400713Y-198575951D01*
X-14162618Y-198623570D02*
X-14210237Y-198528332D01*
X-14305475Y-198433094D01*
X-14495951Y-198385475D01*
X-14829284Y-198385475D01*
X-15019760Y-198433094D01*
X-15114999Y-198528332D01*
X-15162618Y-198623570D01*
X-15162618Y-198814046D01*
X-15114999Y-198909284D01*
X-15019760Y-199004522D01*
X-14829284Y-199052141D01*
X-14495951Y-199052141D01*
X-14305475Y-199004522D01*
X-14210237Y-198909284D01*
X-14162618Y-198814046D01*
X-14162618Y-198623570D01*
X-15162618Y-199385475D02*
X-15162618Y-200004522D01*
X-14781665Y-199671189D01*
X-14781665Y-199814046D01*
X-14734046Y-199909284D01*
X-14686427Y-199956903D01*
X-14591189Y-200004522D01*
X-14353094Y-200004522D01*
X-14257856Y-199956903D01*
X-14210237Y-199909284D01*
X-14162618Y-199814046D01*
X-14162618Y-199528332D01*
X-14210237Y-199433094D01*
X-14257856Y-199385475D01*
X-2472379Y-189474761D02*
X-2519999Y-189379523D01*
X-2615237Y-189284285D01*
X-2758094Y-189141428D01*
X-2805713Y-189046190D01*
X-2805713Y-188950952D01*
X-2567618Y-188998571D02*
X-2615237Y-188903333D01*
X-2710475Y-188808095D01*
X-2900951Y-188760476D01*
X-3234284Y-188760476D01*
X-3424760Y-188808095D01*
X-3519999Y-188903333D01*
X-3567618Y-188998571D01*
X-3567618Y-189189047D01*
X-3519999Y-189284285D01*
X-3424760Y-189379523D01*
X-3234284Y-189427142D01*
X-2900951Y-189427142D01*
X-2710475Y-189379523D01*
X-2615237Y-189284285D01*
X-2567618Y-189189047D01*
X-2567618Y-188998571D01*
X-3139046Y-189998571D02*
X-3186665Y-189903333D01*
X-3234284Y-189855714D01*
X-3329522Y-189808095D01*
X-3377141Y-189808095D01*
X-3472379Y-189855714D01*
X-3519999Y-189903333D01*
X-3567618Y-189998571D01*
X-3567618Y-190189047D01*
X-3519999Y-190284285D01*
X-3472379Y-190331904D01*
X-3377141Y-190379523D01*
X-3329522Y-190379523D01*
X-3234284Y-190331904D01*
X-3186665Y-190284285D01*
X-3139046Y-190189047D01*
X-3139046Y-189998571D01*
X-3091427Y-189903333D01*
X-3043808Y-189855714D01*
X-2948570Y-189808095D01*
X-2758094Y-189808095D01*
X-2662856Y-189855714D01*
X-2615237Y-189903333D01*
X-2567618Y-189998571D01*
X-2567618Y-190189047D01*
X-2615237Y-190284285D01*
X-2662856Y-190331904D01*
X-2758094Y-190379523D01*
X-2948570Y-190379523D01*
X-3043808Y-190331904D01*
X-3091427Y-190284285D01*
X-3139046Y-190189047D01*
X44481428Y-199097619D02*
X44576666Y-199050000D01*
X44671904Y-198954761D01*
X44814761Y-198811904D01*
X44910000Y-198764285D01*
X45005238Y-198764285D01*
X44957619Y-199002380D02*
X45052857Y-198954761D01*
X45148095Y-198859523D01*
X45195714Y-198669047D01*
X45195714Y-198335714D01*
X45148095Y-198145238D01*
X45052857Y-198050000D01*
X44957619Y-198002380D01*
X44767142Y-198002380D01*
X44671904Y-198050000D01*
X44576666Y-198145238D01*
X44529047Y-198335714D01*
X44529047Y-198669047D01*
X44576666Y-198859523D01*
X44671904Y-198954761D01*
X44767142Y-199002380D01*
X44957619Y-199002380D01*
X43576666Y-199002380D02*
X44148095Y-199002380D01*
X43862380Y-199002380D02*
X43862380Y-198002380D01*
X43957619Y-198145238D01*
X44052857Y-198240476D01*
X44148095Y-198288095D01*
X42719523Y-198335714D02*
X42719523Y-199002380D01*
X42957619Y-197954761D02*
X43195714Y-198669047D01*
X42576666Y-198669047D01*
X41051428Y-199257619D02*
X41146666Y-199210000D01*
X41241904Y-199114761D01*
X41384761Y-198971904D01*
X41480000Y-198924285D01*
X41575238Y-198924285D01*
X41527619Y-199162380D02*
X41622857Y-199114761D01*
X41718095Y-199019523D01*
X41765714Y-198829047D01*
X41765714Y-198495714D01*
X41718095Y-198305238D01*
X41622857Y-198210000D01*
X41527619Y-198162380D01*
X41337142Y-198162380D01*
X41241904Y-198210000D01*
X41146666Y-198305238D01*
X41099047Y-198495714D01*
X41099047Y-198829047D01*
X41146666Y-199019523D01*
X41241904Y-199114761D01*
X41337142Y-199162380D01*
X41527619Y-199162380D01*
X40146666Y-199162380D02*
X40718095Y-199162380D01*
X40432380Y-199162380D02*
X40432380Y-198162380D01*
X40527619Y-198305238D01*
X40622857Y-198400476D01*
X40718095Y-198448095D01*
X39241904Y-198162380D02*
X39718095Y-198162380D01*
X39765714Y-198638571D01*
X39718095Y-198590952D01*
X39622857Y-198543333D01*
X39384761Y-198543333D01*
X39289523Y-198590952D01*
X39241904Y-198638571D01*
X39194285Y-198733809D01*
X39194285Y-198971904D01*
X39241904Y-199067142D01*
X39289523Y-199114761D01*
X39384761Y-199162380D01*
X39622857Y-199162380D01*
X39718095Y-199114761D01*
X39765714Y-199067142D01*
X23412620Y-198613570D02*
X23365001Y-198518332D01*
X23269762Y-198423094D01*
X23126905Y-198280237D01*
X23079286Y-198184999D01*
X23079286Y-198089760D01*
X23317381Y-198137379D02*
X23269762Y-198042141D01*
X23174524Y-197946903D01*
X22984048Y-197899284D01*
X22650715Y-197899284D01*
X22460239Y-197946903D01*
X22365001Y-198042141D01*
X22317381Y-198137379D01*
X22317381Y-198327856D01*
X22365001Y-198423094D01*
X22460239Y-198518332D01*
X22650715Y-198565951D01*
X22984048Y-198565951D01*
X23174524Y-198518332D01*
X23269762Y-198423094D01*
X23317381Y-198327856D01*
X23317381Y-198137379D01*
X23317381Y-199518332D02*
X23317381Y-198946903D01*
X23317381Y-199232618D02*
X22317381Y-199232618D01*
X22460239Y-199137379D01*
X22555477Y-199042141D01*
X22603096Y-198946903D01*
X22317381Y-200375475D02*
X22317381Y-200184999D01*
X22365001Y-200089760D01*
X22412620Y-200042141D01*
X22555477Y-199946903D01*
X22745953Y-199899284D01*
X23126905Y-199899284D01*
X23222143Y-199946903D01*
X23269762Y-199994522D01*
X23317381Y-200089760D01*
X23317381Y-200280237D01*
X23269762Y-200375475D01*
X23222143Y-200423094D01*
X23126905Y-200470713D01*
X22888810Y-200470713D01*
X22793572Y-200423094D01*
X22745953Y-200375475D01*
X22698334Y-200280237D01*
X22698334Y-200089760D01*
X22745953Y-199994522D01*
X22793572Y-199946903D01*
X22888810Y-199899284D01*
X35007620Y-188988571D02*
X34960001Y-188893333D01*
X34864762Y-188798095D01*
X34721905Y-188655238D01*
X34674286Y-188560000D01*
X34674286Y-188464761D01*
X34912381Y-188512380D02*
X34864762Y-188417142D01*
X34769524Y-188321904D01*
X34579048Y-188274285D01*
X34245715Y-188274285D01*
X34055239Y-188321904D01*
X33960001Y-188417142D01*
X33912381Y-188512380D01*
X33912381Y-188702857D01*
X33960001Y-188798095D01*
X34055239Y-188893333D01*
X34245715Y-188940952D01*
X34579048Y-188940952D01*
X34769524Y-188893333D01*
X34864762Y-188798095D01*
X34912381Y-188702857D01*
X34912381Y-188512380D01*
X34007620Y-189321904D02*
X33960001Y-189369523D01*
X33912381Y-189464761D01*
X33912381Y-189702857D01*
X33960001Y-189798095D01*
X34007620Y-189845714D01*
X34102858Y-189893333D01*
X34198096Y-189893333D01*
X34340953Y-189845714D01*
X34912381Y-189274285D01*
X34912381Y-189893333D01*
X34912381Y-190845714D02*
X34912381Y-190274285D01*
X34912381Y-190560000D02*
X33912381Y-190560000D01*
X34055239Y-190464761D01*
X34150477Y-190369523D01*
X34198096Y-190274285D01*
X20327619Y-175348571D02*
X20280000Y-175253333D01*
X20184761Y-175158095D01*
X20041904Y-175015238D01*
X19994285Y-174920000D01*
X19994285Y-174824761D01*
X20232380Y-174872380D02*
X20184761Y-174777142D01*
X20089523Y-174681904D01*
X19899047Y-174634285D01*
X19565714Y-174634285D01*
X19375238Y-174681904D01*
X19280000Y-174777142D01*
X19232380Y-174872380D01*
X19232380Y-175062857D01*
X19280000Y-175158095D01*
X19375238Y-175253333D01*
X19565714Y-175300952D01*
X19899047Y-175300952D01*
X20089523Y-175253333D01*
X20184761Y-175158095D01*
X20232380Y-175062857D01*
X20232380Y-174872380D01*
X19327619Y-175681904D02*
X19280000Y-175729523D01*
X19232380Y-175824761D01*
X19232380Y-176062857D01*
X19280000Y-176158095D01*
X19327619Y-176205714D01*
X19422857Y-176253333D01*
X19518095Y-176253333D01*
X19660952Y-176205714D01*
X20232380Y-175634285D01*
X20232380Y-176253333D01*
X19232380Y-177110476D02*
X19232380Y-176920000D01*
X19280000Y-176824761D01*
X19327619Y-176777142D01*
X19470476Y-176681904D01*
X19660952Y-176634285D01*
X20041904Y-176634285D01*
X20137142Y-176681904D01*
X20184761Y-176729523D01*
X20232380Y-176824761D01*
X20232380Y-177015238D01*
X20184761Y-177110476D01*
X20137142Y-177158095D01*
X20041904Y-177205714D01*
X19803809Y-177205714D01*
X19708571Y-177158095D01*
X19660952Y-177110476D01*
X19613333Y-177015238D01*
X19613333Y-176824761D01*
X19660952Y-176729523D01*
X19708571Y-176681904D01*
X19803809Y-176634285D01*
X-4503333Y-197622380D02*
X-4169999Y-197146190D01*
X-3931904Y-197622380D02*
X-3931904Y-196622380D01*
X-4312857Y-196622380D01*
X-4408095Y-196670000D01*
X-4455714Y-196717619D01*
X-4503333Y-196812857D01*
X-4503333Y-196955714D01*
X-4455714Y-197050952D01*
X-4408095Y-197098571D01*
X-4312857Y-197146190D01*
X-3931904Y-197146190D01*
X-5455714Y-197622380D02*
X-4884285Y-197622380D01*
X-5169999Y-197622380D02*
X-5169999Y-196622380D01*
X-5074761Y-196765238D01*
X-4979523Y-196860476D01*
X-4884285Y-196908095D01*
X-1595832Y-197592380D02*
X-1262499Y-197116190D01*
X-1024403Y-197592380D02*
X-1024403Y-196592380D01*
X-1405356Y-196592380D01*
X-1500594Y-196640000D01*
X-1548213Y-196687619D01*
X-1595832Y-196782857D01*
X-1595832Y-196925714D01*
X-1548213Y-197020952D01*
X-1500594Y-197068571D01*
X-1405356Y-197116190D01*
X-1024403Y-197116190D01*
X-1976784Y-196687619D02*
X-2024403Y-196640000D01*
X-2119641Y-196592380D01*
X-2357737Y-196592380D01*
X-2452975Y-196640000D01*
X-2500594Y-196687619D01*
X-2548213Y-196782857D01*
X-2548213Y-196878095D01*
X-2500594Y-197020952D01*
X-1929165Y-197592380D01*
X-2548213Y-197592380D01*
X9662380Y-196443333D02*
X9186190Y-196110000D01*
X9662380Y-195871904D02*
X8662380Y-195871904D01*
X8662380Y-196252857D01*
X8710000Y-196348095D01*
X8757619Y-196395714D01*
X8852857Y-196443333D01*
X8995714Y-196443333D01*
X9090952Y-196395714D01*
X9138571Y-196348095D01*
X9186190Y-196252857D01*
X9186190Y-195871904D01*
X8662380Y-196776666D02*
X8662380Y-197395714D01*
X9043333Y-197062380D01*
X9043333Y-197205238D01*
X9090952Y-197300476D01*
X9138571Y-197348095D01*
X9233809Y-197395714D01*
X9471904Y-197395714D01*
X9567142Y-197348095D01*
X9614761Y-197300476D01*
X9662380Y-197205238D01*
X9662380Y-196919523D01*
X9614761Y-196824285D01*
X9567142Y-196776666D01*
X7926666Y-204452380D02*
X8260000Y-203976190D01*
X8498095Y-204452380D02*
X8498095Y-203452380D01*
X8117142Y-203452380D01*
X8021904Y-203500000D01*
X7974285Y-203547619D01*
X7926666Y-203642857D01*
X7926666Y-203785714D01*
X7974285Y-203880952D01*
X8021904Y-203928571D01*
X8117142Y-203976190D01*
X8498095Y-203976190D01*
X7069523Y-203785714D02*
X7069523Y-204452380D01*
X7307619Y-203404761D02*
X7545714Y-204119047D01*
X6926666Y-204119047D01*
X6192380Y-196383333D02*
X5716190Y-196050000D01*
X6192380Y-195811904D02*
X5192380Y-195811904D01*
X5192380Y-196192857D01*
X5240000Y-196288095D01*
X5287619Y-196335714D01*
X5382857Y-196383333D01*
X5525714Y-196383333D01*
X5620952Y-196335714D01*
X5668571Y-196288095D01*
X5716190Y-196192857D01*
X5716190Y-195811904D01*
X5192380Y-197288095D02*
X5192380Y-196811904D01*
X5668571Y-196764285D01*
X5620952Y-196811904D01*
X5573333Y-196907142D01*
X5573333Y-197145238D01*
X5620952Y-197240476D01*
X5668571Y-197288095D01*
X5763809Y-197335714D01*
X6001904Y-197335714D01*
X6097142Y-197288095D01*
X6144761Y-197240476D01*
X6192380Y-197145238D01*
X6192380Y-196907142D01*
X6144761Y-196811904D01*
X6097142Y-196764285D01*
X4576666Y-204462380D02*
X4910000Y-203986190D01*
X5148095Y-204462380D02*
X5148095Y-203462380D01*
X4767142Y-203462380D01*
X4671904Y-203510000D01*
X4624285Y-203557619D01*
X4576666Y-203652857D01*
X4576666Y-203795714D01*
X4624285Y-203890952D01*
X4671904Y-203938571D01*
X4767142Y-203986190D01*
X5148095Y-203986190D01*
X3719523Y-203462380D02*
X3910000Y-203462380D01*
X4005238Y-203510000D01*
X4052857Y-203557619D01*
X4148095Y-203700476D01*
X4195714Y-203890952D01*
X4195714Y-204271904D01*
X4148095Y-204367142D01*
X4100476Y-204414761D01*
X4005238Y-204462380D01*
X3814761Y-204462380D01*
X3719523Y-204414761D01*
X3671904Y-204367142D01*
X3624285Y-204271904D01*
X3624285Y-204033809D01*
X3671904Y-203938571D01*
X3719523Y-203890952D01*
X3814761Y-203843333D01*
X4005238Y-203843333D01*
X4100476Y-203890952D01*
X4148095Y-203938571D01*
X4195714Y-204033809D01*
X-10592618Y-204895833D02*
X-11068808Y-204562500D01*
X-10592618Y-204324404D02*
X-11592618Y-204324404D01*
X-11592618Y-204705357D01*
X-11544999Y-204800595D01*
X-11497379Y-204848214D01*
X-11402141Y-204895833D01*
X-11259284Y-204895833D01*
X-11164046Y-204848214D01*
X-11116427Y-204800595D01*
X-11068808Y-204705357D01*
X-11068808Y-204324404D01*
X-11592618Y-205229166D02*
X-11592618Y-205895833D01*
X-10592618Y-205467261D01*
X-14468332Y-206057379D02*
X-14134999Y-205581189D01*
X-13896903Y-206057379D02*
X-13896903Y-205057379D01*
X-14277856Y-205057379D01*
X-14373094Y-205104999D01*
X-14420713Y-205152618D01*
X-14468332Y-205247856D01*
X-14468332Y-205390713D01*
X-14420713Y-205485951D01*
X-14373094Y-205533570D01*
X-14277856Y-205581189D01*
X-13896903Y-205581189D01*
X-15039760Y-205485951D02*
X-14944522Y-205438332D01*
X-14896903Y-205390713D01*
X-14849284Y-205295475D01*
X-14849284Y-205247856D01*
X-14896903Y-205152618D01*
X-14944522Y-205104999D01*
X-15039760Y-205057379D01*
X-15230237Y-205057379D01*
X-15325475Y-205104999D01*
X-15373094Y-205152618D01*
X-15420713Y-205247856D01*
X-15420713Y-205295475D01*
X-15373094Y-205390713D01*
X-15325475Y-205438332D01*
X-15230237Y-205485951D01*
X-15039760Y-205485951D01*
X-14944522Y-205533570D01*
X-14896903Y-205581189D01*
X-14849284Y-205676427D01*
X-14849284Y-205866903D01*
X-14896903Y-205962141D01*
X-14944522Y-206009760D01*
X-15039760Y-206057379D01*
X-15230237Y-206057379D01*
X-15325475Y-206009760D01*
X-15373094Y-205962141D01*
X-15420713Y-205866903D01*
X-15420713Y-205676427D01*
X-15373094Y-205581189D01*
X-15325475Y-205533570D01*
X-15230237Y-205485951D01*
X-23322141Y-200337379D02*
X-22988808Y-199861189D01*
X-22750713Y-200337379D02*
X-22750713Y-199337379D01*
X-23131665Y-199337379D01*
X-23226903Y-199384999D01*
X-23274522Y-199432618D01*
X-23322141Y-199527856D01*
X-23322141Y-199670713D01*
X-23274522Y-199765951D01*
X-23226903Y-199813570D01*
X-23131665Y-199861189D01*
X-22750713Y-199861189D01*
X-24274522Y-200337379D02*
X-23703094Y-200337379D01*
X-23988808Y-200337379D02*
X-23988808Y-199337379D01*
X-23893570Y-199480237D01*
X-23798332Y-199575475D01*
X-23703094Y-199623094D01*
X-24655475Y-199432618D02*
X-24703094Y-199384999D01*
X-24798332Y-199337379D01*
X-25036427Y-199337379D01*
X-25131665Y-199384999D01*
X-25179284Y-199432618D01*
X-25226903Y-199527856D01*
X-25226903Y-199623094D01*
X-25179284Y-199765951D01*
X-24607856Y-200337379D01*
X-25226903Y-200337379D01*
X-23304642Y-204777379D02*
X-22971309Y-204301189D01*
X-22733214Y-204777379D02*
X-22733214Y-203777379D01*
X-23114166Y-203777379D01*
X-23209404Y-203824999D01*
X-23257023Y-203872618D01*
X-23304642Y-203967856D01*
X-23304642Y-204110713D01*
X-23257023Y-204205951D01*
X-23209404Y-204253570D01*
X-23114166Y-204301189D01*
X-22733214Y-204301189D01*
X-23685595Y-203872618D02*
X-23733214Y-203824999D01*
X-23828452Y-203777379D01*
X-24066547Y-203777379D01*
X-24161785Y-203824999D01*
X-24209404Y-203872618D01*
X-24257023Y-203967856D01*
X-24257023Y-204063094D01*
X-24209404Y-204205951D01*
X-23637976Y-204777379D01*
X-24257023Y-204777379D01*
X-25209404Y-204777379D02*
X-24637976Y-204777379D01*
X-24923690Y-204777379D02*
X-24923690Y-203777379D01*
X-24828452Y-203920237D01*
X-24733214Y-204015475D01*
X-24637976Y-204063094D01*
X-18752141Y-205367378D02*
X-18418808Y-204891188D01*
X-18180713Y-205367378D02*
X-18180713Y-204367378D01*
X-18561665Y-204367378D01*
X-18656903Y-204414998D01*
X-18704522Y-204462617D01*
X-18752141Y-204557855D01*
X-18752141Y-204700712D01*
X-18704522Y-204795950D01*
X-18656903Y-204843569D01*
X-18561665Y-204891188D01*
X-18180713Y-204891188D01*
X-19133094Y-204462617D02*
X-19180713Y-204414998D01*
X-19275951Y-204367378D01*
X-19514046Y-204367378D01*
X-19609284Y-204414998D01*
X-19656903Y-204462617D01*
X-19704522Y-204557855D01*
X-19704522Y-204653093D01*
X-19656903Y-204795950D01*
X-19085475Y-205367378D01*
X-19704522Y-205367378D01*
X-20085475Y-204462617D02*
X-20133094Y-204414998D01*
X-20228332Y-204367378D01*
X-20466427Y-204367378D01*
X-20561665Y-204414998D01*
X-20609284Y-204462617D01*
X-20656903Y-204557855D01*
X-20656903Y-204653093D01*
X-20609284Y-204795950D01*
X-20037856Y-205367378D01*
X-20656903Y-205367378D01*
X-6137618Y-183059641D02*
X-6613808Y-182726308D01*
X-6137618Y-182488213D02*
X-7137618Y-182488213D01*
X-7137618Y-182869165D01*
X-7089999Y-182964403D01*
X-7042379Y-183012022D01*
X-6947141Y-183059641D01*
X-6804284Y-183059641D01*
X-6709046Y-183012022D01*
X-6661427Y-182964403D01*
X-6613808Y-182869165D01*
X-6613808Y-182488213D01*
X-7042379Y-183440594D02*
X-7089999Y-183488213D01*
X-7137618Y-183583451D01*
X-7137618Y-183821546D01*
X-7089999Y-183916784D01*
X-7042379Y-183964403D01*
X-6947141Y-184012022D01*
X-6851903Y-184012022D01*
X-6709046Y-183964403D01*
X-6137618Y-183392975D01*
X-6137618Y-184012022D01*
X-6804284Y-184869165D02*
X-6137618Y-184869165D01*
X-7185237Y-184631070D02*
X-6470951Y-184392975D01*
X-6470951Y-185012022D01*
X-2357141Y-183612380D02*
X-2023808Y-183136190D01*
X-1785713Y-183612380D02*
X-1785713Y-182612380D01*
X-2166665Y-182612380D01*
X-2261903Y-182660000D01*
X-2309522Y-182707619D01*
X-2357141Y-182802857D01*
X-2357141Y-182945714D01*
X-2309522Y-183040952D01*
X-2261903Y-183088571D01*
X-2166665Y-183136190D01*
X-1785713Y-183136190D01*
X-2738094Y-182707619D02*
X-2785713Y-182660000D01*
X-2880951Y-182612380D01*
X-3119046Y-182612380D01*
X-3214284Y-182660000D01*
X-3261903Y-182707619D01*
X-3309522Y-182802857D01*
X-3309522Y-182898095D01*
X-3261903Y-183040952D01*
X-2690475Y-183612380D01*
X-3309522Y-183612380D01*
X-4214284Y-182612380D02*
X-3738094Y-182612380D01*
X-3690475Y-183088571D01*
X-3738094Y-183040952D01*
X-3833332Y-182993333D01*
X-4071427Y-182993333D01*
X-4166665Y-183040952D01*
X-4214284Y-183088571D01*
X-4261903Y-183183809D01*
X-4261903Y-183421904D01*
X-4214284Y-183517142D01*
X-4166665Y-183564761D01*
X-4071427Y-183612380D01*
X-3833332Y-183612380D01*
X-3738094Y-183564761D01*
X-3690475Y-183517142D01*
X6972857Y-189332380D02*
X7306190Y-188856190D01*
X7544285Y-189332380D02*
X7544285Y-188332380D01*
X7163333Y-188332380D01*
X7068095Y-188380000D01*
X7020476Y-188427619D01*
X6972857Y-188522857D01*
X6972857Y-188665714D01*
X7020476Y-188760952D01*
X7068095Y-188808571D01*
X7163333Y-188856190D01*
X7544285Y-188856190D01*
X6591904Y-188427619D02*
X6544285Y-188380000D01*
X6449047Y-188332380D01*
X6210952Y-188332380D01*
X6115714Y-188380000D01*
X6068095Y-188427619D01*
X6020476Y-188522857D01*
X6020476Y-188618095D01*
X6068095Y-188760952D01*
X6639523Y-189332380D01*
X6020476Y-189332380D01*
X5544285Y-189332380D02*
X5353809Y-189332380D01*
X5258571Y-189284761D01*
X5210952Y-189237142D01*
X5115714Y-189094285D01*
X5068095Y-188903809D01*
X5068095Y-188522857D01*
X5115714Y-188427619D01*
X5163333Y-188380000D01*
X5258571Y-188332380D01*
X5449047Y-188332380D01*
X5544285Y-188380000D01*
X5591904Y-188427619D01*
X5639523Y-188522857D01*
X5639523Y-188760952D01*
X5591904Y-188856190D01*
X5544285Y-188903809D01*
X5449047Y-188951428D01*
X5258571Y-188951428D01*
X5163333Y-188903809D01*
X5115714Y-188856190D01*
X5068095Y-188760952D01*
X6955358Y-184892380D02*
X7288691Y-184416190D01*
X7526786Y-184892380D02*
X7526786Y-183892380D01*
X7145834Y-183892380D01*
X7050596Y-183940000D01*
X7002977Y-183987619D01*
X6955358Y-184082857D01*
X6955358Y-184225714D01*
X7002977Y-184320952D01*
X7050596Y-184368571D01*
X7145834Y-184416190D01*
X7526786Y-184416190D01*
X6622024Y-183892380D02*
X6002977Y-183892380D01*
X6336310Y-184273333D01*
X6193453Y-184273333D01*
X6098215Y-184320952D01*
X6050596Y-184368571D01*
X6002977Y-184463809D01*
X6002977Y-184701904D01*
X6050596Y-184797142D01*
X6098215Y-184844761D01*
X6193453Y-184892380D01*
X6479167Y-184892380D01*
X6574405Y-184844761D01*
X6622024Y-184797142D01*
X5431548Y-184320952D02*
X5526786Y-184273333D01*
X5574405Y-184225714D01*
X5622024Y-184130476D01*
X5622024Y-184082857D01*
X5574405Y-183987619D01*
X5526786Y-183940000D01*
X5431548Y-183892380D01*
X5241072Y-183892380D01*
X5145834Y-183940000D01*
X5098215Y-183987619D01*
X5050596Y-184082857D01*
X5050596Y-184130476D01*
X5098215Y-184225714D01*
X5145834Y-184273333D01*
X5241072Y-184320952D01*
X5431548Y-184320952D01*
X5526786Y-184368571D01*
X5574405Y-184416190D01*
X5622024Y-184511428D01*
X5622024Y-184701904D01*
X5574405Y-184797142D01*
X5526786Y-184844761D01*
X5431548Y-184892380D01*
X5241072Y-184892380D01*
X5145834Y-184844761D01*
X5098215Y-184797142D01*
X5050596Y-184701904D01*
X5050596Y-184511428D01*
X5098215Y-184416190D01*
X5145834Y-184368571D01*
X5241072Y-184320952D01*
X2402857Y-184302381D02*
X2736190Y-183826191D01*
X2974285Y-184302381D02*
X2974285Y-183302381D01*
X2593333Y-183302381D01*
X2498095Y-183350001D01*
X2450476Y-183397620D01*
X2402857Y-183492858D01*
X2402857Y-183635715D01*
X2450476Y-183730953D01*
X2498095Y-183778572D01*
X2593333Y-183826191D01*
X2974285Y-183826191D01*
X2069523Y-183302381D02*
X1450476Y-183302381D01*
X1783809Y-183683334D01*
X1640952Y-183683334D01*
X1545714Y-183730953D01*
X1498095Y-183778572D01*
X1450476Y-183873810D01*
X1450476Y-184111905D01*
X1498095Y-184207143D01*
X1545714Y-184254762D01*
X1640952Y-184302381D01*
X1926666Y-184302381D01*
X2021904Y-184254762D01*
X2069523Y-184207143D01*
X974285Y-184302381D02*
X783809Y-184302381D01*
X688571Y-184254762D01*
X640952Y-184207143D01*
X545714Y-184064286D01*
X498095Y-183873810D01*
X498095Y-183492858D01*
X545714Y-183397620D01*
X593333Y-183350001D01*
X688571Y-183302381D01*
X879047Y-183302381D01*
X974285Y-183350001D01*
X1021904Y-183397620D01*
X1069523Y-183492858D01*
X1069523Y-183730953D01*
X1021904Y-183826191D01*
X974285Y-183873810D01*
X879047Y-183921429D01*
X688571Y-183921429D01*
X593333Y-183873810D01*
X545714Y-183826191D01*
X498095Y-183730953D01*
X33452857Y-197612380D02*
X33786190Y-197136190D01*
X34024285Y-197612380D02*
X34024285Y-196612380D01*
X33643333Y-196612380D01*
X33548095Y-196660000D01*
X33500476Y-196707619D01*
X33452857Y-196802857D01*
X33452857Y-196945714D01*
X33500476Y-197040952D01*
X33548095Y-197088571D01*
X33643333Y-197136190D01*
X34024285Y-197136190D01*
X32548095Y-196612380D02*
X33024285Y-196612380D01*
X33071904Y-197088571D01*
X33024285Y-197040952D01*
X32929047Y-196993333D01*
X32690952Y-196993333D01*
X32595714Y-197040952D01*
X32548095Y-197088571D01*
X32500476Y-197183809D01*
X32500476Y-197421904D01*
X32548095Y-197517142D01*
X32595714Y-197564761D01*
X32690952Y-197612380D01*
X32929047Y-197612380D01*
X33024285Y-197564761D01*
X33071904Y-197517142D01*
X32167142Y-196612380D02*
X31548095Y-196612380D01*
X31881428Y-196993333D01*
X31738571Y-196993333D01*
X31643333Y-197040952D01*
X31595714Y-197088571D01*
X31548095Y-197183809D01*
X31548095Y-197421904D01*
X31595714Y-197517142D01*
X31643333Y-197564761D01*
X31738571Y-197612380D01*
X32024285Y-197612380D01*
X32119523Y-197564761D01*
X32167142Y-197517142D01*
X36360358Y-197582380D02*
X36693691Y-197106190D01*
X36931786Y-197582380D02*
X36931786Y-196582380D01*
X36550834Y-196582380D01*
X36455596Y-196630000D01*
X36407977Y-196677619D01*
X36360358Y-196772857D01*
X36360358Y-196915714D01*
X36407977Y-197010952D01*
X36455596Y-197058571D01*
X36550834Y-197106190D01*
X36931786Y-197106190D01*
X35455596Y-196582380D02*
X35931786Y-196582380D01*
X35979405Y-197058571D01*
X35931786Y-197010952D01*
X35836548Y-196963333D01*
X35598453Y-196963333D01*
X35503215Y-197010952D01*
X35455596Y-197058571D01*
X35407977Y-197153809D01*
X35407977Y-197391904D01*
X35455596Y-197487142D01*
X35503215Y-197534761D01*
X35598453Y-197582380D01*
X35836548Y-197582380D01*
X35931786Y-197534761D01*
X35979405Y-197487142D01*
X34550834Y-196915714D02*
X34550834Y-197582380D01*
X34788929Y-196534761D02*
X35027024Y-197249047D01*
X34407977Y-197249047D01*
X47462380Y-195967142D02*
X46986190Y-195633809D01*
X47462380Y-195395714D02*
X46462380Y-195395714D01*
X46462380Y-195776666D01*
X46510000Y-195871904D01*
X46557619Y-195919523D01*
X46652857Y-195967142D01*
X46795714Y-195967142D01*
X46890952Y-195919523D01*
X46938571Y-195871904D01*
X46986190Y-195776666D01*
X46986190Y-195395714D01*
X46462380Y-196871904D02*
X46462380Y-196395714D01*
X46938571Y-196348095D01*
X46890952Y-196395714D01*
X46843333Y-196490952D01*
X46843333Y-196729047D01*
X46890952Y-196824285D01*
X46938571Y-196871904D01*
X47033809Y-196919523D01*
X47271904Y-196919523D01*
X47367142Y-196871904D01*
X47414761Y-196824285D01*
X47462380Y-196729047D01*
X47462380Y-196490952D01*
X47414761Y-196395714D01*
X47367142Y-196348095D01*
X46462380Y-197824285D02*
X46462380Y-197348095D01*
X46938571Y-197300476D01*
X46890952Y-197348095D01*
X46843333Y-197443333D01*
X46843333Y-197681428D01*
X46890952Y-197776666D01*
X46938571Y-197824285D01*
X47033809Y-197871904D01*
X47271904Y-197871904D01*
X47367142Y-197824285D01*
X47414761Y-197776666D01*
X47462380Y-197681428D01*
X47462380Y-197443333D01*
X47414761Y-197348095D01*
X47367142Y-197300476D01*
X46202857Y-204452380D02*
X46536190Y-203976190D01*
X46774285Y-204452380D02*
X46774285Y-203452380D01*
X46393333Y-203452380D01*
X46298095Y-203500000D01*
X46250476Y-203547619D01*
X46202857Y-203642857D01*
X46202857Y-203785714D01*
X46250476Y-203880952D01*
X46298095Y-203928571D01*
X46393333Y-203976190D01*
X46774285Y-203976190D01*
X45298095Y-203452380D02*
X45774285Y-203452380D01*
X45821904Y-203928571D01*
X45774285Y-203880952D01*
X45679047Y-203833333D01*
X45440952Y-203833333D01*
X45345714Y-203880952D01*
X45298095Y-203928571D01*
X45250476Y-204023809D01*
X45250476Y-204261904D01*
X45298095Y-204357142D01*
X45345714Y-204404761D01*
X45440952Y-204452380D01*
X45679047Y-204452380D01*
X45774285Y-204404761D01*
X45821904Y-204357142D01*
X44393333Y-203452380D02*
X44583809Y-203452380D01*
X44679047Y-203500000D01*
X44726666Y-203547619D01*
X44821904Y-203690476D01*
X44869523Y-203880952D01*
X44869523Y-204261904D01*
X44821904Y-204357142D01*
X44774285Y-204404761D01*
X44679047Y-204452380D01*
X44488571Y-204452380D01*
X44393333Y-204404761D01*
X44345714Y-204357142D01*
X44298095Y-204261904D01*
X44298095Y-204023809D01*
X44345714Y-203928571D01*
X44393333Y-203880952D01*
X44488571Y-203833333D01*
X44679047Y-203833333D01*
X44774285Y-203880952D01*
X44821904Y-203928571D01*
X44869523Y-204023809D01*
X43992380Y-195907142D02*
X43516190Y-195573809D01*
X43992380Y-195335714D02*
X42992380Y-195335714D01*
X42992380Y-195716666D01*
X43040000Y-195811904D01*
X43087619Y-195859523D01*
X43182857Y-195907142D01*
X43325714Y-195907142D01*
X43420952Y-195859523D01*
X43468571Y-195811904D01*
X43516190Y-195716666D01*
X43516190Y-195335714D01*
X42992380Y-196811904D02*
X42992380Y-196335714D01*
X43468571Y-196288095D01*
X43420952Y-196335714D01*
X43373333Y-196430952D01*
X43373333Y-196669047D01*
X43420952Y-196764285D01*
X43468571Y-196811904D01*
X43563809Y-196859523D01*
X43801904Y-196859523D01*
X43897142Y-196811904D01*
X43944761Y-196764285D01*
X43992380Y-196669047D01*
X43992380Y-196430952D01*
X43944761Y-196335714D01*
X43897142Y-196288095D01*
X42992380Y-197192857D02*
X42992380Y-197859523D01*
X43992380Y-197430952D01*
X42852857Y-204462380D02*
X43186190Y-203986190D01*
X43424285Y-204462380D02*
X43424285Y-203462380D01*
X43043333Y-203462380D01*
X42948095Y-203510000D01*
X42900476Y-203557619D01*
X42852857Y-203652857D01*
X42852857Y-203795714D01*
X42900476Y-203890952D01*
X42948095Y-203938571D01*
X43043333Y-203986190D01*
X43424285Y-203986190D01*
X41948095Y-203462380D02*
X42424285Y-203462380D01*
X42471904Y-203938571D01*
X42424285Y-203890952D01*
X42329047Y-203843333D01*
X42090952Y-203843333D01*
X41995714Y-203890952D01*
X41948095Y-203938571D01*
X41900476Y-204033809D01*
X41900476Y-204271904D01*
X41948095Y-204367142D01*
X41995714Y-204414761D01*
X42090952Y-204462380D01*
X42329047Y-204462380D01*
X42424285Y-204414761D01*
X42471904Y-204367142D01*
X41329047Y-203890952D02*
X41424285Y-203843333D01*
X41471904Y-203795714D01*
X41519523Y-203700476D01*
X41519523Y-203652857D01*
X41471904Y-203557619D01*
X41424285Y-203510000D01*
X41329047Y-203462380D01*
X41138571Y-203462380D01*
X41043333Y-203510000D01*
X40995714Y-203557619D01*
X40948095Y-203652857D01*
X40948095Y-203700476D01*
X40995714Y-203795714D01*
X41043333Y-203843333D01*
X41138571Y-203890952D01*
X41329047Y-203890952D01*
X41424285Y-203938571D01*
X41471904Y-203986190D01*
X41519523Y-204081428D01*
X41519523Y-204271904D01*
X41471904Y-204367142D01*
X41424285Y-204414761D01*
X41329047Y-204462380D01*
X41138571Y-204462380D01*
X41043333Y-204414761D01*
X40995714Y-204367142D01*
X40948095Y-204271904D01*
X40948095Y-204081428D01*
X40995714Y-203986190D01*
X41043333Y-203938571D01*
X41138571Y-203890952D01*
X26887381Y-204409642D02*
X26411191Y-204076309D01*
X26887381Y-203838214D02*
X25887381Y-203838214D01*
X25887381Y-204219166D01*
X25935001Y-204314404D01*
X25982620Y-204362023D01*
X26077858Y-204409642D01*
X26220715Y-204409642D01*
X26315953Y-204362023D01*
X26363572Y-204314404D01*
X26411191Y-204219166D01*
X26411191Y-203838214D01*
X25887381Y-205314404D02*
X25887381Y-204838214D01*
X26363572Y-204790595D01*
X26315953Y-204838214D01*
X26268334Y-204933452D01*
X26268334Y-205171547D01*
X26315953Y-205266785D01*
X26363572Y-205314404D01*
X26458810Y-205362023D01*
X26696905Y-205362023D01*
X26792143Y-205314404D01*
X26839762Y-205266785D01*
X26887381Y-205171547D01*
X26887381Y-204933452D01*
X26839762Y-204838214D01*
X26792143Y-204790595D01*
X26887381Y-205838214D02*
X26887381Y-206028690D01*
X26839762Y-206123928D01*
X26792143Y-206171547D01*
X26649286Y-206266785D01*
X26458810Y-206314404D01*
X26077858Y-206314404D01*
X25982620Y-206266785D01*
X25935001Y-206219166D01*
X25887381Y-206123928D01*
X25887381Y-205933452D01*
X25935001Y-205838214D01*
X25982620Y-205790595D01*
X26077858Y-205742976D01*
X26315953Y-205742976D01*
X26411191Y-205790595D01*
X26458810Y-205838214D01*
X26506429Y-205933452D01*
X26506429Y-206123928D01*
X26458810Y-206219166D01*
X26411191Y-206266785D01*
X26315953Y-206314404D01*
X23487858Y-206047379D02*
X23821191Y-205571189D01*
X24059286Y-206047379D02*
X24059286Y-205047379D01*
X23678334Y-205047379D01*
X23583096Y-205094999D01*
X23535477Y-205142618D01*
X23487858Y-205237856D01*
X23487858Y-205380713D01*
X23535477Y-205475951D01*
X23583096Y-205523570D01*
X23678334Y-205571189D01*
X24059286Y-205571189D01*
X22630715Y-205047379D02*
X22821191Y-205047379D01*
X22916429Y-205094999D01*
X22964048Y-205142618D01*
X23059286Y-205285475D01*
X23106905Y-205475951D01*
X23106905Y-205856903D01*
X23059286Y-205952141D01*
X23011667Y-205999760D01*
X22916429Y-206047379D01*
X22725953Y-206047379D01*
X22630715Y-205999760D01*
X22583096Y-205952141D01*
X22535477Y-205856903D01*
X22535477Y-205618808D01*
X22583096Y-205523570D01*
X22630715Y-205475951D01*
X22725953Y-205428332D01*
X22916429Y-205428332D01*
X23011667Y-205475951D01*
X23059286Y-205523570D01*
X23106905Y-205618808D01*
X21916429Y-205047379D02*
X21821191Y-205047379D01*
X21725953Y-205094999D01*
X21678334Y-205142618D01*
X21630715Y-205237856D01*
X21583096Y-205428332D01*
X21583096Y-205666427D01*
X21630715Y-205856903D01*
X21678334Y-205952141D01*
X21725953Y-205999760D01*
X21821191Y-206047379D01*
X21916429Y-206047379D01*
X22011667Y-205999760D01*
X22059286Y-205952141D01*
X22106905Y-205856903D01*
X22154524Y-205666427D01*
X22154524Y-205428332D01*
X22106905Y-205237856D01*
X22059286Y-205142618D01*
X22011667Y-205094999D01*
X21916429Y-205047379D01*
X14157858Y-200327379D02*
X14491191Y-199851189D01*
X14729286Y-200327379D02*
X14729286Y-199327379D01*
X14348334Y-199327379D01*
X14253096Y-199374999D01*
X14205477Y-199422618D01*
X14157858Y-199517856D01*
X14157858Y-199660713D01*
X14205477Y-199755951D01*
X14253096Y-199803570D01*
X14348334Y-199851189D01*
X14729286Y-199851189D01*
X13300715Y-199327379D02*
X13491191Y-199327379D01*
X13586429Y-199374999D01*
X13634048Y-199422618D01*
X13729286Y-199565475D01*
X13776905Y-199755951D01*
X13776905Y-200136903D01*
X13729286Y-200232141D01*
X13681667Y-200279760D01*
X13586429Y-200327379D01*
X13395953Y-200327379D01*
X13300715Y-200279760D01*
X13253096Y-200232141D01*
X13205477Y-200136903D01*
X13205477Y-199898808D01*
X13253096Y-199803570D01*
X13300715Y-199755951D01*
X13395953Y-199708332D01*
X13586429Y-199708332D01*
X13681667Y-199755951D01*
X13729286Y-199803570D01*
X13776905Y-199898808D01*
X12348334Y-199660713D02*
X12348334Y-200327379D01*
X12586429Y-199279760D02*
X12824524Y-199994046D01*
X12205477Y-199994046D01*
X14175357Y-204767379D02*
X14508690Y-204291189D01*
X14746785Y-204767379D02*
X14746785Y-203767379D01*
X14365833Y-203767379D01*
X14270595Y-203814999D01*
X14222976Y-203862618D01*
X14175357Y-203957856D01*
X14175357Y-204100713D01*
X14222976Y-204195951D01*
X14270595Y-204243570D01*
X14365833Y-204291189D01*
X14746785Y-204291189D01*
X13842023Y-203767379D02*
X13175357Y-203767379D01*
X13603928Y-204767379D01*
X12889642Y-203767379D02*
X12270595Y-203767379D01*
X12603928Y-204148332D01*
X12461071Y-204148332D01*
X12365833Y-204195951D01*
X12318214Y-204243570D01*
X12270595Y-204338808D01*
X12270595Y-204576903D01*
X12318214Y-204672141D01*
X12365833Y-204719760D01*
X12461071Y-204767379D01*
X12746785Y-204767379D01*
X12842023Y-204719760D01*
X12889642Y-204672141D01*
X18727858Y-205357378D02*
X19061191Y-204881188D01*
X19299286Y-205357378D02*
X19299286Y-204357378D01*
X18918334Y-204357378D01*
X18823096Y-204404998D01*
X18775477Y-204452617D01*
X18727858Y-204547855D01*
X18727858Y-204690712D01*
X18775477Y-204785950D01*
X18823096Y-204833569D01*
X18918334Y-204881188D01*
X19299286Y-204881188D01*
X18394524Y-204357378D02*
X17727858Y-204357378D01*
X18156429Y-205357378D01*
X16918334Y-204690712D02*
X16918334Y-205357378D01*
X17156429Y-204309759D02*
X17394524Y-205024045D01*
X16775477Y-205024045D01*
X31342381Y-183049641D02*
X30866191Y-182716308D01*
X31342381Y-182478213D02*
X30342381Y-182478213D01*
X30342381Y-182859165D01*
X30390001Y-182954403D01*
X30437620Y-183002022D01*
X30532858Y-183049641D01*
X30675715Y-183049641D01*
X30770953Y-183002022D01*
X30818572Y-182954403D01*
X30866191Y-182859165D01*
X30866191Y-182478213D01*
X30342381Y-183382975D02*
X30342381Y-184049641D01*
X31342381Y-183621070D01*
X30342381Y-184859165D02*
X30342381Y-184668689D01*
X30390001Y-184573451D01*
X30437620Y-184525832D01*
X30580477Y-184430594D01*
X30770953Y-184382975D01*
X31151905Y-184382975D01*
X31247143Y-184430594D01*
X31294762Y-184478213D01*
X31342381Y-184573451D01*
X31342381Y-184763927D01*
X31294762Y-184859165D01*
X31247143Y-184906784D01*
X31151905Y-184954403D01*
X30913810Y-184954403D01*
X30818572Y-184906784D01*
X30770953Y-184859165D01*
X30723334Y-184763927D01*
X30723334Y-184573451D01*
X30770953Y-184478213D01*
X30818572Y-184430594D01*
X30913810Y-184382975D01*
X35122858Y-183602380D02*
X35456191Y-183126190D01*
X35694286Y-183602380D02*
X35694286Y-182602380D01*
X35313334Y-182602380D01*
X35218096Y-182650000D01*
X35170477Y-182697619D01*
X35122858Y-182792857D01*
X35122858Y-182935714D01*
X35170477Y-183030952D01*
X35218096Y-183078571D01*
X35313334Y-183126190D01*
X35694286Y-183126190D01*
X34789524Y-182602380D02*
X34122858Y-182602380D01*
X34551429Y-183602380D01*
X33837143Y-182602380D02*
X33170477Y-182602380D01*
X33599048Y-183602380D01*
X44452857Y-189322380D02*
X44786190Y-188846190D01*
X45024285Y-189322380D02*
X45024285Y-188322380D01*
X44643333Y-188322380D01*
X44548095Y-188370000D01*
X44500476Y-188417619D01*
X44452857Y-188512857D01*
X44452857Y-188655714D01*
X44500476Y-188750952D01*
X44548095Y-188798571D01*
X44643333Y-188846190D01*
X45024285Y-188846190D01*
X43881428Y-188750952D02*
X43976666Y-188703333D01*
X44024285Y-188655714D01*
X44071904Y-188560476D01*
X44071904Y-188512857D01*
X44024285Y-188417619D01*
X43976666Y-188370000D01*
X43881428Y-188322380D01*
X43690952Y-188322380D01*
X43595714Y-188370000D01*
X43548095Y-188417619D01*
X43500476Y-188512857D01*
X43500476Y-188560476D01*
X43548095Y-188655714D01*
X43595714Y-188703333D01*
X43690952Y-188750952D01*
X43881428Y-188750952D01*
X43976666Y-188798571D01*
X44024285Y-188846190D01*
X44071904Y-188941428D01*
X44071904Y-189131904D01*
X44024285Y-189227142D01*
X43976666Y-189274761D01*
X43881428Y-189322380D01*
X43690952Y-189322380D01*
X43595714Y-189274761D01*
X43548095Y-189227142D01*
X43500476Y-189131904D01*
X43500476Y-188941428D01*
X43548095Y-188846190D01*
X43595714Y-188798571D01*
X43690952Y-188750952D01*
X42548095Y-189322380D02*
X43119523Y-189322380D01*
X42833809Y-189322380D02*
X42833809Y-188322380D01*
X42929047Y-188465238D01*
X43024285Y-188560476D01*
X43119523Y-188608095D01*
X44435358Y-184882380D02*
X44768691Y-184406190D01*
X45006786Y-184882380D02*
X45006786Y-183882380D01*
X44625834Y-183882380D01*
X44530596Y-183930000D01*
X44482977Y-183977619D01*
X44435358Y-184072857D01*
X44435358Y-184215714D01*
X44482977Y-184310952D01*
X44530596Y-184358571D01*
X44625834Y-184406190D01*
X45006786Y-184406190D01*
X43959167Y-184882380D02*
X43768691Y-184882380D01*
X43673453Y-184834761D01*
X43625834Y-184787142D01*
X43530596Y-184644285D01*
X43482977Y-184453809D01*
X43482977Y-184072857D01*
X43530596Y-183977619D01*
X43578215Y-183930000D01*
X43673453Y-183882380D01*
X43863929Y-183882380D01*
X43959167Y-183930000D01*
X44006786Y-183977619D01*
X44054405Y-184072857D01*
X44054405Y-184310952D01*
X44006786Y-184406190D01*
X43959167Y-184453809D01*
X43863929Y-184501428D01*
X43673453Y-184501428D01*
X43578215Y-184453809D01*
X43530596Y-184406190D01*
X43482977Y-184310952D01*
X42863929Y-183882380D02*
X42768691Y-183882380D01*
X42673453Y-183930000D01*
X42625834Y-183977619D01*
X42578215Y-184072857D01*
X42530596Y-184263333D01*
X42530596Y-184501428D01*
X42578215Y-184691904D01*
X42625834Y-184787142D01*
X42673453Y-184834761D01*
X42768691Y-184882380D01*
X42863929Y-184882380D01*
X42959167Y-184834761D01*
X43006786Y-184787142D01*
X43054405Y-184691904D01*
X43102024Y-184501428D01*
X43102024Y-184263333D01*
X43054405Y-184072857D01*
X43006786Y-183977619D01*
X42959167Y-183930000D01*
X42863929Y-183882380D01*
X39882857Y-184292381D02*
X40216190Y-183816191D01*
X40454285Y-184292381D02*
X40454285Y-183292381D01*
X40073333Y-183292381D01*
X39978095Y-183340001D01*
X39930476Y-183387620D01*
X39882857Y-183482858D01*
X39882857Y-183625715D01*
X39930476Y-183720953D01*
X39978095Y-183768572D01*
X40073333Y-183816191D01*
X40454285Y-183816191D01*
X39406666Y-184292381D02*
X39216190Y-184292381D01*
X39120952Y-184244762D01*
X39073333Y-184197143D01*
X38978095Y-184054286D01*
X38930476Y-183863810D01*
X38930476Y-183482858D01*
X38978095Y-183387620D01*
X39025714Y-183340001D01*
X39120952Y-183292381D01*
X39311428Y-183292381D01*
X39406666Y-183340001D01*
X39454285Y-183387620D01*
X39501904Y-183482858D01*
X39501904Y-183720953D01*
X39454285Y-183816191D01*
X39406666Y-183863810D01*
X39311428Y-183911429D01*
X39120952Y-183911429D01*
X39025714Y-183863810D01*
X38978095Y-183816191D01*
X38930476Y-183720953D01*
X37978095Y-184292381D02*
X38549523Y-184292381D01*
X38263809Y-184292381D02*
X38263809Y-183292381D01*
X38359047Y-183435239D01*
X38454285Y-183530477D01*
X38549523Y-183578096D01*
X19852380Y-190817142D02*
X19376190Y-190483809D01*
X19852380Y-190245714D02*
X18852380Y-190245714D01*
X18852380Y-190626666D01*
X18900000Y-190721904D01*
X18947619Y-190769523D01*
X19042857Y-190817142D01*
X19185714Y-190817142D01*
X19280952Y-190769523D01*
X19328571Y-190721904D01*
X19376190Y-190626666D01*
X19376190Y-190245714D01*
X19852380Y-191293333D02*
X19852380Y-191483809D01*
X19804761Y-191579047D01*
X19757142Y-191626666D01*
X19614285Y-191721904D01*
X19423809Y-191769523D01*
X19042857Y-191769523D01*
X18947619Y-191721904D01*
X18900000Y-191674285D01*
X18852380Y-191579047D01*
X18852380Y-191388571D01*
X18900000Y-191293333D01*
X18947619Y-191245714D01*
X19042857Y-191198095D01*
X19280952Y-191198095D01*
X19376190Y-191245714D01*
X19423809Y-191293333D01*
X19471428Y-191388571D01*
X19471428Y-191579047D01*
X19423809Y-191674285D01*
X19376190Y-191721904D01*
X19280952Y-191769523D01*
X18852380Y-192102857D02*
X18852380Y-192721904D01*
X19233333Y-192388571D01*
X19233333Y-192531428D01*
X19280952Y-192626666D01*
X19328571Y-192674285D01*
X19423809Y-192721904D01*
X19661904Y-192721904D01*
X19757142Y-192674285D01*
X19804761Y-192626666D01*
X19852380Y-192531428D01*
X19852380Y-192245714D01*
X19804761Y-192150476D01*
X19757142Y-192102857D01*
X19382380Y-182307142D02*
X18906190Y-181973809D01*
X19382380Y-181735714D02*
X18382380Y-181735714D01*
X18382380Y-182116666D01*
X18430000Y-182211904D01*
X18477619Y-182259523D01*
X18572857Y-182307142D01*
X18715714Y-182307142D01*
X18810952Y-182259523D01*
X18858571Y-182211904D01*
X18906190Y-182116666D01*
X18906190Y-181735714D01*
X19382380Y-182783333D02*
X19382380Y-182973809D01*
X19334761Y-183069047D01*
X19287142Y-183116666D01*
X19144285Y-183211904D01*
X18953809Y-183259523D01*
X18572857Y-183259523D01*
X18477619Y-183211904D01*
X18430000Y-183164285D01*
X18382380Y-183069047D01*
X18382380Y-182878571D01*
X18430000Y-182783333D01*
X18477619Y-182735714D01*
X18572857Y-182688095D01*
X18810952Y-182688095D01*
X18906190Y-182735714D01*
X18953809Y-182783333D01*
X19001428Y-182878571D01*
X19001428Y-183069047D01*
X18953809Y-183164285D01*
X18906190Y-183211904D01*
X18810952Y-183259523D01*
X18715714Y-184116666D02*
X19382380Y-184116666D01*
X18334761Y-183878571D02*
X19049047Y-183640476D01*
X19049047Y-184259523D01*
X24012380Y-187917142D02*
X23536190Y-187583809D01*
X24012380Y-187345714D02*
X23012380Y-187345714D01*
X23012380Y-187726666D01*
X23060000Y-187821904D01*
X23107619Y-187869523D01*
X23202857Y-187917142D01*
X23345714Y-187917142D01*
X23440952Y-187869523D01*
X23488571Y-187821904D01*
X23536190Y-187726666D01*
X23536190Y-187345714D01*
X24012380Y-188393333D02*
X24012380Y-188583809D01*
X23964761Y-188679047D01*
X23917142Y-188726666D01*
X23774285Y-188821904D01*
X23583809Y-188869523D01*
X23202857Y-188869523D01*
X23107619Y-188821904D01*
X23060000Y-188774285D01*
X23012380Y-188679047D01*
X23012380Y-188488571D01*
X23060000Y-188393333D01*
X23107619Y-188345714D01*
X23202857Y-188298095D01*
X23440952Y-188298095D01*
X23536190Y-188345714D01*
X23583809Y-188393333D01*
X23631428Y-188488571D01*
X23631428Y-188679047D01*
X23583809Y-188774285D01*
X23536190Y-188821904D01*
X23440952Y-188869523D01*
X23012380Y-189774285D02*
X23012380Y-189298095D01*
X23488571Y-189250476D01*
X23440952Y-189298095D01*
X23393333Y-189393333D01*
X23393333Y-189631428D01*
X23440952Y-189726666D01*
X23488571Y-189774285D01*
X23583809Y-189821904D01*
X23821904Y-189821904D01*
X23917142Y-189774285D01*
X23964761Y-189726666D01*
X24012380Y-189631428D01*
X24012380Y-189393333D01*
X23964761Y-189298095D01*
X23917142Y-189250476D01*
X8852380Y-173337142D02*
X8376190Y-173003809D01*
X8852380Y-172765714D02*
X7852380Y-172765714D01*
X7852380Y-173146666D01*
X7900000Y-173241904D01*
X7947619Y-173289523D01*
X8042857Y-173337142D01*
X8185714Y-173337142D01*
X8280952Y-173289523D01*
X8328571Y-173241904D01*
X8376190Y-173146666D01*
X8376190Y-172765714D01*
X8852380Y-173813333D02*
X8852380Y-174003809D01*
X8804761Y-174099047D01*
X8757142Y-174146666D01*
X8614285Y-174241904D01*
X8423809Y-174289523D01*
X8042857Y-174289523D01*
X7947619Y-174241904D01*
X7900000Y-174194285D01*
X7852380Y-174099047D01*
X7852380Y-173908571D01*
X7900000Y-173813333D01*
X7947619Y-173765714D01*
X8042857Y-173718095D01*
X8280952Y-173718095D01*
X8376190Y-173765714D01*
X8423809Y-173813333D01*
X8471428Y-173908571D01*
X8471428Y-174099047D01*
X8423809Y-174194285D01*
X8376190Y-174241904D01*
X8280952Y-174289523D01*
X7852380Y-175146666D02*
X7852380Y-174956190D01*
X7900000Y-174860952D01*
X7947619Y-174813333D01*
X8090476Y-174718095D01*
X8280952Y-174670476D01*
X8661904Y-174670476D01*
X8757142Y-174718095D01*
X8804761Y-174765714D01*
X8852380Y-174860952D01*
X8852380Y-175051428D01*
X8804761Y-175146666D01*
X8757142Y-175194285D01*
X8661904Y-175241904D01*
X8423809Y-175241904D01*
X8328571Y-175194285D01*
X8280952Y-175146666D01*
X8233333Y-175051428D01*
X8233333Y-174860952D01*
X8280952Y-174765714D01*
X8328571Y-174718095D01*
X8423809Y-174670476D01*
X15162380Y-182357142D02*
X14686190Y-182023809D01*
X15162380Y-181785714D02*
X14162380Y-181785714D01*
X14162380Y-182166666D01*
X14210000Y-182261904D01*
X14257619Y-182309523D01*
X14352857Y-182357142D01*
X14495714Y-182357142D01*
X14590952Y-182309523D01*
X14638571Y-182261904D01*
X14686190Y-182166666D01*
X14686190Y-181785714D01*
X15162380Y-182833333D02*
X15162380Y-183023809D01*
X15114761Y-183119047D01*
X15067142Y-183166666D01*
X14924285Y-183261904D01*
X14733809Y-183309523D01*
X14352857Y-183309523D01*
X14257619Y-183261904D01*
X14210000Y-183214285D01*
X14162380Y-183119047D01*
X14162380Y-182928571D01*
X14210000Y-182833333D01*
X14257619Y-182785714D01*
X14352857Y-182738095D01*
X14590952Y-182738095D01*
X14686190Y-182785714D01*
X14733809Y-182833333D01*
X14781428Y-182928571D01*
X14781428Y-183119047D01*
X14733809Y-183214285D01*
X14686190Y-183261904D01*
X14590952Y-183309523D01*
X14162380Y-183642857D02*
X14162380Y-184309523D01*
X15162380Y-183880952D01*
X6722380Y-173287142D02*
X6246190Y-172953809D01*
X6722380Y-172715714D02*
X5722380Y-172715714D01*
X5722380Y-173096666D01*
X5770000Y-173191904D01*
X5817619Y-173239523D01*
X5912857Y-173287142D01*
X6055714Y-173287142D01*
X6150952Y-173239523D01*
X6198571Y-173191904D01*
X6246190Y-173096666D01*
X6246190Y-172715714D01*
X6722380Y-173763333D02*
X6722380Y-173953809D01*
X6674761Y-174049047D01*
X6627142Y-174096666D01*
X6484285Y-174191904D01*
X6293809Y-174239523D01*
X5912857Y-174239523D01*
X5817619Y-174191904D01*
X5770000Y-174144285D01*
X5722380Y-174049047D01*
X5722380Y-173858571D01*
X5770000Y-173763333D01*
X5817619Y-173715714D01*
X5912857Y-173668095D01*
X6150952Y-173668095D01*
X6246190Y-173715714D01*
X6293809Y-173763333D01*
X6341428Y-173858571D01*
X6341428Y-174049047D01*
X6293809Y-174144285D01*
X6246190Y-174191904D01*
X6150952Y-174239523D01*
X6150952Y-174810952D02*
X6103333Y-174715714D01*
X6055714Y-174668095D01*
X5960476Y-174620476D01*
X5912857Y-174620476D01*
X5817619Y-174668095D01*
X5770000Y-174715714D01*
X5722380Y-174810952D01*
X5722380Y-175001428D01*
X5770000Y-175096666D01*
X5817619Y-175144285D01*
X5912857Y-175191904D01*
X5960476Y-175191904D01*
X6055714Y-175144285D01*
X6103333Y-175096666D01*
X6150952Y-175001428D01*
X6150952Y-174810952D01*
X6198571Y-174715714D01*
X6246190Y-174668095D01*
X6341428Y-174620476D01*
X6531904Y-174620476D01*
X6627142Y-174668095D01*
X6674761Y-174715714D01*
X6722380Y-174810952D01*
X6722380Y-175001428D01*
X6674761Y-175096666D01*
X6627142Y-175144285D01*
X6531904Y-175191904D01*
X6341428Y-175191904D01*
X6246190Y-175144285D01*
X6198571Y-175096666D01*
X6150952Y-175001428D01*
X11087381Y-173332143D02*
X10611191Y-172998810D01*
X11087381Y-172760715D02*
X10087381Y-172760715D01*
X10087381Y-173141667D01*
X10135001Y-173236905D01*
X10182620Y-173284524D01*
X10277858Y-173332143D01*
X10420715Y-173332143D01*
X10515953Y-173284524D01*
X10563572Y-173236905D01*
X10611191Y-173141667D01*
X10611191Y-172760715D01*
X11087381Y-173808334D02*
X11087381Y-173998810D01*
X11039762Y-174094048D01*
X10992143Y-174141667D01*
X10849286Y-174236905D01*
X10658810Y-174284524D01*
X10277858Y-174284524D01*
X10182620Y-174236905D01*
X10135001Y-174189286D01*
X10087381Y-174094048D01*
X10087381Y-173903572D01*
X10135001Y-173808334D01*
X10182620Y-173760715D01*
X10277858Y-173713096D01*
X10515953Y-173713096D01*
X10611191Y-173760715D01*
X10658810Y-173808334D01*
X10706429Y-173903572D01*
X10706429Y-174094048D01*
X10658810Y-174189286D01*
X10611191Y-174236905D01*
X10515953Y-174284524D01*
X11087381Y-174760715D02*
X11087381Y-174951191D01*
X11039762Y-175046429D01*
X10992143Y-175094048D01*
X10849286Y-175189286D01*
X10658810Y-175236905D01*
X10277858Y-175236905D01*
X10182620Y-175189286D01*
X10135001Y-175141667D01*
X10087381Y-175046429D01*
X10087381Y-174855953D01*
X10135001Y-174760715D01*
X10182620Y-174713096D01*
X10277858Y-174665477D01*
X10515953Y-174665477D01*
X10611191Y-174713096D01*
X10658810Y-174760715D01*
X10706429Y-174855953D01*
X10706429Y-175046429D01*
X10658810Y-175141667D01*
X10611191Y-175189286D01*
X10515953Y-175236905D01*
X21612380Y-229020952D02*
X21136190Y-228687619D01*
X21612380Y-228449523D02*
X20612380Y-228449523D01*
X20612380Y-228830476D01*
X20660000Y-228925714D01*
X20707619Y-228973333D01*
X20802857Y-229020952D01*
X20945714Y-229020952D01*
X21040952Y-228973333D01*
X21088571Y-228925714D01*
X21136190Y-228830476D01*
X21136190Y-228449523D01*
X21612380Y-229973333D02*
X21612380Y-229401904D01*
X21612380Y-229687619D02*
X20612380Y-229687619D01*
X20755238Y-229592380D01*
X20850476Y-229497142D01*
X20898095Y-229401904D01*
X21612380Y-230925714D02*
X21612380Y-230354285D01*
X21612380Y-230640000D02*
X20612380Y-230640000D01*
X20755238Y-230544761D01*
X20850476Y-230449523D01*
X20898095Y-230354285D01*
X20612380Y-231544761D02*
X20612380Y-231640000D01*
X20660000Y-231735238D01*
X20707619Y-231782857D01*
X20802857Y-231830476D01*
X20993333Y-231878095D01*
X21231428Y-231878095D01*
X21421904Y-231830476D01*
X21517142Y-231782857D01*
X21564761Y-231735238D01*
X21612380Y-231640000D01*
X21612380Y-231544761D01*
X21564761Y-231449523D01*
X21517142Y-231401904D01*
X21421904Y-231354285D01*
X21231428Y-231306666D01*
X20993333Y-231306666D01*
X20802857Y-231354285D01*
X20707619Y-231401904D01*
X20660000Y-231449523D01*
X20612380Y-231544761D01*
X43832380Y-232773452D02*
X43356190Y-232440119D01*
X43832380Y-232202023D02*
X42832380Y-232202023D01*
X42832380Y-232582976D01*
X42880000Y-232678214D01*
X42927619Y-232725833D01*
X43022857Y-232773452D01*
X43165714Y-232773452D01*
X43260952Y-232725833D01*
X43308571Y-232678214D01*
X43356190Y-232582976D01*
X43356190Y-232202023D01*
X43832380Y-233725833D02*
X43832380Y-233154404D01*
X43832380Y-233440119D02*
X42832380Y-233440119D01*
X42975238Y-233344880D01*
X43070476Y-233249642D01*
X43118095Y-233154404D01*
X43832380Y-234678214D02*
X43832380Y-234106785D01*
X43832380Y-234392500D02*
X42832380Y-234392500D01*
X42975238Y-234297261D01*
X43070476Y-234202023D01*
X43118095Y-234106785D01*
X43832380Y-235630595D02*
X43832380Y-235059166D01*
X43832380Y-235344880D02*
X42832380Y-235344880D01*
X42975238Y-235249642D01*
X43070476Y-235154404D01*
X43118095Y-235059166D01*
X43562380Y-225648453D02*
X43086190Y-225315120D01*
X43562380Y-225077024D02*
X42562380Y-225077024D01*
X42562380Y-225457977D01*
X42610000Y-225553215D01*
X42657619Y-225600834D01*
X42752857Y-225648453D01*
X42895714Y-225648453D01*
X42990952Y-225600834D01*
X43038571Y-225553215D01*
X43086190Y-225457977D01*
X43086190Y-225077024D01*
X43562380Y-226600834D02*
X43562380Y-226029405D01*
X43562380Y-226315120D02*
X42562380Y-226315120D01*
X42705238Y-226219881D01*
X42800476Y-226124643D01*
X42848095Y-226029405D01*
X43562380Y-227553215D02*
X43562380Y-226981786D01*
X43562380Y-227267501D02*
X42562380Y-227267501D01*
X42705238Y-227172262D01*
X42800476Y-227077024D01*
X42848095Y-226981786D01*
X42562380Y-228410358D02*
X42562380Y-228219881D01*
X42610000Y-228124643D01*
X42657619Y-228077024D01*
X42800476Y-227981786D01*
X42990952Y-227934167D01*
X43371904Y-227934167D01*
X43467142Y-227981786D01*
X43514761Y-228029405D01*
X43562380Y-228124643D01*
X43562380Y-228315120D01*
X43514761Y-228410358D01*
X43467142Y-228457977D01*
X43371904Y-228505596D01*
X43133809Y-228505596D01*
X43038571Y-228457977D01*
X42990952Y-228410358D01*
X42943333Y-228315120D01*
X42943333Y-228124643D01*
X42990952Y-228029405D01*
X43038571Y-227981786D01*
X43133809Y-227934167D01*
X43882380Y-218523451D02*
X43406190Y-218190118D01*
X43882380Y-217952022D02*
X42882380Y-217952022D01*
X42882380Y-218332975D01*
X42930000Y-218428213D01*
X42977619Y-218475832D01*
X43072857Y-218523451D01*
X43215714Y-218523451D01*
X43310952Y-218475832D01*
X43358571Y-218428213D01*
X43406190Y-218332975D01*
X43406190Y-217952022D01*
X43882380Y-219475832D02*
X43882380Y-218904403D01*
X43882380Y-219190118D02*
X42882380Y-219190118D01*
X43025238Y-219094879D01*
X43120476Y-218999641D01*
X43168095Y-218904403D01*
X43882380Y-220428213D02*
X43882380Y-219856784D01*
X43882380Y-220142499D02*
X42882380Y-220142499D01*
X43025238Y-220047260D01*
X43120476Y-219952022D01*
X43168095Y-219856784D01*
X42882380Y-220761546D02*
X42882380Y-221428213D01*
X43882380Y-220999641D01*
X-2478095Y-200472380D02*
X-2478095Y-201281904D01*
X-2525714Y-201377142D01*
X-2573333Y-201424761D01*
X-2668571Y-201472380D01*
X-2859047Y-201472380D01*
X-2954285Y-201424761D01*
X-3001904Y-201377142D01*
X-3049523Y-201281904D01*
X-3049523Y-200472380D01*
X-4049523Y-201472380D02*
X-3478095Y-201472380D01*
X-3763809Y-201472380D02*
X-3763809Y-200472380D01*
X-3668571Y-200615238D01*
X-3573333Y-200710476D01*
X-3478095Y-200758095D01*
X35478095Y-200462380D02*
X35478095Y-201271904D01*
X35430476Y-201367142D01*
X35382857Y-201414761D01*
X35287619Y-201462380D01*
X35097142Y-201462380D01*
X35001904Y-201414761D01*
X34954285Y-201367142D01*
X34906666Y-201271904D01*
X34906666Y-200462380D01*
X33906666Y-201462380D02*
X34478095Y-201462380D01*
X34192380Y-201462380D02*
X34192380Y-200462380D01*
X34287619Y-200605238D01*
X34382857Y-200700476D01*
X34478095Y-200748095D01*
X33287619Y-200462380D02*
X33192380Y-200462380D01*
X33097142Y-200510000D01*
X33049523Y-200557619D01*
X33001904Y-200652857D01*
X32954285Y-200843333D01*
X32954285Y-201081428D01*
X33001904Y-201271904D01*
X33049523Y-201367142D01*
X33097142Y-201414761D01*
X33192380Y-201462380D01*
X33287619Y-201462380D01*
X33382857Y-201414761D01*
X33430476Y-201367142D01*
X33478095Y-201271904D01*
X33525714Y-201081428D01*
X33525714Y-200843333D01*
X33478095Y-200652857D01*
X33430476Y-200557619D01*
X33382857Y-200510000D01*
X33287619Y-200462380D01*
X14422380Y-185841904D02*
X15231904Y-185841904D01*
X15327142Y-185889523D01*
X15374761Y-185937142D01*
X15422380Y-186032380D01*
X15422380Y-186222857D01*
X15374761Y-186318095D01*
X15327142Y-186365714D01*
X15231904Y-186413333D01*
X14422380Y-186413333D01*
X15422380Y-187413333D02*
X15422380Y-186841904D01*
X15422380Y-187127619D02*
X14422380Y-187127619D01*
X14565238Y-187032380D01*
X14660476Y-186937142D01*
X14708095Y-186841904D01*
X14422380Y-188318095D02*
X14422380Y-187841904D01*
X14898571Y-187794285D01*
X14850952Y-187841904D01*
X14803333Y-187937142D01*
X14803333Y-188175238D01*
X14850952Y-188270476D01*
X14898571Y-188318095D01*
X14993809Y-188365714D01*
X15231904Y-188365714D01*
X15327142Y-188318095D01*
X15374761Y-188270476D01*
X15422380Y-188175238D01*
X15422380Y-187937142D01*
X15374761Y-187841904D01*
X15327142Y-187794285D01*
X13862380Y-192771904D02*
X14671904Y-192771904D01*
X14767142Y-192819523D01*
X14814761Y-192867142D01*
X14862380Y-192962380D01*
X14862380Y-193152857D01*
X14814761Y-193248095D01*
X14767142Y-193295714D01*
X14671904Y-193343333D01*
X13862380Y-193343333D01*
X13957619Y-193771904D02*
X13910000Y-193819523D01*
X13862380Y-193914761D01*
X13862380Y-194152857D01*
X13910000Y-194248095D01*
X13957619Y-194295714D01*
X14052857Y-194343333D01*
X14148095Y-194343333D01*
X14290952Y-194295714D01*
X14862380Y-193724285D01*
X14862380Y-194343333D01*
X13862380Y-194676666D02*
X13862380Y-195295714D01*
X14243333Y-194962380D01*
X14243333Y-195105238D01*
X14290952Y-195200476D01*
X14338571Y-195248095D01*
X14433809Y-195295714D01*
X14671904Y-195295714D01*
X14767142Y-195248095D01*
X14814761Y-195200476D01*
X14862380Y-195105238D01*
X14862380Y-194819523D01*
X14814761Y-194724285D01*
X14767142Y-194676666D01*
M02*
