G04 #@! TF.GenerationSoftware,KiCad,Pcbnew,5.1.5*
G04 #@! TF.CreationDate,2020-02-20T18:04:15+03:00*
G04 #@! TF.ProjectId,top,746f702e-6b69-4636-9164-5f7063625858,rev?*
G04 #@! TF.SameCoordinates,Original*
G04 #@! TF.FileFunction,Legend,Bot*
G04 #@! TF.FilePolarity,Positive*
%FSLAX46Y46*%
G04 Gerber Fmt 4.6, Leading zero omitted, Abs format (unit mm)*
G04 Created by KiCad (PCBNEW 5.1.5) date 2020-02-20 18:04:15*
%MOMM*%
%LPD*%
G04 APERTURE LIST*
%ADD10C,0.120000*%
%ADD11C,0.150000*%
G04 APERTURE END LIST*
D10*
X136815727Y-107995522D02*
X136585522Y-108225727D01*
X136094478Y-107274273D02*
X135864273Y-107504478D01*
X140545727Y-111985522D02*
X140315522Y-112215727D01*
X139824478Y-111264273D02*
X139594273Y-111494478D01*
X132105522Y-112044273D02*
X132335727Y-112274478D01*
X131384273Y-112765522D02*
X131614478Y-112995727D01*
X103104479Y-112194273D02*
X102874274Y-112424478D01*
X103825728Y-112915522D02*
X103595523Y-113145727D01*
X99315727Y-108645522D02*
X99085522Y-108875727D01*
X98594478Y-107924273D02*
X98364273Y-108154478D01*
X89594274Y-112475522D02*
X89824479Y-112705727D01*
X90315523Y-111754273D02*
X90545728Y-111984478D01*
X101964478Y-122705727D02*
X101734273Y-122475522D01*
X102685727Y-121984478D02*
X102455522Y-121754273D01*
X86017426Y-116138675D02*
X86247631Y-116368880D01*
X86738675Y-115417426D02*
X86968880Y-115647631D01*
X106717631Y-117878880D02*
X106487426Y-117648675D01*
X107438880Y-117157631D02*
X107208675Y-116927426D01*
X91495522Y-123345728D02*
X91725727Y-123115523D01*
X90774273Y-122624479D02*
X91004478Y-122394274D01*
X89198675Y-120792574D02*
X89428880Y-120562369D01*
X88477426Y-120071325D02*
X88707631Y-119841120D01*
X96467631Y-127498880D02*
X96237426Y-127268675D01*
X97188880Y-126777631D02*
X96958675Y-126547426D01*
X105375727Y-119234478D02*
X105145522Y-119004273D01*
X104654478Y-119955727D02*
X104424273Y-119725522D01*
X90412369Y-122018880D02*
X90642574Y-121788675D01*
X89691120Y-121297631D02*
X89921325Y-121067426D01*
X106465727Y-115525522D02*
X106235522Y-115755727D01*
X105744478Y-114804273D02*
X105514273Y-115034478D01*
X91725523Y-110354273D02*
X91955728Y-110584478D01*
X91004274Y-111075522D02*
X91234479Y-111305727D01*
X92044273Y-109975522D02*
X92274478Y-110205727D01*
X92765522Y-109254273D02*
X92995727Y-109484478D01*
X141502779Y-124200000D02*
X141177221Y-124200000D01*
X141502779Y-123180000D02*
X141177221Y-123180000D01*
X91794273Y-123654479D02*
X92024478Y-123424274D01*
X92515522Y-124375728D02*
X92745727Y-124145523D01*
X105714478Y-118905727D02*
X105484273Y-118675522D01*
X106435727Y-118184478D02*
X106205522Y-117954273D01*
X101675727Y-122984479D02*
X101445522Y-122754274D01*
X100954478Y-123705728D02*
X100724273Y-123475523D01*
X102905727Y-112015521D02*
X102675522Y-112245726D01*
X102184478Y-111294272D02*
X101954273Y-111524477D01*
X137785727Y-108975522D02*
X137555522Y-109205727D01*
X137064478Y-108254273D02*
X136834273Y-108484478D01*
X150674273Y-96055522D02*
X150904478Y-96285727D01*
X151395522Y-95334273D02*
X151625727Y-95564478D01*
X95591120Y-106572369D02*
X95821325Y-106802574D01*
X96312369Y-105851120D02*
X96542574Y-106081325D01*
X93411120Y-125077631D02*
X93641325Y-124847426D01*
X94132369Y-125798880D02*
X94362574Y-125568675D01*
X153708880Y-97647631D02*
X153478675Y-97417426D01*
X152987631Y-98368880D02*
X152757426Y-98138675D01*
X152030000Y-121622779D02*
X152030000Y-121297221D01*
X151010000Y-121622779D02*
X151010000Y-121297221D01*
X140854478Y-112254273D02*
X140624273Y-112484478D01*
X141575727Y-112975522D02*
X141345522Y-113205727D01*
X135901120Y-115527631D02*
X136131325Y-115297426D01*
X136622369Y-116248880D02*
X136852574Y-116018675D01*
X102994478Y-121705727D02*
X102764273Y-121475522D01*
X103715727Y-120984478D02*
X103485522Y-120754273D01*
X152200000Y-114512779D02*
X152200000Y-114187221D01*
X151180000Y-114512779D02*
X151180000Y-114187221D01*
X152000000Y-107422779D02*
X152000000Y-107097221D01*
X150980000Y-107422779D02*
X150980000Y-107097221D01*
X97770000Y-91317221D02*
X97770000Y-91642779D01*
X96750000Y-91317221D02*
X96750000Y-91642779D01*
X93660000Y-67602779D02*
X93660000Y-67277221D01*
X92640000Y-67602779D02*
X92640000Y-67277221D01*
X102010000Y-86512779D02*
X102010000Y-86187221D01*
X100990000Y-86512779D02*
X100990000Y-86187221D01*
X102670000Y-78802779D02*
X102670000Y-78477221D01*
X103690000Y-78802779D02*
X103690000Y-78477221D01*
X88410000Y-72447221D02*
X88410000Y-72772779D01*
X89430000Y-72447221D02*
X89430000Y-72772779D01*
X87569999Y-80554721D02*
X87569999Y-80880279D01*
X86549999Y-80554721D02*
X86549999Y-80880279D01*
X103814721Y-90710000D02*
X104140279Y-90710000D01*
X103814721Y-91730000D02*
X104140279Y-91730000D01*
X86222779Y-67760000D02*
X85897221Y-67760000D01*
X86222779Y-68780000D02*
X85897221Y-68780000D01*
X101057221Y-80540000D02*
X101382779Y-80540000D01*
X101057221Y-81560000D02*
X101382779Y-81560000D01*
X89352778Y-77360000D02*
X89027220Y-77360000D01*
X89352778Y-78380000D02*
X89027220Y-78380000D01*
X98590000Y-84257221D02*
X98590000Y-84582779D01*
X99610000Y-84257221D02*
X99610000Y-84582779D01*
X90589999Y-74662779D02*
X90589999Y-74337221D01*
X91609999Y-74662779D02*
X91609999Y-74337221D01*
X138985001Y-90472222D02*
X138985001Y-90797780D01*
X140005001Y-90472222D02*
X140005001Y-90797780D01*
X134875001Y-66757780D02*
X134875001Y-66432222D01*
X135895001Y-66757780D02*
X135895001Y-66432222D01*
X143225001Y-85667780D02*
X143225001Y-85342222D01*
X144245001Y-85667780D02*
X144245001Y-85342222D01*
X144905001Y-77957780D02*
X144905001Y-77632222D01*
X145925001Y-77957780D02*
X145925001Y-77632222D01*
X131665001Y-71602222D02*
X131665001Y-71927780D01*
X130645001Y-71602222D02*
X130645001Y-71927780D01*
X128785000Y-79709722D02*
X128785000Y-80035280D01*
X129805000Y-79709722D02*
X129805000Y-80035280D01*
X146049722Y-89865001D02*
X146375280Y-89865001D01*
X146049722Y-90885001D02*
X146375280Y-90885001D01*
X128457780Y-66915001D02*
X128132222Y-66915001D01*
X128457780Y-67935001D02*
X128132222Y-67935001D01*
X143292222Y-80715001D02*
X143617780Y-80715001D01*
X143292222Y-79695001D02*
X143617780Y-79695001D01*
X131587779Y-76515001D02*
X131262221Y-76515001D01*
X131587779Y-77535001D02*
X131262221Y-77535001D01*
X141845001Y-83412222D02*
X141845001Y-83737780D01*
X140825001Y-83412222D02*
X140825001Y-83737780D01*
X132825000Y-73817780D02*
X132825000Y-73492222D01*
X133845000Y-73817780D02*
X133845000Y-73492222D01*
X140540000Y-98972779D02*
X140540000Y-98647221D01*
X139520000Y-98972779D02*
X139520000Y-98647221D01*
X152020000Y-124227221D02*
X152020000Y-124552779D01*
X151000000Y-124227221D02*
X151000000Y-124552779D01*
X152190000Y-117097221D02*
X152190000Y-117422779D01*
X151170000Y-117097221D02*
X151170000Y-117422779D01*
X150990000Y-110017221D02*
X150990000Y-110342779D01*
X152010000Y-110017221D02*
X152010000Y-110342779D01*
X98170000Y-91317221D02*
X98170000Y-91642779D01*
X99190000Y-91317221D02*
X99190000Y-91642779D01*
X92240000Y-67602779D02*
X92240000Y-67277221D01*
X91220000Y-67602779D02*
X91220000Y-67277221D01*
X95390000Y-87867221D02*
X95390000Y-88192779D01*
X96410000Y-87867221D02*
X96410000Y-88192779D01*
X94779999Y-71032779D02*
X94779999Y-70707221D01*
X93759999Y-71032779D02*
X93759999Y-70707221D01*
X103804721Y-89270000D02*
X104130279Y-89270000D01*
X103804721Y-90290000D02*
X104130279Y-90290000D01*
X86242779Y-70240000D02*
X85917221Y-70240000D01*
X86242779Y-69220000D02*
X85917221Y-69220000D01*
X106680000Y-86687221D02*
X106680000Y-87012779D01*
X105660000Y-86687221D02*
X105660000Y-87012779D01*
X82840000Y-72372779D02*
X82840000Y-72047221D01*
X83860000Y-72372779D02*
X83860000Y-72047221D01*
X103950000Y-83077221D02*
X103950000Y-83402779D01*
X102930000Y-83077221D02*
X102930000Y-83402779D01*
X87450000Y-75812779D02*
X87450000Y-75487221D01*
X86430000Y-75812779D02*
X86430000Y-75487221D01*
X101047221Y-81940000D02*
X101372779Y-81940000D01*
X101047221Y-82960000D02*
X101372779Y-82960000D01*
X89342779Y-76960000D02*
X89017221Y-76960000D01*
X89342779Y-75940000D02*
X89017221Y-75940000D01*
X99360000Y-77792779D02*
X99360000Y-77467221D01*
X98340000Y-77792779D02*
X98340000Y-77467221D01*
X91980000Y-81507221D02*
X91980000Y-81832779D01*
X90960000Y-81507221D02*
X90960000Y-81832779D01*
X140405001Y-90472222D02*
X140405001Y-90797780D01*
X141425001Y-90472222D02*
X141425001Y-90797780D01*
X133455001Y-66757780D02*
X133455001Y-66432222D01*
X134475001Y-66757780D02*
X134475001Y-66432222D01*
X137625001Y-87022222D02*
X137625001Y-87347780D01*
X138645001Y-87022222D02*
X138645001Y-87347780D01*
X137015000Y-70187780D02*
X137015000Y-69862222D01*
X135995000Y-70187780D02*
X135995000Y-69862222D01*
X146039722Y-88425001D02*
X146365280Y-88425001D01*
X146039722Y-89445001D02*
X146365280Y-89445001D01*
X128477780Y-69395001D02*
X128152222Y-69395001D01*
X128477780Y-68375001D02*
X128152222Y-68375001D01*
X148915001Y-85842222D02*
X148915001Y-86167780D01*
X147895001Y-85842222D02*
X147895001Y-86167780D01*
X126095001Y-71527780D02*
X126095001Y-71202222D01*
X125075001Y-71527780D02*
X125075001Y-71202222D01*
X146185001Y-82232222D02*
X146185001Y-82557780D01*
X145165001Y-82232222D02*
X145165001Y-82557780D01*
X128665001Y-74967780D02*
X128665001Y-74642222D01*
X129685001Y-74967780D02*
X129685001Y-74642222D01*
X143282222Y-82115001D02*
X143607780Y-82115001D01*
X143282222Y-81095001D02*
X143607780Y-81095001D01*
X131577780Y-75095001D02*
X131252222Y-75095001D01*
X131577780Y-76115001D02*
X131252222Y-76115001D01*
X141595001Y-76947780D02*
X141595001Y-76622222D01*
X140575001Y-76947780D02*
X140575001Y-76622222D01*
X134215001Y-80662222D02*
X134215001Y-80987780D01*
X133195001Y-80662222D02*
X133195001Y-80987780D01*
X150557107Y-103935483D02*
X144970963Y-98349340D01*
X144970963Y-98349340D02*
X148789340Y-94530963D01*
X148789340Y-94530963D02*
X154375483Y-100117107D01*
D11*
X135020389Y-109614687D02*
X135087732Y-109614687D01*
X135222419Y-109547343D01*
X135289763Y-109480000D01*
X135357106Y-109345312D01*
X135357106Y-109210625D01*
X135323435Y-109109610D01*
X135222419Y-108941251D01*
X135121404Y-108840236D01*
X134953045Y-108739221D01*
X134852030Y-108705549D01*
X134717343Y-108705549D01*
X134582656Y-108772893D01*
X134515312Y-108840236D01*
X134447969Y-108974923D01*
X134447969Y-109042267D01*
X134414297Y-110355465D02*
X134818358Y-109951404D01*
X134616328Y-110153435D02*
X133909221Y-109446328D01*
X134077580Y-109480000D01*
X134212267Y-109480000D01*
X134313282Y-109446328D01*
X139429226Y-110863524D02*
X139496569Y-110863524D01*
X139631256Y-110796180D01*
X139698600Y-110728837D01*
X139765943Y-110594149D01*
X139765943Y-110459462D01*
X139732272Y-110358447D01*
X139631256Y-110190088D01*
X139530241Y-110089073D01*
X139361882Y-109988058D01*
X139260867Y-109954386D01*
X139126180Y-109954386D01*
X138991493Y-110021730D01*
X138924149Y-110089073D01*
X138856806Y-110223760D01*
X138856806Y-110291104D01*
X138587432Y-110560478D02*
X138520088Y-110560478D01*
X138419073Y-110594149D01*
X138250714Y-110762508D01*
X138217043Y-110863524D01*
X138217043Y-110930867D01*
X138250714Y-111031882D01*
X138318058Y-111099226D01*
X138452745Y-111166569D01*
X139260867Y-111166569D01*
X138823134Y-111604302D01*
X130714149Y-113901552D02*
X130714149Y-113968895D01*
X130781493Y-114103582D01*
X130848837Y-114170926D01*
X130983524Y-114238269D01*
X131118211Y-114238269D01*
X131219226Y-114204598D01*
X131387585Y-114103582D01*
X131488600Y-114002567D01*
X131589615Y-113834208D01*
X131623287Y-113733193D01*
X131623287Y-113598506D01*
X131555943Y-113463819D01*
X131488600Y-113396475D01*
X131353913Y-113329132D01*
X131286569Y-113329132D01*
X131118211Y-113026086D02*
X130680478Y-112588353D01*
X130646806Y-113093430D01*
X130545791Y-112992414D01*
X130444775Y-112958743D01*
X130377432Y-112958743D01*
X130276417Y-112992414D01*
X130108058Y-113160773D01*
X130074386Y-113261788D01*
X130074386Y-113329132D01*
X130108058Y-113430147D01*
X130310088Y-113632178D01*
X130411104Y-113665850D01*
X130478447Y-113665850D01*
X102010390Y-114704686D02*
X102077733Y-114704686D01*
X102212420Y-114637342D01*
X102279764Y-114569999D01*
X102347107Y-114435311D01*
X102347107Y-114300624D01*
X102313436Y-114199609D01*
X102212420Y-114031250D01*
X102111405Y-113930235D01*
X101943046Y-113829220D01*
X101842031Y-113795548D01*
X101707344Y-113795548D01*
X101572657Y-113862892D01*
X101505313Y-113930235D01*
X101437970Y-114064922D01*
X101437970Y-114132266D01*
X101000237Y-114906716D02*
X101471642Y-115378121D01*
X100899222Y-114468983D02*
X101572657Y-114805701D01*
X101134924Y-115243434D01*
X97290389Y-110344687D02*
X97357732Y-110344687D01*
X97492419Y-110277343D01*
X97559763Y-110210000D01*
X97627106Y-110075312D01*
X97627106Y-109940625D01*
X97593435Y-109839610D01*
X97492419Y-109671251D01*
X97391404Y-109570236D01*
X97223045Y-109469221D01*
X97122030Y-109435549D01*
X96987343Y-109435549D01*
X96852656Y-109502893D01*
X96785312Y-109570236D01*
X96717969Y-109704923D01*
X96717969Y-109772267D01*
X96010862Y-110344687D02*
X96347580Y-110007969D01*
X96717969Y-110311015D01*
X96650625Y-110311015D01*
X96549610Y-110344687D01*
X96381251Y-110513045D01*
X96347580Y-110614061D01*
X96347580Y-110681404D01*
X96381251Y-110782419D01*
X96549610Y-110950778D01*
X96650625Y-110984450D01*
X96717969Y-110984450D01*
X96818984Y-110950778D01*
X96987343Y-110782419D01*
X97021015Y-110681404D01*
X97021015Y-110614061D01*
X91848466Y-114403542D02*
X91848466Y-114470885D01*
X91915810Y-114605572D01*
X91983154Y-114672916D01*
X92117841Y-114740259D01*
X92252528Y-114740259D01*
X92353543Y-114706588D01*
X92521902Y-114605572D01*
X92622917Y-114504557D01*
X92723932Y-114336198D01*
X92757604Y-114235183D01*
X92757604Y-114100496D01*
X92690260Y-113965809D01*
X92622917Y-113898465D01*
X92488230Y-113831122D01*
X92420886Y-113831122D01*
X91882138Y-113157687D02*
X92016825Y-113292374D01*
X92050497Y-113393389D01*
X92050497Y-113460733D01*
X92016825Y-113629091D01*
X91915810Y-113797450D01*
X91646436Y-114066824D01*
X91545421Y-114100496D01*
X91478077Y-114100496D01*
X91377062Y-114066824D01*
X91242375Y-113932137D01*
X91208703Y-113831122D01*
X91208703Y-113763778D01*
X91242375Y-113662763D01*
X91410734Y-113494404D01*
X91511749Y-113460733D01*
X91579092Y-113460733D01*
X91680108Y-113494404D01*
X91814795Y-113629091D01*
X91848466Y-113730107D01*
X91848466Y-113797450D01*
X91814795Y-113898465D01*
X100345312Y-120750389D02*
X100345312Y-120817732D01*
X100412656Y-120952419D01*
X100480000Y-121019763D01*
X100614687Y-121087106D01*
X100749374Y-121087106D01*
X100850389Y-121053435D01*
X101018748Y-120952419D01*
X101119763Y-120851404D01*
X101220778Y-120683045D01*
X101254450Y-120582030D01*
X101254450Y-120447343D01*
X101187106Y-120312656D01*
X101119763Y-120245312D01*
X100985076Y-120177969D01*
X100917732Y-120177969D01*
X100749374Y-119874923D02*
X100277969Y-119403519D01*
X99873908Y-120413671D01*
X88305312Y-117920389D02*
X88305312Y-117987732D01*
X88372656Y-118122419D01*
X88440000Y-118189763D01*
X88574687Y-118257106D01*
X88709374Y-118257106D01*
X88810389Y-118223435D01*
X88978748Y-118122419D01*
X89079763Y-118021404D01*
X89180778Y-117853045D01*
X89214450Y-117752030D01*
X89214450Y-117617343D01*
X89147106Y-117482656D01*
X89079763Y-117415312D01*
X88945076Y-117347969D01*
X88877732Y-117347969D01*
X88237969Y-117179610D02*
X88338984Y-117213282D01*
X88406328Y-117213282D01*
X88507343Y-117179610D01*
X88541015Y-117145938D01*
X88574687Y-117044923D01*
X88574687Y-116977580D01*
X88541015Y-116876564D01*
X88406328Y-116741877D01*
X88305312Y-116708206D01*
X88237969Y-116708206D01*
X88136954Y-116741877D01*
X88103282Y-116775549D01*
X88069610Y-116876564D01*
X88069610Y-116943908D01*
X88103282Y-117044923D01*
X88237969Y-117179610D01*
X88271641Y-117280625D01*
X88271641Y-117347969D01*
X88237969Y-117448984D01*
X88103282Y-117583671D01*
X88002267Y-117617343D01*
X87934923Y-117617343D01*
X87833908Y-117583671D01*
X87699221Y-117448984D01*
X87665549Y-117347969D01*
X87665549Y-117280625D01*
X87699221Y-117179610D01*
X87833908Y-117044923D01*
X87934923Y-117011251D01*
X88002267Y-117011251D01*
X88103282Y-117044923D01*
X107839628Y-116762379D02*
X107839628Y-116829722D01*
X107906972Y-116964409D01*
X107974316Y-117031753D01*
X108109003Y-117099096D01*
X108243690Y-117099096D01*
X108344705Y-117065425D01*
X108513064Y-116964409D01*
X108614079Y-116863394D01*
X108715094Y-116695035D01*
X108748766Y-116594020D01*
X108748766Y-116459333D01*
X108681422Y-116324646D01*
X108614079Y-116257302D01*
X108479392Y-116189959D01*
X108412048Y-116189959D01*
X107435567Y-116493005D02*
X107300880Y-116358318D01*
X107267209Y-116257302D01*
X107267209Y-116189959D01*
X107300880Y-116021600D01*
X107401896Y-115853241D01*
X107671270Y-115583867D01*
X107772285Y-115550196D01*
X107839628Y-115550196D01*
X107940644Y-115583867D01*
X108075331Y-115718554D01*
X108109003Y-115819570D01*
X108109003Y-115886913D01*
X108075331Y-115987928D01*
X107906972Y-116156287D01*
X107805957Y-116189959D01*
X107738613Y-116189959D01*
X107637598Y-116156287D01*
X107502911Y-116021600D01*
X107469239Y-115920585D01*
X107469239Y-115853241D01*
X107502911Y-115752226D01*
X94017106Y-120507970D02*
X94084450Y-120507970D01*
X94219137Y-120440626D01*
X94286480Y-120373283D01*
X94353824Y-120238596D01*
X94353824Y-120103909D01*
X94320152Y-120002894D01*
X94219137Y-119834535D01*
X94118122Y-119733520D01*
X93949763Y-119632504D01*
X93848748Y-119598833D01*
X93714061Y-119598833D01*
X93579374Y-119666176D01*
X93512030Y-119733520D01*
X93444687Y-119868207D01*
X93444687Y-119935550D01*
X93411015Y-121248749D02*
X93815076Y-120844688D01*
X93613045Y-121046718D02*
X92905938Y-120339611D01*
X93074297Y-120373283D01*
X93208984Y-120373283D01*
X93310000Y-120339611D01*
X92266175Y-120979375D02*
X92198832Y-121046718D01*
X92165160Y-121147733D01*
X92165160Y-121215077D01*
X92198832Y-121316092D01*
X92299847Y-121484451D01*
X92468206Y-121652810D01*
X92636564Y-121753825D01*
X92737580Y-121787497D01*
X92804923Y-121787497D01*
X92905938Y-121753825D01*
X92973282Y-121686481D01*
X93006954Y-121585466D01*
X93006954Y-121518123D01*
X92973282Y-121417107D01*
X92872267Y-121248749D01*
X92703908Y-121080390D01*
X92535549Y-120979375D01*
X92434534Y-120945703D01*
X92367190Y-120945703D01*
X92266175Y-120979375D01*
X91717105Y-117977969D02*
X91784449Y-117977969D01*
X91919136Y-117910625D01*
X91986479Y-117843282D01*
X92053823Y-117708595D01*
X92053823Y-117573908D01*
X92020151Y-117472893D01*
X91919136Y-117304534D01*
X91818121Y-117203519D01*
X91649762Y-117102503D01*
X91548747Y-117068832D01*
X91414060Y-117068832D01*
X91279373Y-117136175D01*
X91212029Y-117203519D01*
X91144686Y-117338206D01*
X91144686Y-117405549D01*
X91111014Y-118718748D02*
X91515075Y-118314687D01*
X91313044Y-118516717D02*
X90605937Y-117809610D01*
X90774296Y-117843282D01*
X90908983Y-117843282D01*
X91009999Y-117809610D01*
X90437579Y-119392183D02*
X90841640Y-118988122D01*
X90639609Y-119190152D02*
X89932502Y-118483045D01*
X90100861Y-118516717D01*
X90235548Y-118516717D01*
X90336563Y-118483045D01*
X97926346Y-126719096D02*
X97926346Y-126786440D01*
X97993690Y-126921127D01*
X98061033Y-126988470D01*
X98195720Y-127055814D01*
X98330407Y-127055814D01*
X98431422Y-127022142D01*
X98599781Y-126921127D01*
X98700796Y-126820112D01*
X98801812Y-126651753D01*
X98835483Y-126550738D01*
X98835483Y-126416051D01*
X98768140Y-126281364D01*
X98700796Y-126214020D01*
X98566109Y-126146677D01*
X98498766Y-126146677D01*
X97185567Y-126113005D02*
X97589628Y-126517066D01*
X97387598Y-126315035D02*
X98094705Y-125607928D01*
X98061033Y-125776287D01*
X98061033Y-125910974D01*
X98094705Y-126011990D01*
X97555957Y-125203867D02*
X97555957Y-125136524D01*
X97522285Y-125035509D01*
X97353926Y-124867150D01*
X97252911Y-124833478D01*
X97185567Y-124833478D01*
X97084552Y-124867150D01*
X97017209Y-124934493D01*
X96949865Y-125069180D01*
X96949865Y-125877302D01*
X96512132Y-125439570D01*
X102982030Y-117997106D02*
X102982030Y-118064450D01*
X103049374Y-118199137D01*
X103116717Y-118266480D01*
X103251404Y-118333824D01*
X103386091Y-118333824D01*
X103487106Y-118300152D01*
X103655465Y-118199137D01*
X103756480Y-118098122D01*
X103857496Y-117929763D01*
X103891167Y-117828748D01*
X103891167Y-117694061D01*
X103823824Y-117559374D01*
X103756480Y-117492030D01*
X103621793Y-117424687D01*
X103554450Y-117424687D01*
X102241251Y-117391015D02*
X102645312Y-117795076D01*
X102443282Y-117593045D02*
X103150389Y-116885938D01*
X103116717Y-117054297D01*
X103116717Y-117188984D01*
X103150389Y-117290000D01*
X102712656Y-116448206D02*
X102274923Y-116010473D01*
X102241251Y-116515549D01*
X102140236Y-116414534D01*
X102039221Y-116380862D01*
X101971877Y-116380862D01*
X101870862Y-116414534D01*
X101702503Y-116582893D01*
X101668832Y-116683908D01*
X101668832Y-116751251D01*
X101702503Y-116852267D01*
X101904534Y-117054297D01*
X102005549Y-117087969D01*
X102072893Y-117087969D01*
X93017106Y-119217969D02*
X93084450Y-119217969D01*
X93219137Y-119150625D01*
X93286480Y-119083282D01*
X93353824Y-118948595D01*
X93353824Y-118813908D01*
X93320152Y-118712893D01*
X93219137Y-118544534D01*
X93118122Y-118443519D01*
X92949763Y-118342503D01*
X92848748Y-118308832D01*
X92714061Y-118308832D01*
X92579374Y-118376175D01*
X92512030Y-118443519D01*
X92444687Y-118578206D01*
X92444687Y-118645549D01*
X92411015Y-119958748D02*
X92815076Y-119554687D01*
X92613045Y-119756717D02*
X91905938Y-119049610D01*
X92074297Y-119083282D01*
X92208984Y-119083282D01*
X92310000Y-119049610D01*
X91333519Y-120093435D02*
X91804923Y-120564839D01*
X91232503Y-119655702D02*
X91905938Y-119992419D01*
X91468206Y-120430152D01*
X105767106Y-113977969D02*
X105834450Y-113977969D01*
X105969137Y-113910625D01*
X106036480Y-113843282D01*
X106103824Y-113708595D01*
X106103824Y-113573908D01*
X106070152Y-113472893D01*
X105969137Y-113304534D01*
X105868122Y-113203519D01*
X105699763Y-113102503D01*
X105598748Y-113068832D01*
X105464061Y-113068832D01*
X105329374Y-113136175D01*
X105262030Y-113203519D01*
X105194687Y-113338206D01*
X105194687Y-113405549D01*
X105161015Y-114718748D02*
X105565076Y-114314687D01*
X105363045Y-114516717D02*
X104655938Y-113809610D01*
X104824297Y-113843282D01*
X104958984Y-113843282D01*
X105060000Y-113809610D01*
X103814145Y-114651404D02*
X104150862Y-114314687D01*
X104521251Y-114617732D01*
X104453908Y-114617732D01*
X104352893Y-114651404D01*
X104184534Y-114819763D01*
X104150862Y-114920778D01*
X104150862Y-114988122D01*
X104184534Y-115089137D01*
X104352893Y-115257496D01*
X104453908Y-115291167D01*
X104521251Y-115291167D01*
X104622267Y-115257496D01*
X104790625Y-115089137D01*
X104824297Y-114988122D01*
X104824297Y-114920778D01*
X93862031Y-113697106D02*
X93862031Y-113764450D01*
X93929375Y-113899137D01*
X93996718Y-113966480D01*
X94131405Y-114033824D01*
X94266092Y-114033824D01*
X94367107Y-114000152D01*
X94535466Y-113899137D01*
X94636481Y-113798122D01*
X94737497Y-113629763D01*
X94771168Y-113528748D01*
X94771168Y-113394061D01*
X94703825Y-113259374D01*
X94636481Y-113192030D01*
X94501794Y-113124687D01*
X94434451Y-113124687D01*
X93121252Y-113091015D02*
X93525313Y-113495076D01*
X93323283Y-113293045D02*
X94030390Y-112585938D01*
X93996718Y-112754297D01*
X93996718Y-112888984D01*
X94030390Y-112990000D01*
X93222268Y-111777816D02*
X93356955Y-111912503D01*
X93390626Y-112013519D01*
X93390626Y-112080862D01*
X93356955Y-112249221D01*
X93255939Y-112417580D01*
X92986565Y-112686954D01*
X92885550Y-112720625D01*
X92818207Y-112720625D01*
X92717191Y-112686954D01*
X92582504Y-112552267D01*
X92548833Y-112451251D01*
X92548833Y-112383908D01*
X92582504Y-112282893D01*
X92750863Y-112114534D01*
X92851878Y-112080862D01*
X92919222Y-112080862D01*
X93020237Y-112114534D01*
X93154924Y-112249221D01*
X93188596Y-112350236D01*
X93188596Y-112417580D01*
X93154924Y-112518595D01*
X94862030Y-112487105D02*
X94862030Y-112554449D01*
X94929374Y-112689136D01*
X94996717Y-112756479D01*
X95131404Y-112823823D01*
X95266091Y-112823823D01*
X95367106Y-112790151D01*
X95535465Y-112689136D01*
X95636480Y-112588121D01*
X95737496Y-112419762D01*
X95771167Y-112318747D01*
X95771167Y-112184060D01*
X95703824Y-112049373D01*
X95636480Y-111982029D01*
X95501793Y-111914686D01*
X95434450Y-111914686D01*
X94121251Y-111881014D02*
X94525312Y-112285075D01*
X94323282Y-112083044D02*
X95030389Y-111375937D01*
X94996717Y-111544296D01*
X94996717Y-111678983D01*
X95030389Y-111779999D01*
X94592656Y-110938205D02*
X94121251Y-110466800D01*
X93717190Y-111476953D01*
X141865261Y-122519791D02*
X141912880Y-122567410D01*
X142055737Y-122615029D01*
X142150975Y-122615029D01*
X142293832Y-122567410D01*
X142389070Y-122472172D01*
X142436689Y-122376934D01*
X142484308Y-122186458D01*
X142484308Y-122043601D01*
X142436689Y-121853125D01*
X142389070Y-121757887D01*
X142293832Y-121662649D01*
X142150975Y-121615029D01*
X142055737Y-121615029D01*
X141912880Y-121662649D01*
X141865261Y-121710268D01*
X140912880Y-122615029D02*
X141484308Y-122615029D01*
X141198594Y-122615029D02*
X141198594Y-121615029D01*
X141293832Y-121757887D01*
X141389070Y-121853125D01*
X141484308Y-121900744D01*
X140341451Y-122043601D02*
X140436689Y-121995982D01*
X140484308Y-121948363D01*
X140531927Y-121853125D01*
X140531927Y-121805506D01*
X140484308Y-121710268D01*
X140436689Y-121662649D01*
X140341451Y-121615029D01*
X140150975Y-121615029D01*
X140055737Y-121662649D01*
X140008118Y-121710268D01*
X139960499Y-121805506D01*
X139960499Y-121853125D01*
X140008118Y-121948363D01*
X140055737Y-121995982D01*
X140150975Y-122043601D01*
X140341451Y-122043601D01*
X140436689Y-122091220D01*
X140484308Y-122138839D01*
X140531927Y-122234077D01*
X140531927Y-122424553D01*
X140484308Y-122519791D01*
X140436689Y-122567410D01*
X140341451Y-122615029D01*
X140150975Y-122615029D01*
X140055737Y-122567410D01*
X140008118Y-122519791D01*
X139960499Y-122424553D01*
X139960499Y-122234077D01*
X140008118Y-122138839D01*
X140055737Y-122091220D01*
X140150975Y-122043601D01*
X95067106Y-121537970D02*
X95134450Y-121537970D01*
X95269137Y-121470626D01*
X95336480Y-121403283D01*
X95403824Y-121268596D01*
X95403824Y-121133909D01*
X95370152Y-121032894D01*
X95269137Y-120864535D01*
X95168122Y-120763520D01*
X94999763Y-120662504D01*
X94898748Y-120628833D01*
X94764061Y-120628833D01*
X94629374Y-120696176D01*
X94562030Y-120763520D01*
X94494687Y-120898207D01*
X94494687Y-120965550D01*
X94461015Y-122278749D02*
X94865076Y-121874688D01*
X94663045Y-122076718D02*
X93955938Y-121369611D01*
X94124297Y-121403283D01*
X94258984Y-121403283D01*
X94360000Y-121369611D01*
X94124297Y-122615466D02*
X93989610Y-122750153D01*
X93888595Y-122783825D01*
X93821251Y-122783825D01*
X93652893Y-122750153D01*
X93484534Y-122649138D01*
X93215160Y-122379764D01*
X93181488Y-122278749D01*
X93181488Y-122211405D01*
X93215160Y-122110390D01*
X93349847Y-121975703D01*
X93450862Y-121942031D01*
X93518206Y-121942031D01*
X93619221Y-121975703D01*
X93787580Y-122144062D01*
X93821251Y-122245077D01*
X93821251Y-122312420D01*
X93787580Y-122413436D01*
X93652893Y-122548123D01*
X93551877Y-122581794D01*
X93484534Y-122581794D01*
X93383519Y-122548123D01*
X104002030Y-117047106D02*
X104002030Y-117114450D01*
X104069374Y-117249137D01*
X104136717Y-117316480D01*
X104271404Y-117383824D01*
X104406091Y-117383824D01*
X104507106Y-117350152D01*
X104675465Y-117249137D01*
X104776480Y-117148122D01*
X104877496Y-116979763D01*
X104911167Y-116878748D01*
X104911167Y-116744061D01*
X104843824Y-116609374D01*
X104776480Y-116542030D01*
X104641793Y-116474687D01*
X104574450Y-116474687D01*
X104305076Y-116205312D02*
X104305076Y-116137969D01*
X104271404Y-116036954D01*
X104103045Y-115868595D01*
X104002030Y-115834923D01*
X103934687Y-115834923D01*
X103833671Y-115868595D01*
X103766328Y-115935938D01*
X103698984Y-116070625D01*
X103698984Y-116878748D01*
X103261251Y-116441015D01*
X103530625Y-115296175D02*
X103463282Y-115228832D01*
X103362267Y-115195160D01*
X103294923Y-115195160D01*
X103193908Y-115228832D01*
X103025549Y-115329847D01*
X102857190Y-115498206D01*
X102756175Y-115666564D01*
X102722503Y-115767580D01*
X102722503Y-115834923D01*
X102756175Y-115935938D01*
X102823519Y-116003282D01*
X102924534Y-116036954D01*
X102991877Y-116036954D01*
X103092893Y-116003282D01*
X103261251Y-115902267D01*
X103429610Y-115733908D01*
X103530625Y-115565549D01*
X103564297Y-115464534D01*
X103564297Y-115397190D01*
X103530625Y-115296175D01*
X99342030Y-121937106D02*
X99342030Y-122004450D01*
X99409374Y-122139137D01*
X99476717Y-122206480D01*
X99611404Y-122273824D01*
X99746091Y-122273824D01*
X99847106Y-122240152D01*
X100015465Y-122139137D01*
X100116480Y-122038122D01*
X100217496Y-121869763D01*
X100251167Y-121768748D01*
X100251167Y-121634061D01*
X100183824Y-121499374D01*
X100116480Y-121432030D01*
X99981793Y-121364687D01*
X99914450Y-121364687D01*
X99645076Y-121095312D02*
X99645076Y-121027969D01*
X99611404Y-120926954D01*
X99443045Y-120758595D01*
X99342030Y-120724923D01*
X99274687Y-120724923D01*
X99173671Y-120758595D01*
X99106328Y-120825938D01*
X99038984Y-120960625D01*
X99038984Y-121768748D01*
X98601251Y-121331015D01*
X97927816Y-120657580D02*
X98331877Y-121061641D01*
X98129847Y-120859610D02*
X98836954Y-120152503D01*
X98803282Y-120320862D01*
X98803282Y-120455549D01*
X98836954Y-120556564D01*
X100977106Y-113687968D02*
X101044450Y-113687968D01*
X101179137Y-113620624D01*
X101246480Y-113553281D01*
X101313824Y-113418594D01*
X101313824Y-113283907D01*
X101280152Y-113182892D01*
X101179137Y-113014533D01*
X101078122Y-112913518D01*
X100909763Y-112812502D01*
X100808748Y-112778831D01*
X100674061Y-112778831D01*
X100539374Y-112846174D01*
X100472030Y-112913518D01*
X100404687Y-113048205D01*
X100404687Y-113115548D01*
X100135312Y-113384922D02*
X100067969Y-113384922D01*
X99966954Y-113418594D01*
X99798595Y-113586953D01*
X99764923Y-113687968D01*
X99764923Y-113755311D01*
X99798595Y-113856327D01*
X99865938Y-113923670D01*
X100000625Y-113991014D01*
X100808748Y-113991014D01*
X100371015Y-114428747D01*
X99461877Y-114058357D02*
X99394534Y-114058357D01*
X99293519Y-114092029D01*
X99125160Y-114260388D01*
X99091488Y-114361403D01*
X99091488Y-114428747D01*
X99125160Y-114529762D01*
X99192503Y-114597105D01*
X99327190Y-114664449D01*
X100135312Y-114664449D01*
X99697580Y-115102182D01*
X135897106Y-110687969D02*
X135964450Y-110687969D01*
X136099137Y-110620625D01*
X136166480Y-110553282D01*
X136233824Y-110418595D01*
X136233824Y-110283908D01*
X136200152Y-110182893D01*
X136099137Y-110014534D01*
X135998122Y-109913519D01*
X135829763Y-109812503D01*
X135728748Y-109778832D01*
X135594061Y-109778832D01*
X135459374Y-109846175D01*
X135392030Y-109913519D01*
X135324687Y-110048206D01*
X135324687Y-110115549D01*
X135055312Y-110384923D02*
X134987969Y-110384923D01*
X134886954Y-110418595D01*
X134718595Y-110586954D01*
X134684923Y-110687969D01*
X134684923Y-110755312D01*
X134718595Y-110856328D01*
X134785938Y-110923671D01*
X134920625Y-110991015D01*
X135728748Y-110991015D01*
X135291015Y-111428748D01*
X134348206Y-110957343D02*
X133910473Y-111395076D01*
X134415549Y-111428748D01*
X134314534Y-111529763D01*
X134280862Y-111630778D01*
X134280862Y-111698122D01*
X134314534Y-111799137D01*
X134482893Y-111967496D01*
X134583908Y-112001167D01*
X134651251Y-112001167D01*
X134752267Y-111967496D01*
X134954297Y-111765465D01*
X134987969Y-111664450D01*
X134987969Y-111597106D01*
X152062030Y-94327106D02*
X152062030Y-94394450D01*
X152129374Y-94529137D01*
X152196717Y-94596480D01*
X152331404Y-94663824D01*
X152466091Y-94663824D01*
X152567106Y-94630152D01*
X152735465Y-94529137D01*
X152836480Y-94428122D01*
X152937496Y-94259763D01*
X152971167Y-94158748D01*
X152971167Y-94024061D01*
X152903824Y-93889374D01*
X152836480Y-93822030D01*
X152701793Y-93754687D01*
X152634450Y-93754687D01*
X152365076Y-93485312D02*
X152365076Y-93417969D01*
X152331404Y-93316954D01*
X152163045Y-93148595D01*
X152062030Y-93114923D01*
X151994687Y-93114923D01*
X151893671Y-93148595D01*
X151826328Y-93215938D01*
X151758984Y-93350625D01*
X151758984Y-94158748D01*
X151321251Y-93721015D01*
X151186564Y-92643519D02*
X150715160Y-93114923D01*
X151624297Y-92542503D02*
X151287580Y-93215938D01*
X150849847Y-92778206D01*
X95257714Y-108045116D02*
X95257714Y-108112460D01*
X95325058Y-108247147D01*
X95392401Y-108314490D01*
X95527088Y-108381834D01*
X95661775Y-108381834D01*
X95762790Y-108348162D01*
X95931149Y-108247147D01*
X96032164Y-108146132D01*
X96133180Y-107977773D01*
X96166851Y-107876758D01*
X96166851Y-107742071D01*
X96099508Y-107607384D01*
X96032164Y-107540040D01*
X95897477Y-107472697D01*
X95830134Y-107472697D01*
X95560760Y-107203322D02*
X95560760Y-107135979D01*
X95527088Y-107034964D01*
X95358729Y-106866605D01*
X95257714Y-106832933D01*
X95190371Y-106832933D01*
X95089355Y-106866605D01*
X95022012Y-106933948D01*
X94954668Y-107068635D01*
X94954668Y-107876758D01*
X94516935Y-107439025D01*
X94584279Y-106092155D02*
X94920996Y-106428872D01*
X94617951Y-106799261D01*
X94617951Y-106731918D01*
X94584279Y-106630903D01*
X94415920Y-106462544D01*
X94314905Y-106428872D01*
X94247561Y-106428872D01*
X94146546Y-106462544D01*
X93978187Y-106630903D01*
X93944516Y-106731918D01*
X93944516Y-106799261D01*
X93978187Y-106900277D01*
X94146546Y-107068635D01*
X94247561Y-107102307D01*
X94314905Y-107102307D01*
X96717106Y-122987969D02*
X96784450Y-122987969D01*
X96919137Y-122920625D01*
X96986480Y-122853282D01*
X97053824Y-122718595D01*
X97053824Y-122583908D01*
X97020152Y-122482893D01*
X96919137Y-122314534D01*
X96818122Y-122213519D01*
X96649763Y-122112503D01*
X96548748Y-122078832D01*
X96414061Y-122078832D01*
X96279374Y-122146175D01*
X96212030Y-122213519D01*
X96144687Y-122348206D01*
X96144687Y-122415549D01*
X95875312Y-122684923D02*
X95807969Y-122684923D01*
X95706954Y-122718595D01*
X95538595Y-122886954D01*
X95504923Y-122987969D01*
X95504923Y-123055312D01*
X95538595Y-123156328D01*
X95605938Y-123223671D01*
X95740625Y-123291015D01*
X96548748Y-123291015D01*
X96111015Y-123728748D01*
X94797816Y-123627732D02*
X94932503Y-123493045D01*
X95033519Y-123459374D01*
X95100862Y-123459374D01*
X95269221Y-123493045D01*
X95437580Y-123594061D01*
X95706954Y-123863435D01*
X95740625Y-123964450D01*
X95740625Y-124031793D01*
X95706954Y-124132809D01*
X95572267Y-124267496D01*
X95471251Y-124301167D01*
X95403908Y-124301167D01*
X95302893Y-124267496D01*
X95134534Y-124099137D01*
X95100862Y-123998122D01*
X95100862Y-123930778D01*
X95134534Y-123829763D01*
X95269221Y-123695076D01*
X95370236Y-123661404D01*
X95437580Y-123661404D01*
X95538595Y-123695076D01*
X153412029Y-96887106D02*
X153412029Y-96954450D01*
X153479373Y-97089137D01*
X153546716Y-97156480D01*
X153681403Y-97223824D01*
X153816090Y-97223824D01*
X153917105Y-97190152D01*
X154085464Y-97089137D01*
X154186479Y-96988122D01*
X154287495Y-96819763D01*
X154321166Y-96718748D01*
X154321166Y-96584061D01*
X154253823Y-96449374D01*
X154186479Y-96382030D01*
X154051792Y-96314687D01*
X153984449Y-96314687D01*
X153715075Y-96045312D02*
X153715075Y-95977969D01*
X153681403Y-95876954D01*
X153513044Y-95708595D01*
X153412029Y-95674923D01*
X153344686Y-95674923D01*
X153243670Y-95708595D01*
X153176327Y-95775938D01*
X153108983Y-95910625D01*
X153108983Y-96718748D01*
X152671250Y-96281015D01*
X153142655Y-95338206D02*
X152671250Y-94866801D01*
X152267189Y-95876954D01*
X153307142Y-120817142D02*
X153354761Y-120769523D01*
X153402380Y-120626666D01*
X153402380Y-120531428D01*
X153354761Y-120388571D01*
X153259523Y-120293333D01*
X153164285Y-120245714D01*
X152973809Y-120198095D01*
X152830952Y-120198095D01*
X152640476Y-120245714D01*
X152545238Y-120293333D01*
X152450000Y-120388571D01*
X152402380Y-120531428D01*
X152402380Y-120626666D01*
X152450000Y-120769523D01*
X152497619Y-120817142D01*
X152497619Y-121198095D02*
X152450000Y-121245714D01*
X152402380Y-121340952D01*
X152402380Y-121579047D01*
X152450000Y-121674285D01*
X152497619Y-121721904D01*
X152592857Y-121769523D01*
X152688095Y-121769523D01*
X152830952Y-121721904D01*
X153402380Y-121150476D01*
X153402380Y-121769523D01*
X152830952Y-122340952D02*
X152783333Y-122245714D01*
X152735714Y-122198095D01*
X152640476Y-122150476D01*
X152592857Y-122150476D01*
X152497619Y-122198095D01*
X152450000Y-122245714D01*
X152402380Y-122340952D01*
X152402380Y-122531428D01*
X152450000Y-122626666D01*
X152497619Y-122674285D01*
X152592857Y-122721904D01*
X152640476Y-122721904D01*
X152735714Y-122674285D01*
X152783333Y-122626666D01*
X152830952Y-122531428D01*
X152830952Y-122340952D01*
X152878571Y-122245714D01*
X152926190Y-122198095D01*
X153021428Y-122150476D01*
X153211904Y-122150476D01*
X153307142Y-122198095D01*
X153354761Y-122245714D01*
X153402380Y-122340952D01*
X153402380Y-122531428D01*
X153354761Y-122626666D01*
X153307142Y-122674285D01*
X153211904Y-122721904D01*
X153021428Y-122721904D01*
X152926190Y-122674285D01*
X152878571Y-122626666D01*
X152830952Y-122531428D01*
X139737106Y-114707969D02*
X139804450Y-114707969D01*
X139939137Y-114640625D01*
X140006480Y-114573282D01*
X140073824Y-114438595D01*
X140073824Y-114303908D01*
X140040152Y-114202893D01*
X139939137Y-114034534D01*
X139838122Y-113933519D01*
X139669763Y-113832503D01*
X139568748Y-113798832D01*
X139434061Y-113798832D01*
X139299374Y-113866175D01*
X139232030Y-113933519D01*
X139164687Y-114068206D01*
X139164687Y-114135549D01*
X138895312Y-114404923D02*
X138827969Y-114404923D01*
X138726954Y-114438595D01*
X138558595Y-114606954D01*
X138524923Y-114707969D01*
X138524923Y-114775312D01*
X138558595Y-114876328D01*
X138625938Y-114943671D01*
X138760625Y-115011015D01*
X139568748Y-115011015D01*
X139131015Y-115448748D01*
X138794297Y-115785465D02*
X138659610Y-115920152D01*
X138558595Y-115953824D01*
X138491251Y-115953824D01*
X138322893Y-115920152D01*
X138154534Y-115819137D01*
X137885160Y-115549763D01*
X137851488Y-115448748D01*
X137851488Y-115381404D01*
X137885160Y-115280389D01*
X138019847Y-115145702D01*
X138120862Y-115112030D01*
X138188206Y-115112030D01*
X138289221Y-115145702D01*
X138457580Y-115314061D01*
X138491251Y-115415076D01*
X138491251Y-115482419D01*
X138457580Y-115583435D01*
X138322893Y-115718122D01*
X138221877Y-115751793D01*
X138154534Y-115751793D01*
X138053519Y-115718122D01*
X136087106Y-114647969D02*
X136154450Y-114647969D01*
X136289137Y-114580625D01*
X136356480Y-114513282D01*
X136423824Y-114378595D01*
X136423824Y-114243908D01*
X136390152Y-114142893D01*
X136289137Y-113974534D01*
X136188122Y-113873519D01*
X136019763Y-113772503D01*
X135918748Y-113738832D01*
X135784061Y-113738832D01*
X135649374Y-113806175D01*
X135582030Y-113873519D01*
X135514687Y-114008206D01*
X135514687Y-114075549D01*
X135211641Y-114243908D02*
X134773908Y-114681641D01*
X135278984Y-114715312D01*
X135177969Y-114816328D01*
X135144297Y-114917343D01*
X135144297Y-114984687D01*
X135177969Y-115085702D01*
X135346328Y-115254061D01*
X135447343Y-115287732D01*
X135514687Y-115287732D01*
X135615702Y-115254061D01*
X135817732Y-115052030D01*
X135851404Y-114951015D01*
X135851404Y-114883671D01*
X134336175Y-115119374D02*
X134268832Y-115186717D01*
X134235160Y-115287732D01*
X134235160Y-115355076D01*
X134268832Y-115456091D01*
X134369847Y-115624450D01*
X134538206Y-115792809D01*
X134706564Y-115893824D01*
X134807580Y-115927496D01*
X134874923Y-115927496D01*
X134975938Y-115893824D01*
X135043282Y-115826480D01*
X135076954Y-115725465D01*
X135076954Y-115658122D01*
X135043282Y-115557106D01*
X134942267Y-115388748D01*
X134773908Y-115220389D01*
X134605549Y-115119374D01*
X134504534Y-115085702D01*
X134437190Y-115085702D01*
X134336175Y-115119374D01*
X101475183Y-119810259D02*
X101475183Y-119877603D01*
X101542527Y-120012290D01*
X101609870Y-120079633D01*
X101744557Y-120146977D01*
X101879244Y-120146977D01*
X101980259Y-120113305D01*
X102148618Y-120012290D01*
X102249633Y-119911275D01*
X102350649Y-119742916D01*
X102384320Y-119641901D01*
X102384320Y-119507214D01*
X102316977Y-119372527D01*
X102249633Y-119305183D01*
X102114946Y-119237840D01*
X102047603Y-119237840D01*
X101879244Y-118934794D02*
X101441511Y-118497061D01*
X101407840Y-119002137D01*
X101306824Y-118901122D01*
X101205809Y-118867450D01*
X101138465Y-118867450D01*
X101037450Y-118901122D01*
X100869091Y-119069481D01*
X100835420Y-119170496D01*
X100835420Y-119237840D01*
X100869091Y-119338855D01*
X101071122Y-119540885D01*
X101172137Y-119574557D01*
X101239481Y-119574557D01*
X100060969Y-118530733D02*
X100465030Y-118934794D01*
X100263000Y-118732763D02*
X100970107Y-118025656D01*
X100936435Y-118194015D01*
X100936435Y-118328702D01*
X100970107Y-118429717D01*
X153477142Y-113707142D02*
X153524761Y-113659523D01*
X153572380Y-113516666D01*
X153572380Y-113421428D01*
X153524761Y-113278571D01*
X153429523Y-113183333D01*
X153334285Y-113135714D01*
X153143809Y-113088095D01*
X153000952Y-113088095D01*
X152810476Y-113135714D01*
X152715238Y-113183333D01*
X152620000Y-113278571D01*
X152572380Y-113421428D01*
X152572380Y-113516666D01*
X152620000Y-113659523D01*
X152667619Y-113707142D01*
X152572380Y-114040476D02*
X152572380Y-114659523D01*
X152953333Y-114326190D01*
X152953333Y-114469047D01*
X153000952Y-114564285D01*
X153048571Y-114611904D01*
X153143809Y-114659523D01*
X153381904Y-114659523D01*
X153477142Y-114611904D01*
X153524761Y-114564285D01*
X153572380Y-114469047D01*
X153572380Y-114183333D01*
X153524761Y-114088095D01*
X153477142Y-114040476D01*
X152667619Y-115040476D02*
X152620000Y-115088095D01*
X152572380Y-115183333D01*
X152572380Y-115421428D01*
X152620000Y-115516666D01*
X152667619Y-115564285D01*
X152762857Y-115611904D01*
X152858095Y-115611904D01*
X153000952Y-115564285D01*
X153572380Y-114992857D01*
X153572380Y-115611904D01*
X153277142Y-106617142D02*
X153324761Y-106569523D01*
X153372380Y-106426666D01*
X153372380Y-106331428D01*
X153324761Y-106188571D01*
X153229523Y-106093333D01*
X153134285Y-106045714D01*
X152943809Y-105998095D01*
X152800952Y-105998095D01*
X152610476Y-106045714D01*
X152515238Y-106093333D01*
X152420000Y-106188571D01*
X152372380Y-106331428D01*
X152372380Y-106426666D01*
X152420000Y-106569523D01*
X152467619Y-106617142D01*
X152372380Y-106950476D02*
X152372380Y-107569523D01*
X152753333Y-107236190D01*
X152753333Y-107379047D01*
X152800952Y-107474285D01*
X152848571Y-107521904D01*
X152943809Y-107569523D01*
X153181904Y-107569523D01*
X153277142Y-107521904D01*
X153324761Y-107474285D01*
X153372380Y-107379047D01*
X153372380Y-107093333D01*
X153324761Y-106998095D01*
X153277142Y-106950476D01*
X152705714Y-108426666D02*
X153372380Y-108426666D01*
X152324761Y-108188571D02*
X153039047Y-107950476D01*
X153039047Y-108569523D01*
X97627142Y-87927142D02*
X97674761Y-87879523D01*
X97722380Y-87736666D01*
X97722380Y-87641428D01*
X97674761Y-87498571D01*
X97579523Y-87403333D01*
X97484285Y-87355714D01*
X97293809Y-87308095D01*
X97150952Y-87308095D01*
X96960476Y-87355714D01*
X96865238Y-87403333D01*
X96770000Y-87498571D01*
X96722380Y-87641428D01*
X96722380Y-87736666D01*
X96770000Y-87879523D01*
X96817619Y-87927142D01*
X96722380Y-88260476D02*
X96722380Y-88879523D01*
X97103333Y-88546190D01*
X97103333Y-88689047D01*
X97150952Y-88784285D01*
X97198571Y-88831904D01*
X97293809Y-88879523D01*
X97531904Y-88879523D01*
X97627142Y-88831904D01*
X97674761Y-88784285D01*
X97722380Y-88689047D01*
X97722380Y-88403333D01*
X97674761Y-88308095D01*
X97627142Y-88260476D01*
X96722380Y-89784285D02*
X96722380Y-89308095D01*
X97198571Y-89260476D01*
X97150952Y-89308095D01*
X97103333Y-89403333D01*
X97103333Y-89641428D01*
X97150952Y-89736666D01*
X97198571Y-89784285D01*
X97293809Y-89831904D01*
X97531904Y-89831904D01*
X97627142Y-89784285D01*
X97674761Y-89736666D01*
X97722380Y-89641428D01*
X97722380Y-89403333D01*
X97674761Y-89308095D01*
X97627142Y-89260476D01*
X93297142Y-69707142D02*
X93344761Y-69659523D01*
X93392380Y-69516666D01*
X93392380Y-69421428D01*
X93344761Y-69278571D01*
X93249523Y-69183333D01*
X93154285Y-69135714D01*
X92963809Y-69088095D01*
X92820952Y-69088095D01*
X92630476Y-69135714D01*
X92535238Y-69183333D01*
X92440000Y-69278571D01*
X92392380Y-69421428D01*
X92392380Y-69516666D01*
X92440000Y-69659523D01*
X92487619Y-69707142D01*
X92392380Y-70040476D02*
X92392380Y-70659523D01*
X92773333Y-70326190D01*
X92773333Y-70469047D01*
X92820952Y-70564285D01*
X92868571Y-70611904D01*
X92963809Y-70659523D01*
X93201904Y-70659523D01*
X93297142Y-70611904D01*
X93344761Y-70564285D01*
X93392380Y-70469047D01*
X93392380Y-70183333D01*
X93344761Y-70088095D01*
X93297142Y-70040476D01*
X92392380Y-71516666D02*
X92392380Y-71326190D01*
X92440000Y-71230952D01*
X92487619Y-71183333D01*
X92630476Y-71088095D01*
X92820952Y-71040476D01*
X93201904Y-71040476D01*
X93297142Y-71088095D01*
X93344761Y-71135714D01*
X93392380Y-71230952D01*
X93392380Y-71421428D01*
X93344761Y-71516666D01*
X93297142Y-71564285D01*
X93201904Y-71611904D01*
X92963809Y-71611904D01*
X92868571Y-71564285D01*
X92820952Y-71516666D01*
X92773333Y-71421428D01*
X92773333Y-71230952D01*
X92820952Y-71135714D01*
X92868571Y-71088095D01*
X92963809Y-71040476D01*
X103287142Y-85707142D02*
X103334761Y-85659523D01*
X103382380Y-85516666D01*
X103382380Y-85421428D01*
X103334761Y-85278571D01*
X103239523Y-85183333D01*
X103144285Y-85135714D01*
X102953809Y-85088095D01*
X102810952Y-85088095D01*
X102620476Y-85135714D01*
X102525238Y-85183333D01*
X102430000Y-85278571D01*
X102382380Y-85421428D01*
X102382380Y-85516666D01*
X102430000Y-85659523D01*
X102477619Y-85707142D01*
X102382380Y-86040476D02*
X102382380Y-86659523D01*
X102763333Y-86326190D01*
X102763333Y-86469047D01*
X102810952Y-86564285D01*
X102858571Y-86611904D01*
X102953809Y-86659523D01*
X103191904Y-86659523D01*
X103287142Y-86611904D01*
X103334761Y-86564285D01*
X103382380Y-86469047D01*
X103382380Y-86183333D01*
X103334761Y-86088095D01*
X103287142Y-86040476D01*
X103382380Y-87135714D02*
X103382380Y-87326190D01*
X103334761Y-87421428D01*
X103287142Y-87469047D01*
X103144285Y-87564285D01*
X102953809Y-87611904D01*
X102572857Y-87611904D01*
X102477619Y-87564285D01*
X102430000Y-87516666D01*
X102382380Y-87421428D01*
X102382380Y-87230952D01*
X102430000Y-87135714D01*
X102477619Y-87088095D01*
X102572857Y-87040476D01*
X102810952Y-87040476D01*
X102906190Y-87088095D01*
X102953809Y-87135714D01*
X103001428Y-87230952D01*
X103001428Y-87421428D01*
X102953809Y-87516666D01*
X102906190Y-87564285D01*
X102810952Y-87611904D01*
X104967142Y-77997142D02*
X105014761Y-77949523D01*
X105062380Y-77806666D01*
X105062380Y-77711428D01*
X105014761Y-77568571D01*
X104919523Y-77473333D01*
X104824285Y-77425714D01*
X104633809Y-77378095D01*
X104490952Y-77378095D01*
X104300476Y-77425714D01*
X104205238Y-77473333D01*
X104110000Y-77568571D01*
X104062380Y-77711428D01*
X104062380Y-77806666D01*
X104110000Y-77949523D01*
X104157619Y-77997142D01*
X104395714Y-78854285D02*
X105062380Y-78854285D01*
X104014761Y-78616190D02*
X104729047Y-78378095D01*
X104729047Y-78997142D01*
X104062380Y-79568571D02*
X104062380Y-79663809D01*
X104110000Y-79759047D01*
X104157619Y-79806666D01*
X104252857Y-79854285D01*
X104443333Y-79901904D01*
X104681428Y-79901904D01*
X104871904Y-79854285D01*
X104967142Y-79806666D01*
X105014761Y-79759047D01*
X105062380Y-79663809D01*
X105062380Y-79568571D01*
X105014761Y-79473333D01*
X104967142Y-79425714D01*
X104871904Y-79378095D01*
X104681428Y-79330476D01*
X104443333Y-79330476D01*
X104252857Y-79378095D01*
X104157619Y-79425714D01*
X104110000Y-79473333D01*
X104062380Y-79568571D01*
X87847142Y-71967142D02*
X87894761Y-71919523D01*
X87942380Y-71776666D01*
X87942380Y-71681428D01*
X87894761Y-71538571D01*
X87799523Y-71443333D01*
X87704285Y-71395714D01*
X87513809Y-71348095D01*
X87370952Y-71348095D01*
X87180476Y-71395714D01*
X87085238Y-71443333D01*
X86990000Y-71538571D01*
X86942380Y-71681428D01*
X86942380Y-71776666D01*
X86990000Y-71919523D01*
X87037619Y-71967142D01*
X87275714Y-72824285D02*
X87942380Y-72824285D01*
X86894761Y-72586190D02*
X87609047Y-72348095D01*
X87609047Y-72967142D01*
X87942380Y-73871904D02*
X87942380Y-73300476D01*
X87942380Y-73586190D02*
X86942380Y-73586190D01*
X87085238Y-73490952D01*
X87180476Y-73395714D01*
X87228095Y-73300476D01*
X85987141Y-80074642D02*
X86034760Y-80027023D01*
X86082379Y-79884166D01*
X86082379Y-79788928D01*
X86034760Y-79646071D01*
X85939522Y-79550833D01*
X85844284Y-79503214D01*
X85653808Y-79455595D01*
X85510951Y-79455595D01*
X85320475Y-79503214D01*
X85225237Y-79550833D01*
X85129999Y-79646071D01*
X85082379Y-79788928D01*
X85082379Y-79884166D01*
X85129999Y-80027023D01*
X85177618Y-80074642D01*
X85415713Y-80931785D02*
X86082379Y-80931785D01*
X85034760Y-80693690D02*
X85749046Y-80455595D01*
X85749046Y-81074642D01*
X85177618Y-81407976D02*
X85129999Y-81455595D01*
X85082379Y-81550833D01*
X85082379Y-81788928D01*
X85129999Y-81884166D01*
X85177618Y-81931785D01*
X85272856Y-81979404D01*
X85368094Y-81979404D01*
X85510951Y-81931785D01*
X86082379Y-81360357D01*
X86082379Y-81979404D01*
X107562857Y-91587142D02*
X107610476Y-91634761D01*
X107753333Y-91682380D01*
X107848571Y-91682380D01*
X107991428Y-91634761D01*
X108086666Y-91539523D01*
X108134285Y-91444285D01*
X108181904Y-91253809D01*
X108181904Y-91110952D01*
X108134285Y-90920476D01*
X108086666Y-90825238D01*
X107991428Y-90730000D01*
X107848571Y-90682380D01*
X107753333Y-90682380D01*
X107610476Y-90730000D01*
X107562857Y-90777619D01*
X106705714Y-91015714D02*
X106705714Y-91682380D01*
X106943809Y-90634761D02*
X107181904Y-91349047D01*
X106562857Y-91349047D01*
X106277142Y-90682380D02*
X105658095Y-90682380D01*
X105991428Y-91063333D01*
X105848571Y-91063333D01*
X105753333Y-91110952D01*
X105705714Y-91158571D01*
X105658095Y-91253809D01*
X105658095Y-91491904D01*
X105705714Y-91587142D01*
X105753333Y-91634761D01*
X105848571Y-91682380D01*
X106134285Y-91682380D01*
X106229523Y-91634761D01*
X106277142Y-91587142D01*
X83670357Y-68597142D02*
X83717976Y-68644761D01*
X83860833Y-68692380D01*
X83956071Y-68692380D01*
X84098928Y-68644761D01*
X84194166Y-68549523D01*
X84241785Y-68454285D01*
X84289404Y-68263809D01*
X84289404Y-68120952D01*
X84241785Y-67930476D01*
X84194166Y-67835238D01*
X84098928Y-67740000D01*
X83956071Y-67692380D01*
X83860833Y-67692380D01*
X83717976Y-67740000D01*
X83670357Y-67787619D01*
X82813214Y-68025714D02*
X82813214Y-68692380D01*
X83051309Y-67644761D02*
X83289404Y-68359047D01*
X82670357Y-68359047D01*
X81860833Y-68025714D02*
X81860833Y-68692380D01*
X82098928Y-67644761D02*
X82337023Y-68359047D01*
X81717976Y-68359047D01*
X101872857Y-80137142D02*
X101920476Y-80184761D01*
X102063333Y-80232380D01*
X102158571Y-80232380D01*
X102301428Y-80184761D01*
X102396666Y-80089523D01*
X102444285Y-79994285D01*
X102491904Y-79803809D01*
X102491904Y-79660952D01*
X102444285Y-79470476D01*
X102396666Y-79375238D01*
X102301428Y-79280000D01*
X102158571Y-79232380D01*
X102063333Y-79232380D01*
X101920476Y-79280000D01*
X101872857Y-79327619D01*
X100968095Y-79232380D02*
X101444285Y-79232380D01*
X101491904Y-79708571D01*
X101444285Y-79660952D01*
X101349047Y-79613333D01*
X101110952Y-79613333D01*
X101015714Y-79660952D01*
X100968095Y-79708571D01*
X100920476Y-79803809D01*
X100920476Y-80041904D01*
X100968095Y-80137142D01*
X101015714Y-80184761D01*
X101110952Y-80232380D01*
X101349047Y-80232380D01*
X101444285Y-80184761D01*
X101491904Y-80137142D01*
X99968095Y-80232380D02*
X100539523Y-80232380D01*
X100253809Y-80232380D02*
X100253809Y-79232380D01*
X100349047Y-79375238D01*
X100444285Y-79470476D01*
X100539523Y-79518095D01*
X89852856Y-79467142D02*
X89900475Y-79514761D01*
X90043332Y-79562380D01*
X90138570Y-79562380D01*
X90281427Y-79514761D01*
X90376665Y-79419523D01*
X90424284Y-79324285D01*
X90471903Y-79133809D01*
X90471903Y-78990952D01*
X90424284Y-78800476D01*
X90376665Y-78705238D01*
X90281427Y-78610000D01*
X90138570Y-78562380D01*
X90043332Y-78562380D01*
X89900475Y-78610000D01*
X89852856Y-78657619D01*
X88948094Y-78562380D02*
X89424284Y-78562380D01*
X89471903Y-79038571D01*
X89424284Y-78990952D01*
X89329046Y-78943333D01*
X89090951Y-78943333D01*
X88995713Y-78990952D01*
X88948094Y-79038571D01*
X88900475Y-79133809D01*
X88900475Y-79371904D01*
X88948094Y-79467142D01*
X88995713Y-79514761D01*
X89090951Y-79562380D01*
X89329046Y-79562380D01*
X89424284Y-79514761D01*
X89471903Y-79467142D01*
X88519522Y-78657619D02*
X88471903Y-78610000D01*
X88376665Y-78562380D01*
X88138570Y-78562380D01*
X88043332Y-78610000D01*
X87995713Y-78657619D01*
X87948094Y-78752857D01*
X87948094Y-78848095D01*
X87995713Y-78990952D01*
X88567141Y-79562380D01*
X87948094Y-79562380D01*
X98027142Y-83777142D02*
X98074761Y-83729523D01*
X98122380Y-83586666D01*
X98122380Y-83491428D01*
X98074761Y-83348571D01*
X97979523Y-83253333D01*
X97884285Y-83205714D01*
X97693809Y-83158095D01*
X97550952Y-83158095D01*
X97360476Y-83205714D01*
X97265238Y-83253333D01*
X97170000Y-83348571D01*
X97122380Y-83491428D01*
X97122380Y-83586666D01*
X97170000Y-83729523D01*
X97217619Y-83777142D01*
X97122380Y-84681904D02*
X97122380Y-84205714D01*
X97598571Y-84158095D01*
X97550952Y-84205714D01*
X97503333Y-84300952D01*
X97503333Y-84539047D01*
X97550952Y-84634285D01*
X97598571Y-84681904D01*
X97693809Y-84729523D01*
X97931904Y-84729523D01*
X98027142Y-84681904D01*
X98074761Y-84634285D01*
X98122380Y-84539047D01*
X98122380Y-84300952D01*
X98074761Y-84205714D01*
X98027142Y-84158095D01*
X97122380Y-85062857D02*
X97122380Y-85681904D01*
X97503333Y-85348571D01*
X97503333Y-85491428D01*
X97550952Y-85586666D01*
X97598571Y-85634285D01*
X97693809Y-85681904D01*
X97931904Y-85681904D01*
X98027142Y-85634285D01*
X98074761Y-85586666D01*
X98122380Y-85491428D01*
X98122380Y-85205714D01*
X98074761Y-85110476D01*
X98027142Y-85062857D01*
X92887141Y-73857142D02*
X92934760Y-73809523D01*
X92982379Y-73666666D01*
X92982379Y-73571428D01*
X92934760Y-73428571D01*
X92839522Y-73333333D01*
X92744284Y-73285714D01*
X92553808Y-73238095D01*
X92410951Y-73238095D01*
X92220475Y-73285714D01*
X92125237Y-73333333D01*
X92029999Y-73428571D01*
X91982379Y-73571428D01*
X91982379Y-73666666D01*
X92029999Y-73809523D01*
X92077618Y-73857142D01*
X91982379Y-74761904D02*
X91982379Y-74285714D01*
X92458570Y-74238095D01*
X92410951Y-74285714D01*
X92363332Y-74380952D01*
X92363332Y-74619047D01*
X92410951Y-74714285D01*
X92458570Y-74761904D01*
X92553808Y-74809523D01*
X92791903Y-74809523D01*
X92887141Y-74761904D01*
X92934760Y-74714285D01*
X92982379Y-74619047D01*
X92982379Y-74380952D01*
X92934760Y-74285714D01*
X92887141Y-74238095D01*
X92315713Y-75666666D02*
X92982379Y-75666666D01*
X91934760Y-75428571D02*
X92649046Y-75190476D01*
X92649046Y-75809523D01*
X139862143Y-87082143D02*
X139909762Y-87034524D01*
X139957381Y-86891667D01*
X139957381Y-86796429D01*
X139909762Y-86653572D01*
X139814524Y-86558334D01*
X139719286Y-86510715D01*
X139528810Y-86463096D01*
X139385953Y-86463096D01*
X139195477Y-86510715D01*
X139100239Y-86558334D01*
X139005001Y-86653572D01*
X138957381Y-86796429D01*
X138957381Y-86891667D01*
X139005001Y-87034524D01*
X139052620Y-87082143D01*
X138957381Y-87415477D02*
X138957381Y-88082143D01*
X139957381Y-87653572D01*
X139052620Y-88415477D02*
X139005001Y-88463096D01*
X138957381Y-88558334D01*
X138957381Y-88796429D01*
X139005001Y-88891667D01*
X139052620Y-88939286D01*
X139147858Y-88986905D01*
X139243096Y-88986905D01*
X139385953Y-88939286D01*
X139957381Y-88367858D01*
X139957381Y-88986905D01*
X135532143Y-68862143D02*
X135579762Y-68814524D01*
X135627381Y-68671667D01*
X135627381Y-68576429D01*
X135579762Y-68433572D01*
X135484524Y-68338334D01*
X135389286Y-68290715D01*
X135198810Y-68243096D01*
X135055953Y-68243096D01*
X134865477Y-68290715D01*
X134770239Y-68338334D01*
X134675001Y-68433572D01*
X134627381Y-68576429D01*
X134627381Y-68671667D01*
X134675001Y-68814524D01*
X134722620Y-68862143D01*
X134627381Y-69195477D02*
X134627381Y-69862143D01*
X135627381Y-69433572D01*
X134627381Y-70147858D02*
X134627381Y-70766905D01*
X135008334Y-70433572D01*
X135008334Y-70576429D01*
X135055953Y-70671667D01*
X135103572Y-70719286D01*
X135198810Y-70766905D01*
X135436905Y-70766905D01*
X135532143Y-70719286D01*
X135579762Y-70671667D01*
X135627381Y-70576429D01*
X135627381Y-70290715D01*
X135579762Y-70195477D01*
X135532143Y-70147858D01*
X145522143Y-84862143D02*
X145569762Y-84814524D01*
X145617381Y-84671667D01*
X145617381Y-84576429D01*
X145569762Y-84433572D01*
X145474524Y-84338334D01*
X145379286Y-84290715D01*
X145188810Y-84243096D01*
X145045953Y-84243096D01*
X144855477Y-84290715D01*
X144760239Y-84338334D01*
X144665001Y-84433572D01*
X144617381Y-84576429D01*
X144617381Y-84671667D01*
X144665001Y-84814524D01*
X144712620Y-84862143D01*
X144617381Y-85195477D02*
X144617381Y-85862143D01*
X145617381Y-85433572D01*
X144617381Y-86671667D02*
X144617381Y-86481191D01*
X144665001Y-86385953D01*
X144712620Y-86338334D01*
X144855477Y-86243096D01*
X145045953Y-86195477D01*
X145426905Y-86195477D01*
X145522143Y-86243096D01*
X145569762Y-86290715D01*
X145617381Y-86385953D01*
X145617381Y-86576429D01*
X145569762Y-86671667D01*
X145522143Y-86719286D01*
X145426905Y-86766905D01*
X145188810Y-86766905D01*
X145093572Y-86719286D01*
X145045953Y-86671667D01*
X144998334Y-86576429D01*
X144998334Y-86385953D01*
X145045953Y-86290715D01*
X145093572Y-86243096D01*
X145188810Y-86195477D01*
X147202143Y-77152143D02*
X147249762Y-77104524D01*
X147297381Y-76961667D01*
X147297381Y-76866429D01*
X147249762Y-76723572D01*
X147154524Y-76628334D01*
X147059286Y-76580715D01*
X146868810Y-76533096D01*
X146725953Y-76533096D01*
X146535477Y-76580715D01*
X146440239Y-76628334D01*
X146345001Y-76723572D01*
X146297381Y-76866429D01*
X146297381Y-76961667D01*
X146345001Y-77104524D01*
X146392620Y-77152143D01*
X146297381Y-77485477D02*
X146297381Y-78152143D01*
X147297381Y-77723572D01*
X146297381Y-78437858D02*
X146297381Y-79104524D01*
X147297381Y-78675953D01*
X130082143Y-71122143D02*
X130129762Y-71074524D01*
X130177381Y-70931667D01*
X130177381Y-70836429D01*
X130129762Y-70693572D01*
X130034524Y-70598334D01*
X129939286Y-70550715D01*
X129748810Y-70503096D01*
X129605953Y-70503096D01*
X129415477Y-70550715D01*
X129320239Y-70598334D01*
X129225001Y-70693572D01*
X129177381Y-70836429D01*
X129177381Y-70931667D01*
X129225001Y-71074524D01*
X129272620Y-71122143D01*
X129177381Y-71455477D02*
X129177381Y-72122143D01*
X130177381Y-71693572D01*
X129605953Y-72645953D02*
X129558334Y-72550715D01*
X129510715Y-72503096D01*
X129415477Y-72455477D01*
X129367858Y-72455477D01*
X129272620Y-72503096D01*
X129225001Y-72550715D01*
X129177381Y-72645953D01*
X129177381Y-72836429D01*
X129225001Y-72931667D01*
X129272620Y-72979286D01*
X129367858Y-73026905D01*
X129415477Y-73026905D01*
X129510715Y-72979286D01*
X129558334Y-72931667D01*
X129605953Y-72836429D01*
X129605953Y-72645953D01*
X129653572Y-72550715D01*
X129701191Y-72503096D01*
X129796429Y-72455477D01*
X129986905Y-72455477D01*
X130082143Y-72503096D01*
X130129762Y-72550715D01*
X130177381Y-72645953D01*
X130177381Y-72836429D01*
X130129762Y-72931667D01*
X130082143Y-72979286D01*
X129986905Y-73026905D01*
X129796429Y-73026905D01*
X129701191Y-72979286D01*
X129653572Y-72931667D01*
X129605953Y-72836429D01*
X128222142Y-79229643D02*
X128269761Y-79182024D01*
X128317380Y-79039167D01*
X128317380Y-78943929D01*
X128269761Y-78801072D01*
X128174523Y-78705834D01*
X128079285Y-78658215D01*
X127888809Y-78610596D01*
X127745952Y-78610596D01*
X127555476Y-78658215D01*
X127460238Y-78705834D01*
X127365000Y-78801072D01*
X127317380Y-78943929D01*
X127317380Y-79039167D01*
X127365000Y-79182024D01*
X127412619Y-79229643D01*
X127317380Y-79562977D02*
X127317380Y-80229643D01*
X128317380Y-79801072D01*
X128317380Y-80658215D02*
X128317380Y-80848691D01*
X128269761Y-80943929D01*
X128222142Y-80991548D01*
X128079285Y-81086786D01*
X127888809Y-81134405D01*
X127507857Y-81134405D01*
X127412619Y-81086786D01*
X127365000Y-81039167D01*
X127317380Y-80943929D01*
X127317380Y-80753453D01*
X127365000Y-80658215D01*
X127412619Y-80610596D01*
X127507857Y-80562977D01*
X127745952Y-80562977D01*
X127841190Y-80610596D01*
X127888809Y-80658215D01*
X127936428Y-80753453D01*
X127936428Y-80943929D01*
X127888809Y-81039167D01*
X127841190Y-81086786D01*
X127745952Y-81134405D01*
X149797858Y-90742143D02*
X149845477Y-90789762D01*
X149988334Y-90837381D01*
X150083572Y-90837381D01*
X150226429Y-90789762D01*
X150321667Y-90694524D01*
X150369286Y-90599286D01*
X150416905Y-90408810D01*
X150416905Y-90265953D01*
X150369286Y-90075477D01*
X150321667Y-89980239D01*
X150226429Y-89885001D01*
X150083572Y-89837381D01*
X149988334Y-89837381D01*
X149845477Y-89885001D01*
X149797858Y-89932620D01*
X149226429Y-90265953D02*
X149321667Y-90218334D01*
X149369286Y-90170715D01*
X149416905Y-90075477D01*
X149416905Y-90027858D01*
X149369286Y-89932620D01*
X149321667Y-89885001D01*
X149226429Y-89837381D01*
X149035953Y-89837381D01*
X148940715Y-89885001D01*
X148893096Y-89932620D01*
X148845477Y-90027858D01*
X148845477Y-90075477D01*
X148893096Y-90170715D01*
X148940715Y-90218334D01*
X149035953Y-90265953D01*
X149226429Y-90265953D01*
X149321667Y-90313572D01*
X149369286Y-90361191D01*
X149416905Y-90456429D01*
X149416905Y-90646905D01*
X149369286Y-90742143D01*
X149321667Y-90789762D01*
X149226429Y-90837381D01*
X149035953Y-90837381D01*
X148940715Y-90789762D01*
X148893096Y-90742143D01*
X148845477Y-90646905D01*
X148845477Y-90456429D01*
X148893096Y-90361191D01*
X148940715Y-90313572D01*
X149035953Y-90265953D01*
X148226429Y-89837381D02*
X148131191Y-89837381D01*
X148035953Y-89885001D01*
X147988334Y-89932620D01*
X147940715Y-90027858D01*
X147893096Y-90218334D01*
X147893096Y-90456429D01*
X147940715Y-90646905D01*
X147988334Y-90742143D01*
X148035953Y-90789762D01*
X148131191Y-90837381D01*
X148226429Y-90837381D01*
X148321667Y-90789762D01*
X148369286Y-90742143D01*
X148416905Y-90646905D01*
X148464524Y-90456429D01*
X148464524Y-90218334D01*
X148416905Y-90027858D01*
X148369286Y-89932620D01*
X148321667Y-89885001D01*
X148226429Y-89837381D01*
X125905358Y-67752143D02*
X125952977Y-67799762D01*
X126095834Y-67847381D01*
X126191072Y-67847381D01*
X126333929Y-67799762D01*
X126429167Y-67704524D01*
X126476786Y-67609286D01*
X126524405Y-67418810D01*
X126524405Y-67275953D01*
X126476786Y-67085477D01*
X126429167Y-66990239D01*
X126333929Y-66895001D01*
X126191072Y-66847381D01*
X126095834Y-66847381D01*
X125952977Y-66895001D01*
X125905358Y-66942620D01*
X125333929Y-67275953D02*
X125429167Y-67228334D01*
X125476786Y-67180715D01*
X125524405Y-67085477D01*
X125524405Y-67037858D01*
X125476786Y-66942620D01*
X125429167Y-66895001D01*
X125333929Y-66847381D01*
X125143453Y-66847381D01*
X125048215Y-66895001D01*
X125000596Y-66942620D01*
X124952977Y-67037858D01*
X124952977Y-67085477D01*
X125000596Y-67180715D01*
X125048215Y-67228334D01*
X125143453Y-67275953D01*
X125333929Y-67275953D01*
X125429167Y-67323572D01*
X125476786Y-67371191D01*
X125524405Y-67466429D01*
X125524405Y-67656905D01*
X125476786Y-67752143D01*
X125429167Y-67799762D01*
X125333929Y-67847381D01*
X125143453Y-67847381D01*
X125048215Y-67799762D01*
X125000596Y-67752143D01*
X124952977Y-67656905D01*
X124952977Y-67466429D01*
X125000596Y-67371191D01*
X125048215Y-67323572D01*
X125143453Y-67275953D01*
X124000596Y-67847381D02*
X124572024Y-67847381D01*
X124286310Y-67847381D02*
X124286310Y-66847381D01*
X124381548Y-66990239D01*
X124476786Y-67085477D01*
X124572024Y-67133096D01*
X144107858Y-79292143D02*
X144155477Y-79339762D01*
X144298334Y-79387381D01*
X144393572Y-79387381D01*
X144536429Y-79339762D01*
X144631667Y-79244524D01*
X144679286Y-79149286D01*
X144726905Y-78958810D01*
X144726905Y-78815953D01*
X144679286Y-78625477D01*
X144631667Y-78530239D01*
X144536429Y-78435001D01*
X144393572Y-78387381D01*
X144298334Y-78387381D01*
X144155477Y-78435001D01*
X144107858Y-78482620D01*
X143536429Y-78815953D02*
X143631667Y-78768334D01*
X143679286Y-78720715D01*
X143726905Y-78625477D01*
X143726905Y-78577858D01*
X143679286Y-78482620D01*
X143631667Y-78435001D01*
X143536429Y-78387381D01*
X143345953Y-78387381D01*
X143250715Y-78435001D01*
X143203096Y-78482620D01*
X143155477Y-78577858D01*
X143155477Y-78625477D01*
X143203096Y-78720715D01*
X143250715Y-78768334D01*
X143345953Y-78815953D01*
X143536429Y-78815953D01*
X143631667Y-78863572D01*
X143679286Y-78911191D01*
X143726905Y-79006429D01*
X143726905Y-79196905D01*
X143679286Y-79292143D01*
X143631667Y-79339762D01*
X143536429Y-79387381D01*
X143345953Y-79387381D01*
X143250715Y-79339762D01*
X143203096Y-79292143D01*
X143155477Y-79196905D01*
X143155477Y-79006429D01*
X143203096Y-78911191D01*
X143250715Y-78863572D01*
X143345953Y-78815953D01*
X142584048Y-78815953D02*
X142679286Y-78768334D01*
X142726905Y-78720715D01*
X142774524Y-78625477D01*
X142774524Y-78577858D01*
X142726905Y-78482620D01*
X142679286Y-78435001D01*
X142584048Y-78387381D01*
X142393572Y-78387381D01*
X142298334Y-78435001D01*
X142250715Y-78482620D01*
X142203096Y-78577858D01*
X142203096Y-78625477D01*
X142250715Y-78720715D01*
X142298334Y-78768334D01*
X142393572Y-78815953D01*
X142584048Y-78815953D01*
X142679286Y-78863572D01*
X142726905Y-78911191D01*
X142774524Y-79006429D01*
X142774524Y-79196905D01*
X142726905Y-79292143D01*
X142679286Y-79339762D01*
X142584048Y-79387381D01*
X142393572Y-79387381D01*
X142298334Y-79339762D01*
X142250715Y-79292143D01*
X142203096Y-79196905D01*
X142203096Y-79006429D01*
X142250715Y-78911191D01*
X142298334Y-78863572D01*
X142393572Y-78815953D01*
X132087857Y-78622143D02*
X132135476Y-78669762D01*
X132278333Y-78717381D01*
X132373571Y-78717381D01*
X132516428Y-78669762D01*
X132611666Y-78574524D01*
X132659285Y-78479286D01*
X132706904Y-78288810D01*
X132706904Y-78145953D01*
X132659285Y-77955477D01*
X132611666Y-77860239D01*
X132516428Y-77765001D01*
X132373571Y-77717381D01*
X132278333Y-77717381D01*
X132135476Y-77765001D01*
X132087857Y-77812620D01*
X131516428Y-78145953D02*
X131611666Y-78098334D01*
X131659285Y-78050715D01*
X131706904Y-77955477D01*
X131706904Y-77907858D01*
X131659285Y-77812620D01*
X131611666Y-77765001D01*
X131516428Y-77717381D01*
X131325952Y-77717381D01*
X131230714Y-77765001D01*
X131183095Y-77812620D01*
X131135476Y-77907858D01*
X131135476Y-77955477D01*
X131183095Y-78050715D01*
X131230714Y-78098334D01*
X131325952Y-78145953D01*
X131516428Y-78145953D01*
X131611666Y-78193572D01*
X131659285Y-78241191D01*
X131706904Y-78336429D01*
X131706904Y-78526905D01*
X131659285Y-78622143D01*
X131611666Y-78669762D01*
X131516428Y-78717381D01*
X131325952Y-78717381D01*
X131230714Y-78669762D01*
X131183095Y-78622143D01*
X131135476Y-78526905D01*
X131135476Y-78336429D01*
X131183095Y-78241191D01*
X131230714Y-78193572D01*
X131325952Y-78145953D01*
X130659285Y-78717381D02*
X130468809Y-78717381D01*
X130373571Y-78669762D01*
X130325952Y-78622143D01*
X130230714Y-78479286D01*
X130183095Y-78288810D01*
X130183095Y-77907858D01*
X130230714Y-77812620D01*
X130278333Y-77765001D01*
X130373571Y-77717381D01*
X130564047Y-77717381D01*
X130659285Y-77765001D01*
X130706904Y-77812620D01*
X130754523Y-77907858D01*
X130754523Y-78145953D01*
X130706904Y-78241191D01*
X130659285Y-78288810D01*
X130564047Y-78336429D01*
X130373571Y-78336429D01*
X130278333Y-78288810D01*
X130230714Y-78241191D01*
X130183095Y-78145953D01*
X140262143Y-82932143D02*
X140309762Y-82884524D01*
X140357381Y-82741667D01*
X140357381Y-82646429D01*
X140309762Y-82503572D01*
X140214524Y-82408334D01*
X140119286Y-82360715D01*
X139928810Y-82313096D01*
X139785953Y-82313096D01*
X139595477Y-82360715D01*
X139500239Y-82408334D01*
X139405001Y-82503572D01*
X139357381Y-82646429D01*
X139357381Y-82741667D01*
X139405001Y-82884524D01*
X139452620Y-82932143D01*
X140357381Y-83408334D02*
X140357381Y-83598810D01*
X140309762Y-83694048D01*
X140262143Y-83741667D01*
X140119286Y-83836905D01*
X139928810Y-83884524D01*
X139547858Y-83884524D01*
X139452620Y-83836905D01*
X139405001Y-83789286D01*
X139357381Y-83694048D01*
X139357381Y-83503572D01*
X139405001Y-83408334D01*
X139452620Y-83360715D01*
X139547858Y-83313096D01*
X139785953Y-83313096D01*
X139881191Y-83360715D01*
X139928810Y-83408334D01*
X139976429Y-83503572D01*
X139976429Y-83694048D01*
X139928810Y-83789286D01*
X139881191Y-83836905D01*
X139785953Y-83884524D01*
X139357381Y-84503572D02*
X139357381Y-84598810D01*
X139405001Y-84694048D01*
X139452620Y-84741667D01*
X139547858Y-84789286D01*
X139738334Y-84836905D01*
X139976429Y-84836905D01*
X140166905Y-84789286D01*
X140262143Y-84741667D01*
X140309762Y-84694048D01*
X140357381Y-84598810D01*
X140357381Y-84503572D01*
X140309762Y-84408334D01*
X140262143Y-84360715D01*
X140166905Y-84313096D01*
X139976429Y-84265477D01*
X139738334Y-84265477D01*
X139547858Y-84313096D01*
X139452620Y-84360715D01*
X139405001Y-84408334D01*
X139357381Y-84503572D01*
X135122142Y-73012143D02*
X135169761Y-72964524D01*
X135217380Y-72821667D01*
X135217380Y-72726429D01*
X135169761Y-72583572D01*
X135074523Y-72488334D01*
X134979285Y-72440715D01*
X134788809Y-72393096D01*
X134645952Y-72393096D01*
X134455476Y-72440715D01*
X134360238Y-72488334D01*
X134265000Y-72583572D01*
X134217380Y-72726429D01*
X134217380Y-72821667D01*
X134265000Y-72964524D01*
X134312619Y-73012143D01*
X135217380Y-73488334D02*
X135217380Y-73678810D01*
X135169761Y-73774048D01*
X135122142Y-73821667D01*
X134979285Y-73916905D01*
X134788809Y-73964524D01*
X134407857Y-73964524D01*
X134312619Y-73916905D01*
X134265000Y-73869286D01*
X134217380Y-73774048D01*
X134217380Y-73583572D01*
X134265000Y-73488334D01*
X134312619Y-73440715D01*
X134407857Y-73393096D01*
X134645952Y-73393096D01*
X134741190Y-73440715D01*
X134788809Y-73488334D01*
X134836428Y-73583572D01*
X134836428Y-73774048D01*
X134788809Y-73869286D01*
X134741190Y-73916905D01*
X134645952Y-73964524D01*
X135217380Y-74916905D02*
X135217380Y-74345477D01*
X135217380Y-74631191D02*
X134217380Y-74631191D01*
X134360238Y-74535953D01*
X134455476Y-74440715D01*
X134503095Y-74345477D01*
X138922380Y-98595832D02*
X138446190Y-98262499D01*
X138922380Y-98024403D02*
X137922380Y-98024403D01*
X137922380Y-98405356D01*
X137970000Y-98500594D01*
X138017619Y-98548213D01*
X138112857Y-98595832D01*
X138255714Y-98595832D01*
X138350952Y-98548213D01*
X138398571Y-98500594D01*
X138446190Y-98405356D01*
X138446190Y-98024403D01*
X138922380Y-99548213D02*
X138922380Y-98976784D01*
X138922380Y-99262499D02*
X137922380Y-99262499D01*
X138065238Y-99167260D01*
X138160476Y-99072022D01*
X138208095Y-98976784D01*
X150532380Y-124223333D02*
X150056190Y-123890000D01*
X150532380Y-123651904D02*
X149532380Y-123651904D01*
X149532380Y-124032857D01*
X149580000Y-124128095D01*
X149627619Y-124175714D01*
X149722857Y-124223333D01*
X149865714Y-124223333D01*
X149960952Y-124175714D01*
X150008571Y-124128095D01*
X150056190Y-124032857D01*
X150056190Y-123651904D01*
X149532380Y-124556666D02*
X149532380Y-125175714D01*
X149913333Y-124842380D01*
X149913333Y-124985238D01*
X149960952Y-125080476D01*
X150008571Y-125128095D01*
X150103809Y-125175714D01*
X150341904Y-125175714D01*
X150437142Y-125128095D01*
X150484761Y-125080476D01*
X150532380Y-124985238D01*
X150532380Y-124699523D01*
X150484761Y-124604285D01*
X150437142Y-124556666D01*
X150702380Y-117093333D02*
X150226190Y-116760000D01*
X150702380Y-116521904D02*
X149702380Y-116521904D01*
X149702380Y-116902857D01*
X149750000Y-116998095D01*
X149797619Y-117045714D01*
X149892857Y-117093333D01*
X150035714Y-117093333D01*
X150130952Y-117045714D01*
X150178571Y-116998095D01*
X150226190Y-116902857D01*
X150226190Y-116521904D01*
X150130952Y-117664761D02*
X150083333Y-117569523D01*
X150035714Y-117521904D01*
X149940476Y-117474285D01*
X149892857Y-117474285D01*
X149797619Y-117521904D01*
X149750000Y-117569523D01*
X149702380Y-117664761D01*
X149702380Y-117855238D01*
X149750000Y-117950476D01*
X149797619Y-117998095D01*
X149892857Y-118045714D01*
X149940476Y-118045714D01*
X150035714Y-117998095D01*
X150083333Y-117950476D01*
X150130952Y-117855238D01*
X150130952Y-117664761D01*
X150178571Y-117569523D01*
X150226190Y-117521904D01*
X150321428Y-117474285D01*
X150511904Y-117474285D01*
X150607142Y-117521904D01*
X150654761Y-117569523D01*
X150702380Y-117664761D01*
X150702380Y-117855238D01*
X150654761Y-117950476D01*
X150607142Y-117998095D01*
X150511904Y-118045714D01*
X150321428Y-118045714D01*
X150226190Y-117998095D01*
X150178571Y-117950476D01*
X150130952Y-117855238D01*
X150522380Y-110013333D02*
X150046190Y-109680000D01*
X150522380Y-109441904D02*
X149522380Y-109441904D01*
X149522380Y-109822857D01*
X149570000Y-109918095D01*
X149617619Y-109965714D01*
X149712857Y-110013333D01*
X149855714Y-110013333D01*
X149950952Y-109965714D01*
X149998571Y-109918095D01*
X150046190Y-109822857D01*
X150046190Y-109441904D01*
X150522380Y-110489523D02*
X150522380Y-110680000D01*
X150474761Y-110775238D01*
X150427142Y-110822857D01*
X150284285Y-110918095D01*
X150093809Y-110965714D01*
X149712857Y-110965714D01*
X149617619Y-110918095D01*
X149570000Y-110870476D01*
X149522380Y-110775238D01*
X149522380Y-110584761D01*
X149570000Y-110489523D01*
X149617619Y-110441904D01*
X149712857Y-110394285D01*
X149950952Y-110394285D01*
X150046190Y-110441904D01*
X150093809Y-110489523D01*
X150141428Y-110584761D01*
X150141428Y-110775238D01*
X150093809Y-110870476D01*
X150046190Y-110918095D01*
X149950952Y-110965714D01*
X99142380Y-88007142D02*
X98666190Y-87673809D01*
X99142380Y-87435714D02*
X98142380Y-87435714D01*
X98142380Y-87816666D01*
X98190000Y-87911904D01*
X98237619Y-87959523D01*
X98332857Y-88007142D01*
X98475714Y-88007142D01*
X98570952Y-87959523D01*
X98618571Y-87911904D01*
X98666190Y-87816666D01*
X98666190Y-87435714D01*
X99142380Y-88959523D02*
X99142380Y-88388095D01*
X99142380Y-88673809D02*
X98142380Y-88673809D01*
X98285238Y-88578571D01*
X98380476Y-88483333D01*
X98428095Y-88388095D01*
X98142380Y-89578571D02*
X98142380Y-89673809D01*
X98190000Y-89769047D01*
X98237619Y-89816666D01*
X98332857Y-89864285D01*
X98523333Y-89911904D01*
X98761428Y-89911904D01*
X98951904Y-89864285D01*
X99047142Y-89816666D01*
X99094761Y-89769047D01*
X99142380Y-89673809D01*
X99142380Y-89578571D01*
X99094761Y-89483333D01*
X99047142Y-89435714D01*
X98951904Y-89388095D01*
X98761428Y-89340476D01*
X98523333Y-89340476D01*
X98332857Y-89388095D01*
X98237619Y-89435714D01*
X98190000Y-89483333D01*
X98142380Y-89578571D01*
X91982380Y-69677142D02*
X91506190Y-69343809D01*
X91982380Y-69105714D02*
X90982380Y-69105714D01*
X90982380Y-69486666D01*
X91030000Y-69581904D01*
X91077619Y-69629523D01*
X91172857Y-69677142D01*
X91315714Y-69677142D01*
X91410952Y-69629523D01*
X91458571Y-69581904D01*
X91506190Y-69486666D01*
X91506190Y-69105714D01*
X91982380Y-70629523D02*
X91982380Y-70058095D01*
X91982380Y-70343809D02*
X90982380Y-70343809D01*
X91125238Y-70248571D01*
X91220476Y-70153333D01*
X91268095Y-70058095D01*
X91982380Y-71581904D02*
X91982380Y-71010476D01*
X91982380Y-71296190D02*
X90982380Y-71296190D01*
X91125238Y-71200952D01*
X91220476Y-71105714D01*
X91268095Y-71010476D01*
X94922380Y-87387142D02*
X94446190Y-87053809D01*
X94922380Y-86815714D02*
X93922380Y-86815714D01*
X93922380Y-87196666D01*
X93970000Y-87291904D01*
X94017619Y-87339523D01*
X94112857Y-87387142D01*
X94255714Y-87387142D01*
X94350952Y-87339523D01*
X94398571Y-87291904D01*
X94446190Y-87196666D01*
X94446190Y-86815714D01*
X94922380Y-88339523D02*
X94922380Y-87768095D01*
X94922380Y-88053809D02*
X93922380Y-88053809D01*
X94065238Y-87958571D01*
X94160476Y-87863333D01*
X94208095Y-87768095D01*
X94017619Y-88720476D02*
X93970000Y-88768095D01*
X93922380Y-88863333D01*
X93922380Y-89101428D01*
X93970000Y-89196666D01*
X94017619Y-89244285D01*
X94112857Y-89291904D01*
X94208095Y-89291904D01*
X94350952Y-89244285D01*
X94922380Y-88672857D01*
X94922380Y-89291904D01*
X96152379Y-70227142D02*
X95676189Y-69893809D01*
X96152379Y-69655714D02*
X95152379Y-69655714D01*
X95152379Y-70036666D01*
X95199999Y-70131904D01*
X95247618Y-70179523D01*
X95342856Y-70227142D01*
X95485713Y-70227142D01*
X95580951Y-70179523D01*
X95628570Y-70131904D01*
X95676189Y-70036666D01*
X95676189Y-69655714D01*
X96152379Y-71179523D02*
X96152379Y-70608095D01*
X96152379Y-70893809D02*
X95152379Y-70893809D01*
X95295237Y-70798571D01*
X95390475Y-70703333D01*
X95438094Y-70608095D01*
X95152379Y-71512857D02*
X95152379Y-72131904D01*
X95533332Y-71798571D01*
X95533332Y-71941428D01*
X95580951Y-72036666D01*
X95628570Y-72084285D01*
X95723808Y-72131904D01*
X95961903Y-72131904D01*
X96057141Y-72084285D01*
X96104760Y-72036666D01*
X96152379Y-71941428D01*
X96152379Y-71655714D01*
X96104760Y-71560476D01*
X96057141Y-71512857D01*
X107552857Y-90262380D02*
X107886190Y-89786190D01*
X108124285Y-90262380D02*
X108124285Y-89262380D01*
X107743333Y-89262380D01*
X107648095Y-89310000D01*
X107600476Y-89357619D01*
X107552857Y-89452857D01*
X107552857Y-89595714D01*
X107600476Y-89690952D01*
X107648095Y-89738571D01*
X107743333Y-89786190D01*
X108124285Y-89786190D01*
X106600476Y-90262380D02*
X107171904Y-90262380D01*
X106886190Y-90262380D02*
X106886190Y-89262380D01*
X106981428Y-89405238D01*
X107076666Y-89500476D01*
X107171904Y-89548095D01*
X105743333Y-89262380D02*
X105933809Y-89262380D01*
X106029047Y-89310000D01*
X106076666Y-89357619D01*
X106171904Y-89500476D01*
X106219523Y-89690952D01*
X106219523Y-90071904D01*
X106171904Y-90167142D01*
X106124285Y-90214761D01*
X106029047Y-90262380D01*
X105838571Y-90262380D01*
X105743333Y-90214761D01*
X105695714Y-90167142D01*
X105648095Y-90071904D01*
X105648095Y-89833809D01*
X105695714Y-89738571D01*
X105743333Y-89690952D01*
X105838571Y-89643333D01*
X106029047Y-89643333D01*
X106124285Y-89690952D01*
X106171904Y-89738571D01*
X106219523Y-89833809D01*
X83630357Y-70132380D02*
X83963690Y-69656190D01*
X84201785Y-70132380D02*
X84201785Y-69132380D01*
X83820833Y-69132380D01*
X83725595Y-69180000D01*
X83677976Y-69227619D01*
X83630357Y-69322857D01*
X83630357Y-69465714D01*
X83677976Y-69560952D01*
X83725595Y-69608571D01*
X83820833Y-69656190D01*
X84201785Y-69656190D01*
X82677976Y-70132380D02*
X83249404Y-70132380D01*
X82963690Y-70132380D02*
X82963690Y-69132380D01*
X83058928Y-69275238D01*
X83154166Y-69370476D01*
X83249404Y-69418095D01*
X82344642Y-69132380D02*
X81677976Y-69132380D01*
X82106547Y-70132380D01*
X105192380Y-86207142D02*
X104716190Y-85873809D01*
X105192380Y-85635714D02*
X104192380Y-85635714D01*
X104192380Y-86016666D01*
X104240000Y-86111904D01*
X104287619Y-86159523D01*
X104382857Y-86207142D01*
X104525714Y-86207142D01*
X104620952Y-86159523D01*
X104668571Y-86111904D01*
X104716190Y-86016666D01*
X104716190Y-85635714D01*
X104192380Y-86540476D02*
X104192380Y-87159523D01*
X104573333Y-86826190D01*
X104573333Y-86969047D01*
X104620952Y-87064285D01*
X104668571Y-87111904D01*
X104763809Y-87159523D01*
X105001904Y-87159523D01*
X105097142Y-87111904D01*
X105144761Y-87064285D01*
X105192380Y-86969047D01*
X105192380Y-86683333D01*
X105144761Y-86588095D01*
X105097142Y-86540476D01*
X104192380Y-87492857D02*
X104192380Y-88111904D01*
X104573333Y-87778571D01*
X104573333Y-87921428D01*
X104620952Y-88016666D01*
X104668571Y-88064285D01*
X104763809Y-88111904D01*
X105001904Y-88111904D01*
X105097142Y-88064285D01*
X105144761Y-88016666D01*
X105192380Y-87921428D01*
X105192380Y-87635714D01*
X105144761Y-87540476D01*
X105097142Y-87492857D01*
X85232380Y-71567142D02*
X84756190Y-71233809D01*
X85232380Y-70995714D02*
X84232380Y-70995714D01*
X84232380Y-71376666D01*
X84280000Y-71471904D01*
X84327619Y-71519523D01*
X84422857Y-71567142D01*
X84565714Y-71567142D01*
X84660952Y-71519523D01*
X84708571Y-71471904D01*
X84756190Y-71376666D01*
X84756190Y-70995714D01*
X84232380Y-71900476D02*
X84232380Y-72519523D01*
X84613333Y-72186190D01*
X84613333Y-72329047D01*
X84660952Y-72424285D01*
X84708571Y-72471904D01*
X84803809Y-72519523D01*
X85041904Y-72519523D01*
X85137142Y-72471904D01*
X85184761Y-72424285D01*
X85232380Y-72329047D01*
X85232380Y-72043333D01*
X85184761Y-71948095D01*
X85137142Y-71900476D01*
X84232380Y-73424285D02*
X84232380Y-72948095D01*
X84708571Y-72900476D01*
X84660952Y-72948095D01*
X84613333Y-73043333D01*
X84613333Y-73281428D01*
X84660952Y-73376666D01*
X84708571Y-73424285D01*
X84803809Y-73471904D01*
X85041904Y-73471904D01*
X85137142Y-73424285D01*
X85184761Y-73376666D01*
X85232380Y-73281428D01*
X85232380Y-73043333D01*
X85184761Y-72948095D01*
X85137142Y-72900476D01*
X105282380Y-82607142D02*
X104806190Y-82273809D01*
X105282380Y-82035714D02*
X104282380Y-82035714D01*
X104282380Y-82416666D01*
X104330000Y-82511904D01*
X104377619Y-82559523D01*
X104472857Y-82607142D01*
X104615714Y-82607142D01*
X104710952Y-82559523D01*
X104758571Y-82511904D01*
X104806190Y-82416666D01*
X104806190Y-82035714D01*
X104282380Y-82940476D02*
X104282380Y-83559523D01*
X104663333Y-83226190D01*
X104663333Y-83369047D01*
X104710952Y-83464285D01*
X104758571Y-83511904D01*
X104853809Y-83559523D01*
X105091904Y-83559523D01*
X105187142Y-83511904D01*
X105234761Y-83464285D01*
X105282380Y-83369047D01*
X105282380Y-83083333D01*
X105234761Y-82988095D01*
X105187142Y-82940476D01*
X104282380Y-84416666D02*
X104282380Y-84226190D01*
X104330000Y-84130952D01*
X104377619Y-84083333D01*
X104520476Y-83988095D01*
X104710952Y-83940476D01*
X105091904Y-83940476D01*
X105187142Y-83988095D01*
X105234761Y-84035714D01*
X105282380Y-84130952D01*
X105282380Y-84321428D01*
X105234761Y-84416666D01*
X105187142Y-84464285D01*
X105091904Y-84511904D01*
X104853809Y-84511904D01*
X104758571Y-84464285D01*
X104710952Y-84416666D01*
X104663333Y-84321428D01*
X104663333Y-84130952D01*
X104710952Y-84035714D01*
X104758571Y-83988095D01*
X104853809Y-83940476D01*
X85922380Y-74997142D02*
X85446190Y-74663809D01*
X85922380Y-74425714D02*
X84922380Y-74425714D01*
X84922380Y-74806666D01*
X84970000Y-74901904D01*
X85017619Y-74949523D01*
X85112857Y-74997142D01*
X85255714Y-74997142D01*
X85350952Y-74949523D01*
X85398571Y-74901904D01*
X85446190Y-74806666D01*
X85446190Y-74425714D01*
X84922380Y-75330476D02*
X84922380Y-75949523D01*
X85303333Y-75616190D01*
X85303333Y-75759047D01*
X85350952Y-75854285D01*
X85398571Y-75901904D01*
X85493809Y-75949523D01*
X85731904Y-75949523D01*
X85827142Y-75901904D01*
X85874761Y-75854285D01*
X85922380Y-75759047D01*
X85922380Y-75473333D01*
X85874761Y-75378095D01*
X85827142Y-75330476D01*
X84922380Y-76282857D02*
X84922380Y-76949523D01*
X85922380Y-76520952D01*
X101852857Y-84332380D02*
X102186190Y-83856190D01*
X102424285Y-84332380D02*
X102424285Y-83332380D01*
X102043333Y-83332380D01*
X101948095Y-83380000D01*
X101900476Y-83427619D01*
X101852857Y-83522857D01*
X101852857Y-83665714D01*
X101900476Y-83760952D01*
X101948095Y-83808571D01*
X102043333Y-83856190D01*
X102424285Y-83856190D01*
X101519523Y-83332380D02*
X100900476Y-83332380D01*
X101233809Y-83713333D01*
X101090952Y-83713333D01*
X100995714Y-83760952D01*
X100948095Y-83808571D01*
X100900476Y-83903809D01*
X100900476Y-84141904D01*
X100948095Y-84237142D01*
X100995714Y-84284761D01*
X101090952Y-84332380D01*
X101376666Y-84332380D01*
X101471904Y-84284761D01*
X101519523Y-84237142D01*
X100329047Y-83760952D02*
X100424285Y-83713333D01*
X100471904Y-83665714D01*
X100519523Y-83570476D01*
X100519523Y-83522857D01*
X100471904Y-83427619D01*
X100424285Y-83380000D01*
X100329047Y-83332380D01*
X100138571Y-83332380D01*
X100043333Y-83380000D01*
X99995714Y-83427619D01*
X99948095Y-83522857D01*
X99948095Y-83570476D01*
X99995714Y-83665714D01*
X100043333Y-83713333D01*
X100138571Y-83760952D01*
X100329047Y-83760952D01*
X100424285Y-83808571D01*
X100471904Y-83856190D01*
X100519523Y-83951428D01*
X100519523Y-84141904D01*
X100471904Y-84237142D01*
X100424285Y-84284761D01*
X100329047Y-84332380D01*
X100138571Y-84332380D01*
X100043333Y-84284761D01*
X99995714Y-84237142D01*
X99948095Y-84141904D01*
X99948095Y-83951428D01*
X99995714Y-83856190D01*
X100043333Y-83808571D01*
X100138571Y-83760952D01*
X89822857Y-75472380D02*
X90156190Y-74996190D01*
X90394285Y-75472380D02*
X90394285Y-74472380D01*
X90013333Y-74472380D01*
X89918095Y-74520000D01*
X89870476Y-74567619D01*
X89822857Y-74662857D01*
X89822857Y-74805714D01*
X89870476Y-74900952D01*
X89918095Y-74948571D01*
X90013333Y-74996190D01*
X90394285Y-74996190D01*
X89489523Y-74472380D02*
X88870476Y-74472380D01*
X89203809Y-74853333D01*
X89060952Y-74853333D01*
X88965714Y-74900952D01*
X88918095Y-74948571D01*
X88870476Y-75043809D01*
X88870476Y-75281904D01*
X88918095Y-75377142D01*
X88965714Y-75424761D01*
X89060952Y-75472380D01*
X89346666Y-75472380D01*
X89441904Y-75424761D01*
X89489523Y-75377142D01*
X88394285Y-75472380D02*
X88203809Y-75472380D01*
X88108571Y-75424761D01*
X88060952Y-75377142D01*
X87965714Y-75234285D01*
X87918095Y-75043809D01*
X87918095Y-74662857D01*
X87965714Y-74567619D01*
X88013333Y-74520000D01*
X88108571Y-74472380D01*
X88299047Y-74472380D01*
X88394285Y-74520000D01*
X88441904Y-74567619D01*
X88489523Y-74662857D01*
X88489523Y-74900952D01*
X88441904Y-74996190D01*
X88394285Y-75043809D01*
X88299047Y-75091428D01*
X88108571Y-75091428D01*
X88013333Y-75043809D01*
X87965714Y-74996190D01*
X87918095Y-74900952D01*
X100732380Y-76987142D02*
X100256190Y-76653809D01*
X100732380Y-76415714D02*
X99732380Y-76415714D01*
X99732380Y-76796666D01*
X99780000Y-76891904D01*
X99827619Y-76939523D01*
X99922857Y-76987142D01*
X100065714Y-76987142D01*
X100160952Y-76939523D01*
X100208571Y-76891904D01*
X100256190Y-76796666D01*
X100256190Y-76415714D01*
X100065714Y-77844285D02*
X100732380Y-77844285D01*
X99684761Y-77606190D02*
X100399047Y-77368095D01*
X100399047Y-77987142D01*
X99732380Y-78558571D02*
X99732380Y-78653809D01*
X99780000Y-78749047D01*
X99827619Y-78796666D01*
X99922857Y-78844285D01*
X100113333Y-78891904D01*
X100351428Y-78891904D01*
X100541904Y-78844285D01*
X100637142Y-78796666D01*
X100684761Y-78749047D01*
X100732380Y-78653809D01*
X100732380Y-78558571D01*
X100684761Y-78463333D01*
X100637142Y-78415714D01*
X100541904Y-78368095D01*
X100351428Y-78320476D01*
X100113333Y-78320476D01*
X99922857Y-78368095D01*
X99827619Y-78415714D01*
X99780000Y-78463333D01*
X99732380Y-78558571D01*
X90492380Y-81027142D02*
X90016190Y-80693809D01*
X90492380Y-80455714D02*
X89492380Y-80455714D01*
X89492380Y-80836666D01*
X89540000Y-80931904D01*
X89587619Y-80979523D01*
X89682857Y-81027142D01*
X89825714Y-81027142D01*
X89920952Y-80979523D01*
X89968571Y-80931904D01*
X90016190Y-80836666D01*
X90016190Y-80455714D01*
X89825714Y-81884285D02*
X90492380Y-81884285D01*
X89444761Y-81646190D02*
X90159047Y-81408095D01*
X90159047Y-82027142D01*
X90492380Y-82931904D02*
X90492380Y-82360476D01*
X90492380Y-82646190D02*
X89492380Y-82646190D01*
X89635238Y-82550952D01*
X89730476Y-82455714D01*
X89778095Y-82360476D01*
X141377381Y-87162143D02*
X140901191Y-86828810D01*
X141377381Y-86590715D02*
X140377381Y-86590715D01*
X140377381Y-86971667D01*
X140425001Y-87066905D01*
X140472620Y-87114524D01*
X140567858Y-87162143D01*
X140710715Y-87162143D01*
X140805953Y-87114524D01*
X140853572Y-87066905D01*
X140901191Y-86971667D01*
X140901191Y-86590715D01*
X140377381Y-88066905D02*
X140377381Y-87590715D01*
X140853572Y-87543096D01*
X140805953Y-87590715D01*
X140758334Y-87685953D01*
X140758334Y-87924048D01*
X140805953Y-88019286D01*
X140853572Y-88066905D01*
X140948810Y-88114524D01*
X141186905Y-88114524D01*
X141282143Y-88066905D01*
X141329762Y-88019286D01*
X141377381Y-87924048D01*
X141377381Y-87685953D01*
X141329762Y-87590715D01*
X141282143Y-87543096D01*
X140805953Y-88685953D02*
X140758334Y-88590715D01*
X140710715Y-88543096D01*
X140615477Y-88495477D01*
X140567858Y-88495477D01*
X140472620Y-88543096D01*
X140425001Y-88590715D01*
X140377381Y-88685953D01*
X140377381Y-88876429D01*
X140425001Y-88971667D01*
X140472620Y-89019286D01*
X140567858Y-89066905D01*
X140615477Y-89066905D01*
X140710715Y-89019286D01*
X140758334Y-88971667D01*
X140805953Y-88876429D01*
X140805953Y-88685953D01*
X140853572Y-88590715D01*
X140901191Y-88543096D01*
X140996429Y-88495477D01*
X141186905Y-88495477D01*
X141282143Y-88543096D01*
X141329762Y-88590715D01*
X141377381Y-88685953D01*
X141377381Y-88876429D01*
X141329762Y-88971667D01*
X141282143Y-89019286D01*
X141186905Y-89066905D01*
X140996429Y-89066905D01*
X140901191Y-89019286D01*
X140853572Y-88971667D01*
X140805953Y-88876429D01*
X134217381Y-68832143D02*
X133741191Y-68498810D01*
X134217381Y-68260715D02*
X133217381Y-68260715D01*
X133217381Y-68641667D01*
X133265001Y-68736905D01*
X133312620Y-68784524D01*
X133407858Y-68832143D01*
X133550715Y-68832143D01*
X133645953Y-68784524D01*
X133693572Y-68736905D01*
X133741191Y-68641667D01*
X133741191Y-68260715D01*
X133217381Y-69736905D02*
X133217381Y-69260715D01*
X133693572Y-69213096D01*
X133645953Y-69260715D01*
X133598334Y-69355953D01*
X133598334Y-69594048D01*
X133645953Y-69689286D01*
X133693572Y-69736905D01*
X133788810Y-69784524D01*
X134026905Y-69784524D01*
X134122143Y-69736905D01*
X134169762Y-69689286D01*
X134217381Y-69594048D01*
X134217381Y-69355953D01*
X134169762Y-69260715D01*
X134122143Y-69213096D01*
X134217381Y-70260715D02*
X134217381Y-70451191D01*
X134169762Y-70546429D01*
X134122143Y-70594048D01*
X133979286Y-70689286D01*
X133788810Y-70736905D01*
X133407858Y-70736905D01*
X133312620Y-70689286D01*
X133265001Y-70641667D01*
X133217381Y-70546429D01*
X133217381Y-70355953D01*
X133265001Y-70260715D01*
X133312620Y-70213096D01*
X133407858Y-70165477D01*
X133645953Y-70165477D01*
X133741191Y-70213096D01*
X133788810Y-70260715D01*
X133836429Y-70355953D01*
X133836429Y-70546429D01*
X133788810Y-70641667D01*
X133741191Y-70689286D01*
X133645953Y-70736905D01*
X137157381Y-86542143D02*
X136681191Y-86208810D01*
X137157381Y-85970715D02*
X136157381Y-85970715D01*
X136157381Y-86351667D01*
X136205001Y-86446905D01*
X136252620Y-86494524D01*
X136347858Y-86542143D01*
X136490715Y-86542143D01*
X136585953Y-86494524D01*
X136633572Y-86446905D01*
X136681191Y-86351667D01*
X136681191Y-85970715D01*
X136157381Y-87399286D02*
X136157381Y-87208810D01*
X136205001Y-87113572D01*
X136252620Y-87065953D01*
X136395477Y-86970715D01*
X136585953Y-86923096D01*
X136966905Y-86923096D01*
X137062143Y-86970715D01*
X137109762Y-87018334D01*
X137157381Y-87113572D01*
X137157381Y-87304048D01*
X137109762Y-87399286D01*
X137062143Y-87446905D01*
X136966905Y-87494524D01*
X136728810Y-87494524D01*
X136633572Y-87446905D01*
X136585953Y-87399286D01*
X136538334Y-87304048D01*
X136538334Y-87113572D01*
X136585953Y-87018334D01*
X136633572Y-86970715D01*
X136728810Y-86923096D01*
X136157381Y-88113572D02*
X136157381Y-88208810D01*
X136205001Y-88304048D01*
X136252620Y-88351667D01*
X136347858Y-88399286D01*
X136538334Y-88446905D01*
X136776429Y-88446905D01*
X136966905Y-88399286D01*
X137062143Y-88351667D01*
X137109762Y-88304048D01*
X137157381Y-88208810D01*
X137157381Y-88113572D01*
X137109762Y-88018334D01*
X137062143Y-87970715D01*
X136966905Y-87923096D01*
X136776429Y-87875477D01*
X136538334Y-87875477D01*
X136347858Y-87923096D01*
X136252620Y-87970715D01*
X136205001Y-88018334D01*
X136157381Y-88113572D01*
X138387380Y-69382143D02*
X137911190Y-69048810D01*
X138387380Y-68810715D02*
X137387380Y-68810715D01*
X137387380Y-69191667D01*
X137435000Y-69286905D01*
X137482619Y-69334524D01*
X137577857Y-69382143D01*
X137720714Y-69382143D01*
X137815952Y-69334524D01*
X137863571Y-69286905D01*
X137911190Y-69191667D01*
X137911190Y-68810715D01*
X137387380Y-70239286D02*
X137387380Y-70048810D01*
X137435000Y-69953572D01*
X137482619Y-69905953D01*
X137625476Y-69810715D01*
X137815952Y-69763096D01*
X138196904Y-69763096D01*
X138292142Y-69810715D01*
X138339761Y-69858334D01*
X138387380Y-69953572D01*
X138387380Y-70144048D01*
X138339761Y-70239286D01*
X138292142Y-70286905D01*
X138196904Y-70334524D01*
X137958809Y-70334524D01*
X137863571Y-70286905D01*
X137815952Y-70239286D01*
X137768333Y-70144048D01*
X137768333Y-69953572D01*
X137815952Y-69858334D01*
X137863571Y-69810715D01*
X137958809Y-69763096D01*
X138387380Y-71286905D02*
X138387380Y-70715477D01*
X138387380Y-71001191D02*
X137387380Y-71001191D01*
X137530238Y-70905953D01*
X137625476Y-70810715D01*
X137673095Y-70715477D01*
X149787858Y-89417381D02*
X150121191Y-88941191D01*
X150359286Y-89417381D02*
X150359286Y-88417381D01*
X149978334Y-88417381D01*
X149883096Y-88465001D01*
X149835477Y-88512620D01*
X149787858Y-88607858D01*
X149787858Y-88750715D01*
X149835477Y-88845953D01*
X149883096Y-88893572D01*
X149978334Y-88941191D01*
X150359286Y-88941191D01*
X148930715Y-88417381D02*
X149121191Y-88417381D01*
X149216429Y-88465001D01*
X149264048Y-88512620D01*
X149359286Y-88655477D01*
X149406905Y-88845953D01*
X149406905Y-89226905D01*
X149359286Y-89322143D01*
X149311667Y-89369762D01*
X149216429Y-89417381D01*
X149025953Y-89417381D01*
X148930715Y-89369762D01*
X148883096Y-89322143D01*
X148835477Y-89226905D01*
X148835477Y-88988810D01*
X148883096Y-88893572D01*
X148930715Y-88845953D01*
X149025953Y-88798334D01*
X149216429Y-88798334D01*
X149311667Y-88845953D01*
X149359286Y-88893572D01*
X149406905Y-88988810D01*
X147978334Y-88750715D02*
X147978334Y-89417381D01*
X148216429Y-88369762D02*
X148454524Y-89084048D01*
X147835477Y-89084048D01*
X125865358Y-69287381D02*
X126198691Y-68811191D01*
X126436786Y-69287381D02*
X126436786Y-68287381D01*
X126055834Y-68287381D01*
X125960596Y-68335001D01*
X125912977Y-68382620D01*
X125865358Y-68477858D01*
X125865358Y-68620715D01*
X125912977Y-68715953D01*
X125960596Y-68763572D01*
X126055834Y-68811191D01*
X126436786Y-68811191D01*
X125008215Y-68287381D02*
X125198691Y-68287381D01*
X125293929Y-68335001D01*
X125341548Y-68382620D01*
X125436786Y-68525477D01*
X125484405Y-68715953D01*
X125484405Y-69096905D01*
X125436786Y-69192143D01*
X125389167Y-69239762D01*
X125293929Y-69287381D01*
X125103453Y-69287381D01*
X125008215Y-69239762D01*
X124960596Y-69192143D01*
X124912977Y-69096905D01*
X124912977Y-68858810D01*
X124960596Y-68763572D01*
X125008215Y-68715953D01*
X125103453Y-68668334D01*
X125293929Y-68668334D01*
X125389167Y-68715953D01*
X125436786Y-68763572D01*
X125484405Y-68858810D01*
X124008215Y-68287381D02*
X124484405Y-68287381D01*
X124532024Y-68763572D01*
X124484405Y-68715953D01*
X124389167Y-68668334D01*
X124151072Y-68668334D01*
X124055834Y-68715953D01*
X124008215Y-68763572D01*
X123960596Y-68858810D01*
X123960596Y-69096905D01*
X124008215Y-69192143D01*
X124055834Y-69239762D01*
X124151072Y-69287381D01*
X124389167Y-69287381D01*
X124484405Y-69239762D01*
X124532024Y-69192143D01*
X147427381Y-85362143D02*
X146951191Y-85028810D01*
X147427381Y-84790715D02*
X146427381Y-84790715D01*
X146427381Y-85171667D01*
X146475001Y-85266905D01*
X146522620Y-85314524D01*
X146617858Y-85362143D01*
X146760715Y-85362143D01*
X146855953Y-85314524D01*
X146903572Y-85266905D01*
X146951191Y-85171667D01*
X146951191Y-84790715D01*
X146855953Y-85933572D02*
X146808334Y-85838334D01*
X146760715Y-85790715D01*
X146665477Y-85743096D01*
X146617858Y-85743096D01*
X146522620Y-85790715D01*
X146475001Y-85838334D01*
X146427381Y-85933572D01*
X146427381Y-86124048D01*
X146475001Y-86219286D01*
X146522620Y-86266905D01*
X146617858Y-86314524D01*
X146665477Y-86314524D01*
X146760715Y-86266905D01*
X146808334Y-86219286D01*
X146855953Y-86124048D01*
X146855953Y-85933572D01*
X146903572Y-85838334D01*
X146951191Y-85790715D01*
X147046429Y-85743096D01*
X147236905Y-85743096D01*
X147332143Y-85790715D01*
X147379762Y-85838334D01*
X147427381Y-85933572D01*
X147427381Y-86124048D01*
X147379762Y-86219286D01*
X147332143Y-86266905D01*
X147236905Y-86314524D01*
X147046429Y-86314524D01*
X146951191Y-86266905D01*
X146903572Y-86219286D01*
X146855953Y-86124048D01*
X147427381Y-87266905D02*
X147427381Y-86695477D01*
X147427381Y-86981191D02*
X146427381Y-86981191D01*
X146570239Y-86885953D01*
X146665477Y-86790715D01*
X146713096Y-86695477D01*
X127467381Y-70722143D02*
X126991191Y-70388810D01*
X127467381Y-70150715D02*
X126467381Y-70150715D01*
X126467381Y-70531667D01*
X126515001Y-70626905D01*
X126562620Y-70674524D01*
X126657858Y-70722143D01*
X126800715Y-70722143D01*
X126895953Y-70674524D01*
X126943572Y-70626905D01*
X126991191Y-70531667D01*
X126991191Y-70150715D01*
X126895953Y-71293572D02*
X126848334Y-71198334D01*
X126800715Y-71150715D01*
X126705477Y-71103096D01*
X126657858Y-71103096D01*
X126562620Y-71150715D01*
X126515001Y-71198334D01*
X126467381Y-71293572D01*
X126467381Y-71484048D01*
X126515001Y-71579286D01*
X126562620Y-71626905D01*
X126657858Y-71674524D01*
X126705477Y-71674524D01*
X126800715Y-71626905D01*
X126848334Y-71579286D01*
X126895953Y-71484048D01*
X126895953Y-71293572D01*
X126943572Y-71198334D01*
X126991191Y-71150715D01*
X127086429Y-71103096D01*
X127276905Y-71103096D01*
X127372143Y-71150715D01*
X127419762Y-71198334D01*
X127467381Y-71293572D01*
X127467381Y-71484048D01*
X127419762Y-71579286D01*
X127372143Y-71626905D01*
X127276905Y-71674524D01*
X127086429Y-71674524D01*
X126991191Y-71626905D01*
X126943572Y-71579286D01*
X126895953Y-71484048D01*
X126467381Y-72007858D02*
X126467381Y-72626905D01*
X126848334Y-72293572D01*
X126848334Y-72436429D01*
X126895953Y-72531667D01*
X126943572Y-72579286D01*
X127038810Y-72626905D01*
X127276905Y-72626905D01*
X127372143Y-72579286D01*
X127419762Y-72531667D01*
X127467381Y-72436429D01*
X127467381Y-72150715D01*
X127419762Y-72055477D01*
X127372143Y-72007858D01*
X147517381Y-81762143D02*
X147041191Y-81428810D01*
X147517381Y-81190715D02*
X146517381Y-81190715D01*
X146517381Y-81571667D01*
X146565001Y-81666905D01*
X146612620Y-81714524D01*
X146707858Y-81762143D01*
X146850715Y-81762143D01*
X146945953Y-81714524D01*
X146993572Y-81666905D01*
X147041191Y-81571667D01*
X147041191Y-81190715D01*
X146945953Y-82333572D02*
X146898334Y-82238334D01*
X146850715Y-82190715D01*
X146755477Y-82143096D01*
X146707858Y-82143096D01*
X146612620Y-82190715D01*
X146565001Y-82238334D01*
X146517381Y-82333572D01*
X146517381Y-82524048D01*
X146565001Y-82619286D01*
X146612620Y-82666905D01*
X146707858Y-82714524D01*
X146755477Y-82714524D01*
X146850715Y-82666905D01*
X146898334Y-82619286D01*
X146945953Y-82524048D01*
X146945953Y-82333572D01*
X146993572Y-82238334D01*
X147041191Y-82190715D01*
X147136429Y-82143096D01*
X147326905Y-82143096D01*
X147422143Y-82190715D01*
X147469762Y-82238334D01*
X147517381Y-82333572D01*
X147517381Y-82524048D01*
X147469762Y-82619286D01*
X147422143Y-82666905D01*
X147326905Y-82714524D01*
X147136429Y-82714524D01*
X147041191Y-82666905D01*
X146993572Y-82619286D01*
X146945953Y-82524048D01*
X146850715Y-83571667D02*
X147517381Y-83571667D01*
X146469762Y-83333572D02*
X147184048Y-83095477D01*
X147184048Y-83714524D01*
X128157381Y-74152143D02*
X127681191Y-73818810D01*
X128157381Y-73580715D02*
X127157381Y-73580715D01*
X127157381Y-73961667D01*
X127205001Y-74056905D01*
X127252620Y-74104524D01*
X127347858Y-74152143D01*
X127490715Y-74152143D01*
X127585953Y-74104524D01*
X127633572Y-74056905D01*
X127681191Y-73961667D01*
X127681191Y-73580715D01*
X127585953Y-74723572D02*
X127538334Y-74628334D01*
X127490715Y-74580715D01*
X127395477Y-74533096D01*
X127347858Y-74533096D01*
X127252620Y-74580715D01*
X127205001Y-74628334D01*
X127157381Y-74723572D01*
X127157381Y-74914048D01*
X127205001Y-75009286D01*
X127252620Y-75056905D01*
X127347858Y-75104524D01*
X127395477Y-75104524D01*
X127490715Y-75056905D01*
X127538334Y-75009286D01*
X127585953Y-74914048D01*
X127585953Y-74723572D01*
X127633572Y-74628334D01*
X127681191Y-74580715D01*
X127776429Y-74533096D01*
X127966905Y-74533096D01*
X128062143Y-74580715D01*
X128109762Y-74628334D01*
X128157381Y-74723572D01*
X128157381Y-74914048D01*
X128109762Y-75009286D01*
X128062143Y-75056905D01*
X127966905Y-75104524D01*
X127776429Y-75104524D01*
X127681191Y-75056905D01*
X127633572Y-75009286D01*
X127585953Y-74914048D01*
X127157381Y-76009286D02*
X127157381Y-75533096D01*
X127633572Y-75485477D01*
X127585953Y-75533096D01*
X127538334Y-75628334D01*
X127538334Y-75866429D01*
X127585953Y-75961667D01*
X127633572Y-76009286D01*
X127728810Y-76056905D01*
X127966905Y-76056905D01*
X128062143Y-76009286D01*
X128109762Y-75961667D01*
X128157381Y-75866429D01*
X128157381Y-75628334D01*
X128109762Y-75533096D01*
X128062143Y-75485477D01*
X144087858Y-83487381D02*
X144421191Y-83011191D01*
X144659286Y-83487381D02*
X144659286Y-82487381D01*
X144278334Y-82487381D01*
X144183096Y-82535001D01*
X144135477Y-82582620D01*
X144087858Y-82677858D01*
X144087858Y-82820715D01*
X144135477Y-82915953D01*
X144183096Y-82963572D01*
X144278334Y-83011191D01*
X144659286Y-83011191D01*
X143516429Y-82915953D02*
X143611667Y-82868334D01*
X143659286Y-82820715D01*
X143706905Y-82725477D01*
X143706905Y-82677858D01*
X143659286Y-82582620D01*
X143611667Y-82535001D01*
X143516429Y-82487381D01*
X143325953Y-82487381D01*
X143230715Y-82535001D01*
X143183096Y-82582620D01*
X143135477Y-82677858D01*
X143135477Y-82725477D01*
X143183096Y-82820715D01*
X143230715Y-82868334D01*
X143325953Y-82915953D01*
X143516429Y-82915953D01*
X143611667Y-82963572D01*
X143659286Y-83011191D01*
X143706905Y-83106429D01*
X143706905Y-83296905D01*
X143659286Y-83392143D01*
X143611667Y-83439762D01*
X143516429Y-83487381D01*
X143325953Y-83487381D01*
X143230715Y-83439762D01*
X143183096Y-83392143D01*
X143135477Y-83296905D01*
X143135477Y-83106429D01*
X143183096Y-83011191D01*
X143230715Y-82963572D01*
X143325953Y-82915953D01*
X142278334Y-82487381D02*
X142468810Y-82487381D01*
X142564048Y-82535001D01*
X142611667Y-82582620D01*
X142706905Y-82725477D01*
X142754524Y-82915953D01*
X142754524Y-83296905D01*
X142706905Y-83392143D01*
X142659286Y-83439762D01*
X142564048Y-83487381D01*
X142373572Y-83487381D01*
X142278334Y-83439762D01*
X142230715Y-83392143D01*
X142183096Y-83296905D01*
X142183096Y-83058810D01*
X142230715Y-82963572D01*
X142278334Y-82915953D01*
X142373572Y-82868334D01*
X142564048Y-82868334D01*
X142659286Y-82915953D01*
X142706905Y-82963572D01*
X142754524Y-83058810D01*
X132057858Y-74627381D02*
X132391191Y-74151191D01*
X132629286Y-74627381D02*
X132629286Y-73627381D01*
X132248334Y-73627381D01*
X132153096Y-73675001D01*
X132105477Y-73722620D01*
X132057858Y-73817858D01*
X132057858Y-73960715D01*
X132105477Y-74055953D01*
X132153096Y-74103572D01*
X132248334Y-74151191D01*
X132629286Y-74151191D01*
X131486429Y-74055953D02*
X131581667Y-74008334D01*
X131629286Y-73960715D01*
X131676905Y-73865477D01*
X131676905Y-73817858D01*
X131629286Y-73722620D01*
X131581667Y-73675001D01*
X131486429Y-73627381D01*
X131295953Y-73627381D01*
X131200715Y-73675001D01*
X131153096Y-73722620D01*
X131105477Y-73817858D01*
X131105477Y-73865477D01*
X131153096Y-73960715D01*
X131200715Y-74008334D01*
X131295953Y-74055953D01*
X131486429Y-74055953D01*
X131581667Y-74103572D01*
X131629286Y-74151191D01*
X131676905Y-74246429D01*
X131676905Y-74436905D01*
X131629286Y-74532143D01*
X131581667Y-74579762D01*
X131486429Y-74627381D01*
X131295953Y-74627381D01*
X131200715Y-74579762D01*
X131153096Y-74532143D01*
X131105477Y-74436905D01*
X131105477Y-74246429D01*
X131153096Y-74151191D01*
X131200715Y-74103572D01*
X131295953Y-74055953D01*
X130772143Y-73627381D02*
X130105477Y-73627381D01*
X130534048Y-74627381D01*
X142967381Y-76142143D02*
X142491191Y-75808810D01*
X142967381Y-75570715D02*
X141967381Y-75570715D01*
X141967381Y-75951667D01*
X142015001Y-76046905D01*
X142062620Y-76094524D01*
X142157858Y-76142143D01*
X142300715Y-76142143D01*
X142395953Y-76094524D01*
X142443572Y-76046905D01*
X142491191Y-75951667D01*
X142491191Y-75570715D01*
X142395953Y-76713572D02*
X142348334Y-76618334D01*
X142300715Y-76570715D01*
X142205477Y-76523096D01*
X142157858Y-76523096D01*
X142062620Y-76570715D01*
X142015001Y-76618334D01*
X141967381Y-76713572D01*
X141967381Y-76904048D01*
X142015001Y-76999286D01*
X142062620Y-77046905D01*
X142157858Y-77094524D01*
X142205477Y-77094524D01*
X142300715Y-77046905D01*
X142348334Y-76999286D01*
X142395953Y-76904048D01*
X142395953Y-76713572D01*
X142443572Y-76618334D01*
X142491191Y-76570715D01*
X142586429Y-76523096D01*
X142776905Y-76523096D01*
X142872143Y-76570715D01*
X142919762Y-76618334D01*
X142967381Y-76713572D01*
X142967381Y-76904048D01*
X142919762Y-76999286D01*
X142872143Y-77046905D01*
X142776905Y-77094524D01*
X142586429Y-77094524D01*
X142491191Y-77046905D01*
X142443572Y-76999286D01*
X142395953Y-76904048D01*
X142395953Y-77665953D02*
X142348334Y-77570715D01*
X142300715Y-77523096D01*
X142205477Y-77475477D01*
X142157858Y-77475477D01*
X142062620Y-77523096D01*
X142015001Y-77570715D01*
X141967381Y-77665953D01*
X141967381Y-77856429D01*
X142015001Y-77951667D01*
X142062620Y-77999286D01*
X142157858Y-78046905D01*
X142205477Y-78046905D01*
X142300715Y-77999286D01*
X142348334Y-77951667D01*
X142395953Y-77856429D01*
X142395953Y-77665953D01*
X142443572Y-77570715D01*
X142491191Y-77523096D01*
X142586429Y-77475477D01*
X142776905Y-77475477D01*
X142872143Y-77523096D01*
X142919762Y-77570715D01*
X142967381Y-77665953D01*
X142967381Y-77856429D01*
X142919762Y-77951667D01*
X142872143Y-77999286D01*
X142776905Y-78046905D01*
X142586429Y-78046905D01*
X142491191Y-77999286D01*
X142443572Y-77951667D01*
X142395953Y-77856429D01*
X132727381Y-80182143D02*
X132251191Y-79848810D01*
X132727381Y-79610715D02*
X131727381Y-79610715D01*
X131727381Y-79991667D01*
X131775001Y-80086905D01*
X131822620Y-80134524D01*
X131917858Y-80182143D01*
X132060715Y-80182143D01*
X132155953Y-80134524D01*
X132203572Y-80086905D01*
X132251191Y-79991667D01*
X132251191Y-79610715D01*
X132155953Y-80753572D02*
X132108334Y-80658334D01*
X132060715Y-80610715D01*
X131965477Y-80563096D01*
X131917858Y-80563096D01*
X131822620Y-80610715D01*
X131775001Y-80658334D01*
X131727381Y-80753572D01*
X131727381Y-80944048D01*
X131775001Y-81039286D01*
X131822620Y-81086905D01*
X131917858Y-81134524D01*
X131965477Y-81134524D01*
X132060715Y-81086905D01*
X132108334Y-81039286D01*
X132155953Y-80944048D01*
X132155953Y-80753572D01*
X132203572Y-80658334D01*
X132251191Y-80610715D01*
X132346429Y-80563096D01*
X132536905Y-80563096D01*
X132632143Y-80610715D01*
X132679762Y-80658334D01*
X132727381Y-80753572D01*
X132727381Y-80944048D01*
X132679762Y-81039286D01*
X132632143Y-81086905D01*
X132536905Y-81134524D01*
X132346429Y-81134524D01*
X132251191Y-81086905D01*
X132203572Y-81039286D01*
X132155953Y-80944048D01*
X132727381Y-81610715D02*
X132727381Y-81801191D01*
X132679762Y-81896429D01*
X132632143Y-81944048D01*
X132489286Y-82039286D01*
X132298810Y-82086905D01*
X131917858Y-82086905D01*
X131822620Y-82039286D01*
X131775001Y-81991667D01*
X131727381Y-81896429D01*
X131727381Y-81705953D01*
X131775001Y-81610715D01*
X131822620Y-81563096D01*
X131917858Y-81515477D01*
X132155953Y-81515477D01*
X132251191Y-81563096D01*
X132298810Y-81610715D01*
X132346429Y-81705953D01*
X132346429Y-81896429D01*
X132298810Y-81991667D01*
X132251191Y-82039286D01*
X132155953Y-82086905D01*
X147587258Y-102346176D02*
X147250540Y-102682894D01*
X148193349Y-102211489D02*
X147587258Y-102346176D01*
X147721945Y-101740085D01*
X146408747Y-101841100D02*
X146812808Y-102245161D01*
X146610777Y-102043130D02*
X147317884Y-101336024D01*
X147284212Y-101504382D01*
X147284212Y-101639069D01*
X147317884Y-101740085D01*
M02*
