M48
; DRILL file {KiCad 5.1.5} date Чт 20 фев 2020 18:04:24
; FORMAT={-:-/ absolute / metric / decimal}
; #@! TF.CreationDate,2020-02-20T18:04:24+03:00
; #@! TF.GenerationSoftware,Kicad,Pcbnew,5.1.5
FMAT,2
METRIC
T1C0.200
T2C0.400
T3C0.450
T4C1.000
%
G90
G05
T1
X85.46Y-114.9
X86.41Y-116.36
X86.65Y-116.94
X87.37Y-96.38
X87.65Y-115.77
X87.95Y-121.33
X89.06Y-97.26
X89.097Y-98.85
X89.19Y-122.52
X89.513Y-99.298
X89.93Y-111.16
X90.16Y-112.27
X90.29Y-128.5
X90.32Y-123.9
X90.47Y-109.78
X91.109Y-124.369
X91.111Y-96.912
X91.155Y-129.92
X91.311Y-99.192
X91.53Y-108.71
X91.87Y-96.93
X91.99Y-99.192
X92.04Y-123.6
X92.95Y-126.29
X94.017Y-125.111
X94.331Y-99.451
X94.93Y-99.41
X95.04Y-105.36
X96.21Y-106.48
X96.61Y-127.0
X96.68Y-106.29
X97.12Y-106.49
X97.74Y-128.02
X99.79Y-107.4
X100.19Y-131.376
X100.98Y-130.87
X101.13Y-123.11
X101.4Y-101.6
X101.624Y-130.058
X101.67Y-111.72
X102.01Y-101.93
X102.14Y-124.1
X102.26Y-128.39
X102.326Y-129.066
X102.44Y-102.42
X102.8Y-104.05
X103.0Y-104.72
X103.12Y-123.27
X103.26Y-120.71
X103.47Y-110.85
X103.78Y-122.39
X103.971Y-113.611
X104.145Y-111.68
X104.37Y-104.23
X104.404Y-104.838
X104.67Y-119.28
X105.83Y-120.35
X105.89Y-115.48
X106.89Y-119.38
X107.08Y-114.43
X107.22Y-105.19
X107.27Y-107.64
X108.0Y-117.5
X111.13Y-119.99
X111.82Y-119.4
X113.72Y-108.6
X125.48Y-154.83
X126.885Y-111.939
X127.015Y-107.632
X127.038Y-108.822
X127.39Y-111.433
X127.71Y-99.6
X127.989Y-111.395
X128.138Y-94.932
X128.31Y-99.6
X128.51Y-113.59
X128.55Y-115.625
X128.56Y-117.645
X128.697Y-95.198
X129.216Y-94.616
X129.51Y-95.23
X130.445Y-122.755
X130.89Y-111.57
X130.965Y-119.208
X131.31Y-107.26
X131.34Y-155.63
X131.564Y-119.174
X131.61Y-106.67
X131.72Y-98.325
X132.024Y-119.634
X132.28Y-112.34
X132.64Y-105.615
X132.82Y-98.85
X133.19Y-119.32
X133.932Y-119.455
X134.427Y-127.693
X135.22Y-100.83
X136.209Y-106.811
X136.28Y-116.77
X136.481Y-115.536
X136.761Y-108.125
X137.06Y-157.66
X137.318Y-109.087
X137.7Y-157.65
X137.93Y-107.58
X138.13Y-155.85
X139.87Y-123.65
X140.0Y-100.21
X140.56Y-118.52
X140.8Y-150.75
X141.04Y-112.85
X141.1Y-101.01
X141.32Y-111.03
X142.1Y-111.72
X142.52Y-150.28
X142.7Y-118.31
X142.71Y-123.59
X142.935Y-97.38
X143.09Y-117.42
X143.125Y-106.3
X143.645Y-106.73
X144.17Y-154.65
X145.359Y-99.824
X145.41Y-141.08
X145.855Y-109.075
X149.02Y-110.97
X149.04Y-118.06
X149.11Y-113.56
X149.13Y-120.64
X149.295Y-125.175
X150.86Y-122.92
X150.946Y-108.614
X151.09Y-115.84
X152.05Y-106.47
X152.465Y-120.675
X152.56Y-113.57
X153.374Y-104.094
X154.15Y-104.06
X155.36Y-110.97
X155.37Y-118.05
X120.255Y-144.04
X120.255Y-145.34
X120.255Y-146.64
X122.165Y-144.04
X122.165Y-145.34
X122.165Y-146.64
T2
X76.29Y-83.14
X76.62Y-98.47
X76.63Y-91.78
X77.5Y-62.8
X77.5Y-66.03
X77.56Y-103.51
X77.87Y-144.8
X77.88Y-131.94
X78.06Y-111.9
X78.23Y-122.61
X78.4Y-157.24
X79.34Y-52.58
X82.26Y-107.3
X82.27Y-55.18
X82.31Y-56.52
X82.5Y-64.05
X82.76Y-99.73
X82.78Y-83.13
X82.87Y-160.89
X83.33Y-137.85
X83.69Y-53.11
X83.72Y-73.83
X83.74Y-51.19
X84.01Y-151.89
X84.06Y-127.36
X84.62Y-71.43
X85.425Y-66.71
X85.88Y-83.35
X85.943Y-60.11
X87.03Y-79.23
X87.29Y-73.69
X87.37Y-82.67
X87.94Y-126.34
X87.943Y-57.33
X88.17Y-140.38
X88.17Y-151.03
X88.46Y-68.53
X88.81Y-95.26
X88.94Y-90.81
X89.38Y-156.21
X89.8Y-73.71
X89.81Y-71.52
X89.81Y-135.85
X89.87Y-82.56
X90.06Y-93.785
X90.18Y-67.61
X90.23Y-133.65
X90.45Y-139.53
X90.46Y-150.9
X90.5Y-84.995
X90.58Y-83.53
X90.65Y-144.61
X90.89Y-71.91
X91.033Y-68.6
X91.09Y-76.47
X91.25Y-52.88
X91.29Y-104.54
X91.35Y-85.78
X91.61Y-59.2
X91.62Y-156.19
X92.45Y-88.789
X92.457Y-78.934
X93.01Y-75.51
X93.26Y-161.26
X93.81Y-77.65
X93.96Y-96.5
X94.159Y-79.403
X94.25Y-72.5
X94.42Y-92.07
X94.498Y-64.85
X94.74Y-75.85
X94.77Y-66.55
X94.992Y-73.46
X95.156Y-96.506
X95.223Y-85.637
X95.48Y-89.94
X95.889Y-86.487
X96.31Y-68.55
X96.43Y-85.55
X96.94Y-80.05
X97.31Y-83.38
X97.86Y-52.21
X98.77Y-79.83
X98.84Y-75.99
X99.09Y-161.26
X99.21Y-82.46
X99.22Y-90.19
X99.55Y-61.04
X99.92Y-91.4
X100.37Y-66.62
X100.47Y-85.22
X100.47Y-87.4
X100.86Y-55.14
X100.9Y-56.48
X101.15Y-95.77
X101.45Y-161.25
X101.75Y-90.88
X102.11Y-74.74
X102.27Y-73.67
X102.28Y-53.07
X102.33Y-51.15
X102.81Y-76.56
X103.04Y-85.22
X103.16Y-152.64
X103.2Y-79.77
X103.82Y-68.78
X104.08Y-75.37
X104.21Y-152.64
X104.533Y-60.07
X105.14Y-86.62
X105.28Y-152.64
X105.36Y-142.82
X105.64Y-95.52
X106.16Y-85.23
X106.29Y-91.6
X106.533Y-57.29
X107.11Y-161.26
X107.99Y-75.37
X108.55Y-61.72
X109.61Y-161.26
X109.62Y-52.73
X110.18Y-131.0
X111.42Y-99.67
X111.46Y-58.98
X112.07Y-111.12
X112.65Y-67.91
X112.78Y-72.36
X112.97Y-145.985
X112.99Y-78.03
X113.01Y-64.49
X113.1Y-111.12
X113.4Y-75.59
X113.96Y-126.76
X114.52Y-115.63
X114.77Y-99.74
X114.86Y-123.58
X115.05Y-103.71
X115.06Y-52.58
X115.3Y-161.26
X115.5Y-82.31
X116.33Y-70.38
X116.39Y-75.73
X116.46Y-130.8
X116.63Y-120.92
X116.89Y-81.02
X118.09Y-80.595
X118.525Y-82.295
X118.59Y-64.64
X118.92Y-91.59
X119.19Y-90.19
X119.37Y-115.53
X119.72Y-94.75
X119.77Y-86.63
X119.77Y-87.7
X120.44Y-124.77
X120.59Y-97.24
X121.31Y-52.73
X121.39Y-61.99
X122.79Y-110.32
X123.01Y-102.32
X123.29Y-135.33
X123.81Y-113.03
X124.03Y-64.78
X124.29Y-55.13
X124.33Y-56.47
X125.015Y-82.285
X125.16Y-141.71
X125.52Y-98.1
X125.71Y-53.06
X125.76Y-51.14
X125.955Y-72.985
X126.23Y-101.23
X126.38Y-62.21
X126.82Y-104.75
X126.855Y-70.585
X126.93Y-129.83
X127.03Y-124.87
X127.66Y-65.865
X128.115Y-82.505
X128.58Y-59.54
X129.265Y-78.385
X129.525Y-72.845
X129.605Y-81.825
X129.963Y-57.28
X130.31Y-100.72
X130.49Y-85.21
X130.695Y-67.685
X131.175Y-89.965
X131.28Y-94.61
X131.67Y-145.17
X131.71Y-96.52
X131.74Y-153.16
X132.01Y-139.71
X132.035Y-72.865
X132.045Y-70.675
X132.105Y-81.715
X132.295Y-92.94
X132.415Y-66.765
X132.672Y-95.969
X132.815Y-82.685
X133.125Y-71.065
X133.268Y-67.755
X133.325Y-75.625
X133.585Y-84.935
X133.59Y-57.73
X133.7Y-148.44
X133.84Y-149.87
X133.96Y-51.77
X134.685Y-87.944
X134.692Y-78.089
X135.245Y-74.665
X135.79Y-149.11
X136.045Y-76.805
X136.394Y-78.558
X136.485Y-71.655
X136.655Y-91.225
X136.975Y-75.005
X136.993Y-64.005
X137.005Y-65.705
X137.227Y-72.615
X137.458Y-84.792
X137.715Y-89.095
X137.95Y-103.13
X138.124Y-85.642
X138.545Y-67.705
X138.665Y-84.705
X138.92Y-141.53
X139.175Y-79.205
X139.545Y-82.535
X139.74Y-147.81
X140.49Y-51.31
X140.71Y-53.08
X141.005Y-78.985
X141.075Y-75.145
X141.445Y-81.615
X141.455Y-89.345
X141.6Y-60.59
X142.155Y-90.555
X142.605Y-65.775
X142.705Y-84.375
X142.705Y-86.555
X143.38Y-55.02
X143.42Y-56.36
X143.985Y-90.035
X144.06Y-112.17
X144.345Y-73.895
X144.47Y-60.59
X144.505Y-72.825
X144.8Y-52.95
X144.805Y-148.795
X144.85Y-51.03
X145.045Y-75.715
X145.18Y-64.24
X145.275Y-84.375
X145.435Y-78.925
X145.54Y-157.62
X145.6Y-161.77
X146.055Y-67.935
X146.28Y-115.03
X146.315Y-74.525
X147.375Y-85.775
X147.65Y-144.3
X148.33Y-147.49
X148.395Y-84.385
X148.525Y-90.755
X149.053Y-57.17
X149.64Y-144.37
X150.225Y-74.525
X152.22Y-157.4
X152.42Y-141.57
X152.88Y-162.03
X153.36Y-51.31
X153.36Y-58.3
X153.6Y-92.22
X154.24Y-108.59
X154.44Y-122.83
X154.8Y-114.56
X155.635Y-74.745
X156.3Y-70.06
X156.74Y-63.37
X157.03Y-53.37
X157.1Y-157.64
T4
X155.6Y-94.29
X155.6Y-96.83
X155.6Y-99.37
X155.6Y-101.91
X131.84Y-157.46
X131.84Y-160.0
T3
G00X134.125Y-161.87
M15
G01X134.125Y-161.07
M16
G05
G00X141.275Y-161.07
M15
G01X141.275Y-161.87
M16
G05
T4
G00X121.7Y-154.37
M15
G01X123.7Y-154.37
M16
G05
G00X121.7Y-160.37
M15
G01X123.7Y-160.37
M16
G05
G00X127.4Y-158.37
M15
G01X127.4Y-156.37
M16
G05
T0
M30
