M48
; DRILL file {KiCad 5.1.5} date Чт 27 фев 2020 19:30:59
; FORMAT={-:-/ absolute / metric / decimal}
; #@! TF.CreationDate,2020-02-27T19:30:59+03:00
; #@! TF.GenerationSoftware,Kicad,Pcbnew,5.1.5
FMAT,2
METRIC
T1C0.200
T2C0.400
T3C0.450
T4C0.500
T5C1.000
%
G90
G05
T1
X-25.265Y-202.965
X-24.77Y-201.9
X-23.17Y-202.26
X-22.555Y-206.755
X-21.81Y-196.15
X-21.79Y-198.44
X-21.785Y-200.765
X-21.78Y-202.23
X-20.505Y-200.785
X-20.505Y-203.635
X-20.385Y-197.715
X-19.635Y-207.225
X-19.0Y-194.06
X-18.91Y-202.23
X-18.645Y-200.855
X-17.27Y-223.06
X-17.235Y-208.065
X-17.23Y-220.01
X-17.23Y-221.575
X-17.22Y-226.56
X-17.14Y-224.0
X-17.0Y-202.22
X-16.75Y-215.02
X-16.62Y-212.89
X-16.125Y-206.675
X-15.93Y-204.27
X-15.755Y-202.085
X-15.52Y-227.04
X-15.275Y-194.355
X-14.95Y-214.97
X-14.79Y-231.36
X-14.73Y-229.73
X-14.57Y-234.57
X-14.39Y-224.65
X-14.285Y-223.403
X-14.26Y-221.52
X-14.23Y-220.05
X-14.135Y-200.495
X-14.12Y-212.86
X-13.875Y-194.395
X-13.63Y-234.31
X-13.275Y-197.395
X-12.295Y-194.395
X-12.185Y-199.675
X-10.63Y-168.4
X-10.54Y-198.37
X-10.0Y-214.91
X-9.95Y-229.63
X-9.47Y-193.98
X-9.44Y-195.31
X-9.39Y-234.46
X-8.955Y-188.715
X-8.945Y-193.145
X-8.935Y-183.635
X-8.91Y-234.84
X-8.72Y-213.95
X-8.72Y-231.39
X-8.7Y-205.13
X-8.69Y-195.62
X-8.68Y-200.05
X-8.35Y-213.34
X-8.35Y-228.34
X-7.8Y-184.36
X-7.204Y-231.468
X-7.105Y-213.138
X-7.09Y-190.37
X-7.067Y-215.92
X-6.655Y-231.71
X-6.0Y-202.78
X-5.8Y-228.52
X-5.78Y-183.01
X-5.655Y-213.19
X-5.45Y-189.09
X-5.34Y-194.37
X-4.84Y-215.33
X-4.811Y-209.421
X-4.52Y-198.57
X-3.97Y-229.08
X-3.906Y-190.916
X-3.76Y-194.37
X-3.53Y-230.85
X-3.5Y-188.27
X-2.36Y-194.41
X-2.226Y-196.184
X-2.09Y-230.81
X-2.08Y-227.69
X-1.955Y-200.44
X-1.94Y-221.91
X-1.92Y-198.57
X-1.88Y-186.68
X-1.71Y-218.01
X-1.705Y-184.495
X-1.51Y-182.09
X-0.74Y-214.48
X-0.715Y-215.3
X-0.7Y-230.71
X-0.66Y-212.92
X-0.635Y-186.545
X-0.4Y-180.7
X-0.27Y-227.67
X-0.258Y-223.944
X0.199Y-234.691
X0.29Y-185.1
X0.58Y-218.86
X0.84Y-198.66
X0.86Y-230.81
X0.94Y-234.69
X1.01Y-187.91
X1.09Y-222.575
X1.275Y-186.535
X1.39Y-223.675
X1.48Y-228.57
X1.69Y-221.06
X1.74Y-214.98
X1.74Y-230.54
X1.87Y-208.62
X2.0Y-181.54
X2.153Y-211.713
X2.75Y-191.05
X2.76Y-211.64
X2.87Y-185.13
X2.87Y-187.98
X2.959Y-204.629
X3.63Y-211.51
X3.64Y-210.83
X3.77Y-196.34
X3.96Y-214.58
X3.97Y-168.42
X3.98Y-224.06
X4.04Y-194.08
X4.06Y-230.04
X4.12Y-217.575
X4.145Y-186.535
X4.15Y-188.0
X4.15Y-190.22
X4.175Y-192.615
X4.224Y-214.041
X4.92Y-182.01
X5.1Y-228.41
X5.13Y-229.122
X5.18Y-204.82
X5.535Y-186.505
X5.81Y-210.13
X6.32Y-208.75
X7.135Y-186.865
X7.331Y-230.021
X7.39Y-210.115
X7.63Y-185.8
X7.77Y-224.42
X7.93Y-219.075
X8.726Y-219.099
X9.31Y-223.89
X9.47Y-208.815
X9.709Y-222.803
X10.134Y-222.379
X10.505Y-230.63
X10.71Y-225.0
X11.155Y-230.63
X11.38Y-187.81
X11.44Y-189.08
X11.529Y-194.81
X12.215Y-202.955
X12.71Y-201.89
X13.63Y-211.35
X13.66Y-215.17
X13.75Y-191.94
X14.31Y-202.25
X14.925Y-206.745
X14.94Y-214.46
X15.43Y-227.35
X15.67Y-196.14
X15.691Y-198.422
X15.695Y-200.755
X15.7Y-202.22
X15.75Y-211.32
X16.27Y-219.04
X16.769Y-213.845
X16.94Y-214.42
X16.975Y-200.775
X16.975Y-203.625
X17.0Y-220.77
X17.095Y-197.705
X17.133Y-227.364
X17.845Y-207.215
X18.57Y-202.22
X18.681Y-193.678
X18.7Y-211.36
X18.835Y-200.845
X19.22Y-231.97
X19.41Y-190.6
X19.42Y-188.41
X19.51Y-216.59
X19.795Y-231.696
X20.245Y-208.055
X20.295Y-231.311
X20.48Y-202.21
X20.73Y-212.65
X21.13Y-233.47
X21.18Y-225.18
X21.355Y-206.665
X21.55Y-204.26
X21.725Y-202.075
X21.78Y-228.15
X22.205Y-194.345
X22.25Y-268.23
X22.68Y-225.21
X22.71Y-168.49
X22.76Y-218.91
X22.815Y-221.356
X22.97Y-226.62
X23.345Y-200.485
X23.41Y-227.53
X23.605Y-194.385
X23.69Y-219.56
X24.02Y-225.19
X24.205Y-197.385
X24.53Y-221.325
X24.6Y-206.28
X24.66Y-227.36
X25.185Y-194.385
X25.295Y-199.665
X26.005Y-200.35
X26.005Y-205.005
X26.164Y-206.694
X26.94Y-198.36
X26.98Y-206.62
X27.5Y-264.52
X27.505Y-200.38
X27.56Y-256.92
X28.525Y-188.705
X28.535Y-193.135
X28.545Y-183.625
X28.78Y-205.12
X28.79Y-195.61
X28.8Y-200.04
X28.995Y-258.877
X29.01Y-263.51
X30.28Y-259.11
X30.39Y-190.36
X30.53Y-198.38
X31.51Y-204.67
X31.53Y-197.18
X32.03Y-189.08
X32.14Y-194.36
X32.47Y-228.43
X32.96Y-198.56
X33.12Y-191.36
X33.319Y-267.373
X33.72Y-194.36
X33.969Y-267.373
X33.98Y-188.26
X33.98Y-262.07
X35.12Y-194.4
X35.31Y-196.09
X35.525Y-200.43
X35.55Y-198.56
X35.6Y-186.67
X35.775Y-184.485
X35.97Y-182.08
X36.845Y-186.535
X37.08Y-180.69
X37.85Y-185.12
X38.35Y-198.64
X38.49Y-187.9
X38.6Y-169.09
X38.755Y-186.525
X39.48Y-181.53
X40.23Y-191.04
X40.35Y-185.12
X40.35Y-187.97
X41.13Y-228.25
X41.24Y-207.94
X41.26Y-206.08
X41.26Y-235.38
X41.45Y-196.34
X41.55Y-194.06
X41.6Y-190.33
X41.619Y-187.979
X41.625Y-186.525
X41.655Y-192.605
X42.4Y-182.0
X43.015Y-186.495
X44.615Y-186.855
X45.11Y-185.79
X-8.315Y-249.71
X-8.315Y-251.01
X-8.315Y-252.31
X-6.405Y-249.71
X-6.405Y-251.01
X-6.405Y-252.31
T2
X-22.28Y-167.79
X-16.72Y-170.34
X-15.7Y-169.17
X-12.94Y-173.61
X-7.04Y-208.83
X-0.035Y-170.335
X0.3Y-253.05
X0.34Y-169.22
X1.75Y-206.97
X3.745Y-173.605
X8.06Y-257.65
X8.66Y-192.01
X10.55Y-184.06
X11.02Y-167.81
X12.99Y-178.52
X14.91Y-238.66
X15.05Y-252.53
X16.42Y-169.78
X17.72Y-168.47
X20.42Y-173.61
X25.25Y-260.27
X25.26Y-262.45
X27.8Y-167.76
X28.34Y-261.84
X31.6Y-224.87
X32.15Y-265.1
X32.38Y-241.76
X32.47Y-261.85
X33.51Y-170.33
X33.59Y-263.35
X33.76Y-260.17
X34.63Y-169.22
X37.29Y-173.6
X39.09Y-206.95
X40.67Y-226.01
X40.74Y-230.5
X40.85Y-237.59
X40.86Y-233.1
X40.91Y-218.87
X40.91Y-223.36
T4
X-15.23Y-271.5
X-14.32Y-243.99
X-8.48Y-238.31
X-6.48Y-247.23
X-5.27Y-258.62
X-2.05Y-258.71
X3.39Y-271.48
X3.47Y-250.65
X3.47Y-255.26
X3.5Y-257.73
X5.25Y-263.24
X11.49Y-271.45
X14.5Y-243.3
X19.38Y-271.5
X22.9Y-242.58
X31.1Y-250.55
T5
X24.0Y-269.7
X26.54Y-269.7
X43.74Y-243.71
X43.74Y-246.25
X43.74Y-248.79
X43.74Y-251.33
T3
G00X30.375Y-271.84
M15
G01X30.375Y-271.04
M16
G05
G00X37.525Y-271.04
M15
G01X37.525Y-271.84
M16
G05
T5
G00X42.15Y-259.01
M15
G01X44.15Y-259.01
M16
G05
G00X42.15Y-265.01
M15
G01X44.15Y-265.01
M16
G05
G00X47.85Y-263.01
M15
G01X47.85Y-261.01
M16
G05
T0
M30
